
<svg xmlns="http://www.w3.org/2000/svg" version="1.1" xmlns:xlink="http://www.w3.org/1999/xlink" preserveAspectRatio="none" x="0px" y="0px" width="800px" height="80px" viewBox="0 0 800 80">
<defs>
<radialGradient id="Gradient_1" gradientUnits="userSpaceOnUse" cx="0" cy="0" r="26.7375" fx="0" fy="0" gradientTransform="matrix( 1, 0, 0, 1, 0,0.1) " spreadMethod="pad">
<stop  offset="0%" stop-color="#4F8FFF"/>

<stop  offset="100%" stop-color="#003399"/>
</radialGradient>

<radialGradient id="Gradient_2" gradientUnits="userSpaceOnUse" cx="0" cy="0" r="26.7375" fx="0" fy="0" gradientTransform="matrix( 1, 0, 0, 1, 0,0.1) " spreadMethod="pad">
<stop  offset="0%" stop-color="#7BB3FF"/>

<stop  offset="100%" stop-color="#2C5499"/>
</radialGradient>

<radialGradient id="Gradient_3" gradientUnits="userSpaceOnUse" cx="0" cy="0" r="26.7375" fx="0" fy="0" gradientTransform="matrix( 1, 0, 0, 1, 0,0.1) " spreadMethod="pad">
<stop  offset="0%" stop-color="#DEECFF"/>

<stop  offset="100%" stop-color="#219599"/>
</radialGradient>

<radialGradient id="Gradient_4" gradientUnits="userSpaceOnUse" cx="0" cy="0" r="26.7375" fx="0" fy="0" gradientTransform="matrix( 1, 0, 0, 1, 0,0.1) " spreadMethod="pad">
<stop  offset="0%" stop-color="#FF87CF"/>

<stop  offset="100%" stop-color="#992B2B"/>
</radialGradient>

<g id="Layer8_0_FILL">
<path fill="#505050" fill-opacity="0.4" stroke="none" d="
M 147.8 47.25
Q 144.6 44 140 44
L 70.75 44
Q 71 42.0484375 71 40 71 37.3 70.6 34.8 69.1 25.25 61.9 18.05 59.65 15.8 57.25 14.15 49.7 9 40 9 27.1 9 18.05 18.05 9 27.1 9 40 9 52.85 18.05 61.9 27.1 71 40 71 49.525 71 56.95 66
L 140 66
Q 144.6 66 147.8 62.8 148 62.6 148.25 62.35 151 59.3 151 55 151 50.8 148.25 47.7 148 47.5 147.8 47.25
M 140 45
Q 144.15 45 147.05 47.95 147.4 48.3 147.7 48.65 150 51.35 150 55 150 58.65 147.7 61.4 147.4 61.75 147.05 62.1 144.15 65 140 65
L 56.7 65
Q 49.4 70 40 70 27.55 70 18.75 61.25 10 52.45 10 40 10 27.55 18.75 18.8 27.55 10 40 10 52.45 10 61.2 18.8 70 27.55 70 40 70 42.6 69.65 45
L 140 45
M 267.8 47.25
Q 264.6 44 260 44
L 186.6 44
Q 186.455078125 43.855078125 186.3 43.7 181.7 39 175 39 168.4 39 163.7 43.7 159 48.4 159 55 159 61.7 163.7 66.3 168.4 71 175 71 181.7 71 186.3 66.3 186.475 66.15 186.65 66
L 260 66
Q 264.6 66 267.8 62.8 268 62.6 268.25 62.35 271 59.3 271 55 271 50.8 268.25 47.7 268 47.5 267.8 47.25
M 260 45
Q 264.15 45 267.05 47.9 270 50.85 270 55 270 59.15 267.05 62.05 264.15 65 260 65
L 186.2 65
Q 185.9 65.3 185.6 65.6 181.25 70 175 70 168.8 70 164.4 65.6 160 61.25 160 55 160 48.8 164.4 44.4 168.8 40 175 40 181.25 40 185.6 44.4 185.9 44.7 186.2 45
L 260 45
M 387.8 47.25
Q 384.6 44 380 44
L 306.6 44
Q 306.455078125 43.855078125 306.3 43.7 301.7 39 295 39 288.4 39 283.7 43.7 279 48.4 279 55 279 61.7 283.7 66.3 288.4 71 295 71 301.7 71 306.3 66.3 306.475 66.15 306.65 66
L 380 66
Q 384.6 66 387.8 62.8 388 62.6 388.25 62.35 391 59.3 391 55 391 50.8 388.25 47.7 388 47.5 387.8 47.25
M 380 45
Q 384.15 45 387.05 47.9 390 50.85 390 55 390 59.15 387.05 62.05 384.15 65 380 65
L 306.2 65
Q 305.9 65.3 305.6 65.6 301.25 70 295 70 288.8 70 284.4 65.6 280 61.25 280 55 280 48.8 284.4 44.4 288.8 40 295 40 301.25 40 305.6 44.4 305.9 44.7 306.2 45
L 380 45
M 507.8 47.25
Q 504.6 44 500 44
L 426.6 44
Q 426.455078125 43.855078125 426.3 43.7 421.7 39 415 39 408.4 39 403.7 43.7 399 48.4 399 55 399 61.7 403.7 66.3 408.4 71 415 71 421.7 71 426.3 66.3 426.475 66.15 426.65 66
L 500 66
Q 504.6 66 507.8 62.8 508 62.6 508.25 62.35 511 59.3 511 55 511 50.8 508.25 47.7 508 47.5 507.8 47.25
M 500 45
Q 504.15 45 507.05 47.9 510 50.85 510 55 510 59.15 507.05 62.05 504.15 65 500 65
L 426.2 65
Q 425.9 65.3 425.6 65.6 421.25 70 415 70 408.8 70 404.4 65.6 400 61.25 400 55 400 48.8 404.4 44.4 408.8 40 415 40 421.25 40 425.6 44.4 425.9 44.7 426.2 45
L 500 45 Z"/>

<path fill="#505050" fill-opacity="0.2" stroke="none" d="
M 147.05 47.95
Q 144.15 45 140 45
L 69.65 45
Q 70 42.6 70 40 70 27.55 61.2 18.8 52.45 10 40 10 27.55 10 18.75 18.8 10 27.55 10 40 10 52.45 18.75 61.25 27.55 70 40 70 49.4 70 56.7 65
L 140 65
Q 144.15 65 147.05 62.1 147.4 61.75 147.7 61.4 150 58.65 150 55 150 51.35 147.7 48.65 147.4 48.3 147.05 47.95
M 267.05 47.9
Q 264.15 45 260 45
L 186.2 45
Q 185.9 44.7 185.6 44.4 181.25 40 175 40 168.8 40 164.4 44.4 160 48.8 160 55 160 61.25 164.4 65.6 168.8 70 175 70 181.25 70 185.6 65.6 185.9 65.3 186.2 65
L 260 65
Q 264.15 65 267.05 62.05 270 59.15 270 55 270 50.85 267.05 47.9
M 387.05 47.9
Q 384.15 45 380 45
L 306.2 45
Q 305.9 44.7 305.6 44.4 301.25 40 295 40 288.8 40 284.4 44.4 280 48.8 280 55 280 61.25 284.4 65.6 288.8 70 295 70 301.25 70 305.6 65.6 305.9 65.3 306.2 65
L 380 65
Q 384.15 65 387.05 62.05 390 59.15 390 55 390 50.85 387.05 47.9
M 507.05 47.9
Q 504.15 45 500 45
L 426.2 45
Q 425.9 44.7 425.6 44.4 421.25 40 415 40 408.8 40 404.4 44.4 400 48.8 400 55 400 61.25 404.4 65.6 408.8 70 415 70 421.25 70 425.6 65.6 425.9 65.3 426.2 65
L 500 65
Q 504.15 65 507.05 62.05 510 59.15 510 55 510 50.85 507.05 47.9 Z"/>
</g>

<g id="Layer7_0_FILL">
<path fill="#DCDCDC" stroke="none" d="
M 592 60
L 599 55 592 50 592 60
M 560 60
L 560 50 556 50 556 60 560 60
M 566 60
L 566 50 562 50 562 60 566 60
M 626 50
L 626 60 633 55 626 50
M 637 55
L 630 50 630 51.85 634 55 630 58.1 630 60 637 55
M 695 58.1
L 695 60 702 55 695 50 695 51.85 699 55 695 58.1
M 691 50
L 691 60 698 55 691 50
M 703 50
L 703 51.85 707 55 703 58.1 703 60 710 55 703 50
M 699 50
L 699 51.85 703 55 699 58.1 699 60 706 55 699 50
M 659 60
L 666 55 659 50 659 60
M 663 50
L 663 51.85 667 55 663 58.1 663 60 670 55 663 50
M 667 50
L 667 51.85 671 55 667 58.1 667 60 674 55 667 50
M 420.6 48.85
Q 419.80390625 47.384765625 416.95 47.1 414.1470703125 46.861328125 412 47.3 409.8509765625 47.74609375 409.45 48.85
L 409.95 50.35 408.05 51.05
Q 406.65 51.7 408 54.9 408.5 55.55 409.45 55.55
L 411.6 55.55
Q 412.4 57.4 413.6 57.3 415.35 59.4 413.1 60.65
L 412.1 62.25
Q 411.7 62.8 414.7 62.9 417.6 62.95 417.9 62.55
L 416.95 60.65
Q 414.7 59.4 416.45 57.3 417.65 57.4 418.45 55.55
L 420.6 55.55
Q 421.55 55.55 422.05 54.9 423.4 51.7 422 51.05
L 420.1 50.35 420.6 48.85
M 421 51.65
Q 422.4 52.1 421.05 54.3 420.55 54.7 419.6 54.7
L 418.75 54.7
Q 418.8 54.6 418.85 54.5
L 419.8 51.4 421 51.65
M 411.2 54.5
Q 411.25 54.6 411.3 54.7
L 410.45 54.7
Q 409.5 54.7 409 54.3 407.65 52.1 409.05 51.65
L 410.25 51.4 411.2 54.5
M 295.8 46.95
L 294.4 46.95 294.4 47.95
Q 290.05 48.5 290.05 51.95 290.05 53.3 290.9 54.25 291.7 55.2 294.4 55.8
L 294.4 59.85
Q 292.35 59.7 291.75 57.55
L 289.55 58.05
Q 290.6 61.45 294.4 61.75
L 294.4 62.85 295.8 62.85 295.8 61.75
Q 298 61.55 299.15 60.4 300.35 59.3 300.35 57.6 300.35 56.4 299.8 55.5 299.2 54.6 298.5 54.3 297.8 54 295.8 53.4
L 295.8 49.85
Q 297.2 49.95 297.75 51.55
L 299.85 51.1
Q 299 48.35 295.8 47.95
L 295.8 46.95
M 294.4 49.85
L 294.4 53.3
Q 292.35 53 292.35 51.6 292.35 50.7 292.95 50.3 293.55 49.85 294.4 49.85
M 298.05 57.85
Q 298.05 58.75 297.45 59.3 296.75 59.85 295.8 59.85
L 295.8 55.95
Q 298.05 56.35 298.05 57.85
M 169.6 47.6
Q 169 48.15 169 49 169 49.8 169.6 50.4 170.190625 50.990625 170.95 51 169.790625 51.009375 168.9 51.9 168 52.75 168 54
L 168 57 168 63 170 63 170.55 59 171.5 59 172 63 174 63 174 57 174 54
Q 174 52.75 173.15 51.9 172.258984375 51.008984375 171.15 51 171.859375 50.990625 172.45 50.4 173 49.8 173 49 173 48.15 172.45 47.6 171.85 47 171 47 170.2 47 169.6 47.6
M 181 49
Q 181 48.15 180.45 47.6 179.85 47 179 47 178.2 47 177.6 47.6 177 48.15 177 49 177 49.8 177.6 50.4 178.190625 50.990625 178.95 51 177.790625 51.009375 176.9 51.9 176 52.75 176 54
L 176 57 176 63 178 63 178.55 59 179.5 59 180 63 182 63 182 57 182 54
Q 182 52.75 181.15 51.9 180.258984375 51.008984375 179.15 51 179.859375 50.990625 180.45 50.4 181 49.8 181 49 Z"/>
</g>

<g id="Symbole_1_0_Layer2_0_FILL">
<path fill="url(#Gradient_1)" stroke="none" d="
M 17.65 17.75
L 0 0.1 -17.65 17.75
Q -10.35 25.05 0 25 10.35 25.05 17.65 17.75 Z"/>

<path fill="url(#Gradient_2)" stroke="none" d="
M -25 0
Q -25 10.4 -17.65 17.75
L 0 0.1 -17.7 -17.6
Q -25 -10.3 -25 0 Z"/>

<path fill="url(#Gradient_3)" stroke="none" d="
M 17.7 -17.6
Q 10.35 -24.95 0 -25 -10.35 -24.95 -17.7 -17.6
L 0 0.1 17.7 -17.6 Z"/>

<path fill="url(#Gradient_4)" stroke="none" d="
M 24.55 -4.85
Q 23.2 -12.1 17.7 -17.6
L 0 0.1 17.65 17.75
Q 19.2 16.2 20.45 14.55 25.05 8.25 25 0 25 -2.5 24.55 -4.85 Z"/>
</g>

<g id="Symbole_1_0_Layer1_0_FILL">
<path fill="#FF0E0E" stroke="none" d="
M 0 0.1
L 4.15 4.25
Q 4.1755859375 4.22578125 4.2 4.2 6 2.4 6 0 6 -2.3986328125 4.25 -4.2
L 0 0.1 Z"/>

<path fill="#99FFFF" stroke="none" d="
M 0 22.1
Q 0.675 22.1 1.25 21.9 -2.9798828125 19.3140625 -1.3 14.3 -2.1380859375 14.5677734375 -2.85 15.25 -4 16.45 -4 18.1 -4 19.7 -2.85 20.9 -1.65 22.1 0 22.1 Z"/>

<path fill="#103CA5" stroke="none" d="
M 1.25 21.9
Q 2.1205078125 21.608984375 2.8 20.9 4 19.7 4 18.1 4 16.45 2.8 15.25 1.65 14.1 0 14.1 -0.6712890625 14.1 -1.3 14.3 -2.9798828125 19.3140625 1.25 21.9 Z"/>

<path fill="#FFFF00" stroke="none" d="
M 4 -17.9
Q 4 -19.55 2.8 -20.75 1.65 -21.9 0 -21.9 -1.65 -21.9 -2.85 -20.75 -4 -19.55 -4 -17.9 -4 -16.3 -2.85 -15.1 -1.65 -13.9 0 -13.9 1.65 -13.9 2.8 -15.1 4 -16.3 4 -17.9 Z"/>
</g>

<path id="Layer7_0_1_STROKES" stroke="#505050" stroke-opacity="0.25098039215686274" stroke-width="1" stroke-linejoin="round" stroke-linecap="round" fill="none" d="
M 667 50
L 674 55 667 60 667 58.1 671 55 667 51.85 667 50 Z
M 663 50
L 670 55 663 60 663 58.1 667 55 663 51.85 663 50 Z
M 659 50
L 666 55 659 60 659 50 Z
M 699 50
L 706 55 699 60 699 58.1 703 55 699 51.85 699 50 Z
M 703 50
L 710 55 703 60 703 58.1 707 55 703 51.85 703 50 Z
M 691 50
L 698 55 691 60 691 50 Z
M 695 50
L 702 55 695 60 695 58.1 699 55 695 51.85 695 50 Z
M 592 50
L 599 55 592 60 592 50 Z
M 630 50
L 637 55 630 60 630 58.1 634 55 630 51.85 630 50 Z
M 626 50
L 633 55 626 60 626 50 Z
M 562 50
L 566 50 566 60 562 60 562 50 Z
M 556 50
L 560 50 560 60 556 60 556 50 Z
M 412.1 62.25
L 413.1 60.65
Q 415.35 59.4 413.6 57.3 412.4 57.4 411.6 55.55
L 409.45 55.55
Q 408.5 55.55 408 54.9 406.65 51.7 408.05 51.05
L 409.95 50.35 409.45 48.85
Q 409.8509765625 47.74609375 412 47.3 414.1470703125 46.861328125 416.975 47.125 419.80390625 47.384765625 420.6 48.85
L 420.1 50.35 422 51.05
Q 423.4 51.7 422.05 54.9 421.55 55.55 420.6 55.55
L 418.45 55.55
Q 417.65 57.4 416.45 57.3 414.7 59.4 416.95 60.65
L 417.9 62.55
Q 417.6 62.95 414.7 62.9 411.7 62.8 412.1 62.25 Z
M 418.85 54.5
L 419.8 51.4 421 51.65
Q 422.4 52.1 421.05 54.3 420.55 54.7 419.6 54.7
L 418.75 54.7
Q 418.8 54.6 418.85 54.5 Z
M 411.2 54.5
L 410.25 51.4 409.05 51.65
Q 407.65 52.1 409 54.3 409.5 54.7 410.45 54.7
L 411.3 54.7
Q 411.25 54.6 411.2 54.5 Z
M 289.55 58.05
Q 290.6 61.45 294.4 61.75
L 294.4 62.85 295.8 62.85 295.8 61.75
Q 298 61.55 299.15 60.4 300.35 59.3 300.35 57.6 300.35 56.4 299.8 55.5 299.2 54.6 298.5 54.3 297.8 54 295.8 53.4
L 295.8 49.85
Q 297.2 49.95 297.75 51.55
L 299.85 51.1
Q 299 48.35 295.8 47.95
L 295.8 46.95 294.4 46.95 294.4 47.95
Q 290.05 48.5 290.05 51.95 290.05 53.3 290.9 54.25 291.7 55.2 294.4 55.8
L 294.4 59.85
Q 292.35 59.7 291.75 57.55
L 289.55 58.05 Z
M 294.4 49.85
Q 293.55 49.85 292.95 50.3 292.35 50.7 292.35 51.6 292.35 53 294.4 53.3
L 294.4 49.85 Z
M 295.8 59.85
Q 296.75 59.85 297.45 59.3 298.05 58.75 298.05 57.85 298.05 56.35 295.8 55.95
L 295.8 59.85 Z
M 176 54
Q 176 52.75 176.9 51.9 177.790625 51.009375 178.975 51 178.190625 50.990625 177.6 50.4 177 49.8 177 49 177 48.15 177.6 47.6 178.2 47 179 47 179.85 47 180.45 47.6 181 48.15 181 49 181 49.8 180.45 50.4 179.859375 50.990625 179.175 51 180.258984375 51.008984375 181.15 51.9 182 52.75 182 54
L 182 57 182 63 180 63 179.5 59 178.55 59 178 63 176 63 176 57 176 54 Z
M 168 54
Q 168 52.75 168.9 51.9 169.790625 51.009375 170.975 51 170.190625 50.990625 169.6 50.4 169 49.8 169 49 169 48.15 169.6 47.6 170.2 47 171 47 171.85 47 172.45 47.6 173 48.15 173 49 173 49.8 172.45 50.4 171.859375 50.990625 171.175 51 172.258984375 51.008984375 173.15 51.9 174 52.75 174 54
L 174 57 174 63 172 63 171.5 59 170.55 59 170 63 168 63 168 57 168 54 Z"/>
</defs>

<g transform="matrix( 1, 0, 0, 1, 0,0) ">
<use xlink:href="#Layer8_0_FILL"/>
</g>

<g transform="matrix( 1, 0, 0, 1, 0,0) ">
<use xlink:href="#Layer7_0_FILL"/>

<use xlink:href="#Layer7_0_1_STROKES"/>
</g>

<g transform="matrix( 1, 0, 0, 1, 40,39.9) ">
<g transform="matrix( 1, 0, 0, 1, 0,0) ">
<use xlink:href="#Symbole_1_0_Layer2_0_FILL"/>
</g>

<g transform="matrix( 1, 0, 0, 1, 0,0) ">
<use xlink:href="#Symbole_1_0_Layer1_0_FILL"/>
</g>
</g>
</svg>
