
<svg xmlns="http://www.w3.org/2000/svg" version="1.1" xmlns:xlink="http://www.w3.org/1999/xlink" preserveAspectRatio="none" x="0px" y="0px" width="440px" height="440px" viewBox="0 0 440 440">
<defs>
<g id="Mask_8_MASK_0_FILL">
<path fill="#FFFFFF" stroke="none" d="
M 129.95 81.3
L 130 81.35 157.55 123.85 282.4 123.85 327.65 54.25 112.4 54.25 129.95 81.3 Z"/>
</g>

<g id="Symbole_2_0_Layer0_0_FILL">
<path fill="#000000" stroke="none" d="
M -65.7 102
L -64.85 102.5 -62.7 99.15 -63.55 98.65 -65.7 102
M -42.5 113.6
L -40.6 114.3 -39.25 110.55 -41.15 109.85 -42.5 113.6
M -59.9 105.5
L -57.9 102.05 -59.6 101.05 -61.6 104.5 -59.9 105.5
M -55.65 107.75
L -53.8 104.25 -54.7 103.8 -56.55 107.3 -55.65 107.75
M -49.15 106.5
L -50.1 106.05 -51.8 109.65 -50.9 110.1 -49.15 106.5
M -44.45 108.55
L -45.4 108.2 -47 111.85 -46.05 112.2 -44.45 108.55
M -26.85 118.3
L -25.9 118.45 -25 114.55 -25.45 114.45 -25.95 114.4 -26.85 118.3
M -37.05 115.45
L -36.1 115.75 -34.9 112 -35.85 111.7 -37.05 115.45
M -31.95 117
L -31 117.25 -29.95 113.35 -30.9 113.15 -31.95 117
M -5.9 121.15
L -4.9 121.15 -4.7 117.15 -5.7 117.15 -5.9 121.15
M -11.15 120.75
L -10.15 120.85 -9.8 116.85 -10.8 116.75 -11.15 120.75
M -20.15 119.55
L -19.45 115.6 -21.45 115.3 -22.15 119.25 -20.15 119.55
M -14.9 116.3
L -15.9 116.2 -16.45 120.15 -15.45 120.25 -14.9 116.3
M -85.5 86.15
L -82.65 83.25 -83.35 82.55 -86.15 85.4 -85.5 86.15
M -89.25 76.1
L -90.55 74.6 -93.65 77.2 -92.35 78.7 -89.25 76.1
M -86.2 79.6
L -86.9 78.85 -89.85 81.55 -89.15 82.25 -86.2 79.6
M -105.6 59.75
L -104.6 61.45 -101.15 59.45 -102.15 57.75 -105.6 59.75
M -110.2 50.8
L -109.75 51.7 -106.15 50 -106.55 49.1 -110.2 50.8
M -107.9 55.55
L -107.4 56.4 -103.85 54.55 -104.35 53.7 -107.9 55.55
M -96 74.15
L -92.8 71.8 -93.45 71 -96.65 73.4 -96 74.15
M -99.7 69.15
L -99.15 70 -95.85 67.65 -96.45 66.85 -99.7 69.15
M -98.7 63.4
L -99.25 62.6 -102.65 64.75 -102.05 65.55 -98.7 63.4
M -112.3 45.9
L -111.9 46.8 -108.2 45.35 -108.65 44.4 -112.3 45.9
M -114.4 40.5
L -113.7 42.4 -109.95 41.05 -110.65 39.15 -114.4 40.5
M -115.95 36
L -115.6 36.95 -111.75 35.75 -112.1 34.8 -115.95 36
M -113.2 30.85
L -113.45 29.9 -117.35 30.9 -117.1 31.9 -113.2 30.85
M -114.45 25.9
L -114.7 24.9 -118.6 25.75 -118.35 26.75 -114.45 25.9
M -119.65 20.05
L -119.35 22.05 -115.4 21.35 -115.7 19.35 -119.65 20.05
M -116.35 15.35
L -116.4 14.85 -120.4 15.35 -120.25 16.3 -116.25 15.8 -116.35 15.35
M -120.9 10.05
L -120.85 11.1 -116.85 10.75 -116.95 9.7 -120.9 10.05
M -121.25 4.75
L -121.15 5.8 -117.2 5.6 -117.3 4.65 -121.25 4.75
M -78.9 86.8
L -79.7 86.15 -82.45 89.05 -81.7 89.7 -78.9 86.8
M -66.95 96.35
L -67.75 95.75 -70.05 99 -69.25 99.6 -66.95 96.35
M -74.35 95.85
L -73.55 96.45 -71.05 93.3 -71.9 92.75 -74.35 95.85
M -78.8 92.25
L -77.3 93.55 -74.7 90.45 -76.2 89.15 -78.8 92.25
M -77.25 -93.6
L -78.75 -92.3 -76.15 -89.2 -74.65 -90.5 -77.25 -93.6
M -73.45 -96.6
L -74.2 -95.95 -71.85 -92.75 -71.05 -93.4 -73.45 -96.6
M -117.3 -1.05
L -121.3 -1.05 -121.3 0.95 -117.3 0.95 -117.3 -1.05
M -121.2 -5.85
L -121.2 -4.85 -117.2 -4.65 -117.2 -5.65 -121.2 -5.85
M -120.8 -11.1
L -120.9 -10.1 -116.9 -9.75 -116.8 -10.75 -120.8 -11.1
M -120.2 -16.4
L -120.3 -15.4 -116.35 -14.85 -116.25 -15.85 -120.2 -16.4
M -119.3 -22.1
L -119.6 -20.1 -115.65 -19.4 -115.35 -21.4 -119.3 -22.1
M -118.35 -26.8
L -118.5 -25.85 -114.6 -24.95 -114.5 -25.4 -114.45 -25.9 -118.35 -26.8
M -117.05 -31.9
L -117.3 -30.95 -113.4 -29.9 -113.2 -30.85 -117.05 -31.9
M -115.5 -37
L -115.8 -36.05 -112.05 -34.85 -111.75 -35.8 -115.5 -37
M -108.6 -44.4
L -108.25 -45.35 -111.9 -46.95 -112.25 -46 -108.6 -44.4
M -110.6 -39.2
L -109.9 -41.1 -113.65 -42.45 -114.35 -40.55 -110.6 -39.2
M -93.35 -71
L -92.8 -71.85 -95.9 -74.3 -96.5 -73.5 -93.35 -71
M -99.05 -70
L -99.65 -69.2 -96.4 -66.9 -95.8 -67.7 -99.05 -70
M -107.35 -56.5
L -107.8 -55.6 -104.3 -53.75 -103.85 -54.65 -107.35 -56.5
M -109.7 -51.75
L -110.15 -50.85 -106.55 -49.1 -106.1 -50.05 -109.7 -51.75
M -104.55 -61.55
L -105.55 -59.85 -102.1 -57.85 -101.1 -59.55 -104.55 -61.55
M -102.05 -65.65
L -102.55 -64.8 -99.2 -62.65 -98.7 -63.5 -102.05 -65.65
M -89.1 -82.4
L -89.75 -81.65 -86.85 -78.85 -86.2 -79.65 -89.1 -82.4
M -82.6 -83.3
L -85.45 -86.1 -86.2 -85.45 -83.3 -82.6 -82.6 -83.3
M -92.3 -78.75
L -93.6 -77.25 -90.5 -74.65 -89.2 -76.15 -92.3 -78.75
M -81.6 -89.8
L -82.3 -89.1 -79.65 -86.15 -78.9 -86.85 -81.6 -89.8
M -15.4 -120.35
L -16.35 -120.2 -15.85 -116.2 -15.4 -116.3 -14.9 -116.35 -15.4 -120.35
M -9.75 -116.9
L -10.1 -120.85 -11.15 -120.8 -10.8 -116.8 -9.75 -116.9
M -4.8 -121.2
L -5.85 -121.1 -5.65 -117.15 -4.7 -117.25 -4.8 -121.2
M -30.95 -117.3
L -31.95 -117.05 -30.9 -113.15 -29.95 -113.4 -30.95 -117.3
M -37 -115.55
L -35.8 -111.7 -34.85 -112.05 -36.05 -115.9 -37 -115.55
M -25.8 -118.55
L -26.8 -118.3 -25.95 -114.4 -24.95 -114.65 -25.8 -118.55
M -22.1 -119.3
L -21.4 -115.35 -19.4 -115.65 -20.1 -119.6 -22.1 -119.3
M -50.85 -110.15
L -51.75 -109.7 -50.05 -106.1 -49.15 -106.5 -50.85 -110.15
M -59.5 -101.1
L -57.8 -102.1 -59.8 -105.55 -61.5 -104.55 -59.5 -101.1
M -56.45 -107.35
L -54.6 -103.8 -53.75 -104.3 -55.6 -107.85 -56.45 -107.35
M -40.55 -114.35
L -42.45 -113.65 -41.1 -109.9 -39.2 -110.6 -40.55 -114.35
M -45.95 -112.25
L -46.85 -111.85 -45.4 -108.15 -44.45 -108.6 -45.95 -112.25
M -62.65 -99.2
L -64.8 -102.6 -65.6 -102 -63.45 -98.65 -62.65 -99.2
M -69.2 -99.65
L -70.05 -99.1 -67.7 -95.8 -66.9 -96.4 -69.2 -99.65
M 15.3 120.35
L 16.25 120.2 15.75 116.2 15.3 116.3 14.8 116.35 15.3 120.35
M 9.65 116.9
L 10 120.85 11.05 120.8 10.7 116.8 9.65 116.9
M 4.7 121.2
L 5.75 121.1 5.55 117.15 4.6 117.25 4.7 121.2
M 0.9 121.25
L 0.9 117.25 -1.1 117.25 -1.1 121.25 0.9 121.25
M 34.75 112.05
L 35.95 115.9 36.9 115.55 35.7 111.7 34.75 112.05
M 30.85 117.3
L 31.85 117.05 30.8 113.15 29.85 113.4 30.85 117.3
M 25.7 118.55
L 26.7 118.3 25.85 114.4 24.85 114.65 25.7 118.55
M 22 119.3
L 21.3 115.35 19.3 115.65 20 119.6 22 119.3
M 42.35 113.65
L 41 109.9 39.1 110.6 40.45 114.35 42.35 113.65
M 45.3 108.15
L 44.35 108.6 45.85 112.25 46.75 111.85 45.3 108.15
M 59.4 101.1
L 57.7 102.1 59.7 105.55 61.4 104.55 59.4 101.1
M 50.75 110.15
L 51.65 109.7 49.95 106.1 49.05 106.5 50.75 110.15
M 56.35 107.35
L 54.5 103.8 53.65 104.3 55.5 107.85 56.35 107.35
M 62.55 99.2
L 64.7 102.6 65.5 102 63.35 98.65 62.55 99.2
M 77.15 93.6
L 78.65 92.3 76.05 89.2 74.55 90.5 77.15 93.6
M 73.35 96.6
L 74.1 95.95 71.75 92.75 70.95 93.4 73.35 96.6
M 67.6 95.8
L 66.8 96.4 69.1 99.65 69.95 99.1 67.6 95.8
M 81.5 89.8
L 82.2 89.1 79.55 86.15 78.8 86.85 81.5 89.8
M 83.2 82.6
L 82.5 83.3 85.35 86.1 86.1 85.45 83.2 82.6
M 86.75 78.85
L 86.1 79.65 89 82.4 89.65 81.65 86.75 78.85
M 92.2 78.75
L 93.5 77.25 90.4 74.65 89.1 76.15 92.2 78.75
M 93.25 71
L 92.7 71.85 95.8 74.3 96.4 73.5 93.25 71
M 98.95 70
L 99.55 69.2 96.3 66.9 95.7 67.7 98.95 70
M 101.95 65.65
L 102.45 64.8 99.1 62.65 98.6 63.5 101.95 65.65
M 109.6 51.75
L 110.05 50.85 106.45 49.1 106 50.05 109.6 51.75
M 104.45 61.55
L 105.45 59.85 102 57.85 101 59.55 104.45 61.55
M 107.7 55.6
L 104.2 53.75 103.75 54.65 107.25 56.5 107.7 55.6
M 108.5 44.4
L 108.15 45.35 111.8 46.95 112.15 46 108.5 44.4
M 110.5 39.2
L 109.8 41.1 113.55 42.45 114.25 40.55 110.5 39.2
M 115.4 37
L 115.7 36.05 111.95 34.85 111.65 35.8 115.4 37
M 113.3 29.9
L 113.1 30.85 116.95 31.9 117.2 30.95 113.3 29.9
M 118.25 26.8
L 118.4 25.85 114.5 24.95 114.4 25.4 114.35 25.9 118.25 26.8
M 120.1 16.4
L 120.2 15.4 116.25 14.85 116.15 15.85 120.1 16.4
M 119.2 22.1
L 119.5 20.1 115.55 19.4 115.25 21.4 119.2 22.1
M 120.7 11.1
L 120.8 10.1 116.8 9.75 116.7 10.75 120.7 11.1
M 121.1 5.85
L 121.1 4.85 117.1 4.65 117.1 5.65 121.1 5.85
M 121.2 -0.95
L 117.2 -0.95 117.2 1.05 121.2 1.05 121.2 -0.95
M 121.15 -4.75
L 121.05 -5.8 117.1 -5.6 117.2 -4.65 121.15 -4.75
M 120.8 -10.05
L 120.75 -11.1 116.75 -10.75 116.85 -9.7 120.8 -10.05
M 116.25 -15.35
L 116.3 -14.85 120.3 -15.35 120.15 -16.3 116.15 -15.8 116.25 -15.35
M 119.55 -20.05
L 119.25 -22.05 115.3 -21.35 115.6 -19.35 119.55 -20.05
M 113.1 -30.85
L 113.35 -29.9 117.25 -30.9 117 -31.9 113.1 -30.85
M 114.35 -25.9
L 114.6 -24.9 118.5 -25.75 118.25 -26.75 114.35 -25.9
M 115.85 -36
L 115.5 -36.95 111.65 -35.75 112 -34.8 115.85 -36
M 112.2 -45.9
L 111.8 -46.8 108.1 -45.35 108.55 -44.4 112.2 -45.9
M 114.3 -40.5
L 113.6 -42.4 109.85 -41.05 110.55 -39.15 114.3 -40.5
M 110.1 -50.8
L 109.65 -51.7 106.05 -50 106.45 -49.1 110.1 -50.8
M 107.8 -55.55
L 107.3 -56.4 103.75 -54.55 104.25 -53.7 107.8 -55.55
M 105.5 -59.75
L 104.5 -61.45 101.05 -59.45 102.05 -57.75 105.5 -59.75
M 98.6 -63.4
L 99.15 -62.6 102.55 -64.75 101.95 -65.55 98.6 -63.4
M 92.7 -71.8
L 93.35 -71 96.55 -73.4 95.9 -74.15 92.7 -71.8
M 99.6 -69.15
L 99.05 -70 95.75 -67.65 96.35 -66.85 99.6 -69.15
M 89.15 -76.1
L 90.45 -74.6 93.55 -77.2 92.25 -78.7 89.15 -76.1
M 86.05 -85.4
L 85.4 -86.15 82.55 -83.25 83.25 -82.55 86.05 -85.4
M 89.75 -81.55
L 89.05 -82.25 86.1 -79.6 86.8 -78.85 89.75 -81.55
M 78.8 -86.8
L 79.6 -86.15 82.35 -89.05 81.6 -89.7 78.8 -86.8
M 67.65 -95.75
L 69.95 -99 69.15 -99.6 66.85 -96.35 67.65 -95.75
M 78.7 -92.25
L 77.2 -93.55 74.6 -90.45 76.1 -89.15 78.7 -92.25
M 74.25 -95.85
L 73.45 -96.45 70.95 -93.3 71.8 -92.75 74.25 -95.85
M 65.6 -102
L 64.75 -102.5 62.6 -99.15 63.45 -98.65 65.6 -102
M 59.8 -105.5
L 57.8 -102.05 59.5 -101.05 61.5 -104.5 59.8 -105.5
M 56.45 -107.3
L 55.55 -107.75 53.7 -104.25 54.6 -103.8 56.45 -107.3
M 49.05 -106.5
L 50 -106.05 51.7 -109.65 50.8 -110.1 49.05 -106.5
M 46.9 -111.85
L 45.95 -112.2 44.35 -108.55 45.3 -108.2 46.9 -111.85
M 42.4 -113.6
L 40.5 -114.3 39.15 -110.55 41.05 -109.85 42.4 -113.6
M 26.75 -118.3
L 25.8 -118.45 24.9 -114.55 25.35 -114.45 25.85 -114.4 26.75 -118.3
M 36.95 -115.45
L 36 -115.75 34.8 -112 35.75 -111.7 36.95 -115.45
M 31.85 -117
L 30.9 -117.25 29.85 -113.35 30.8 -113.15 31.85 -117
M 1 -117.25
L 1 -121.25 -1 -121.25 -1 -117.25 1 -117.25
M 5.8 -121.15
L 4.8 -121.15 4.6 -117.15 5.6 -117.15 5.8 -121.15
M 16.35 -120.15
L 15.35 -120.25 14.8 -116.3 15.8 -116.2 16.35 -120.15
M 10.7 -116.75
L 11.05 -120.75 10.05 -120.85 9.7 -116.85 10.7 -116.75
M 20.05 -119.55
L 19.35 -115.6 21.35 -115.3 22.05 -119.25 20.05 -119.55
M -124.5 98.35
Q -125.05 97.75 -125.75 97.7 -126.65 97.75 -127.9 98.8 -129.15 99.85 -129.35 100.7 -129.5 101.5 -128.95 102.1 -128.45 102.75 -127.7 102.7 -126.75 102.7 -125.5 101.65 -124.25 100.6 -124.1 99.8 -123.95 99 -124.5 98.35
M -126 98.85
Q -125.7 98.75 -125.5 98.75 -125.3 98.75 -125.15 98.9 -125.05 99.05 -125.05 99.3 -125.05 99.5 -125.25 99.8 -125.5 100.1 -126.25 100.75 -127.05 101.4 -127.45 101.65 -127.75 101.75 -127.95 101.75 -128.15 101.65 -128.25 101.5 -128.4 101.35 -128.4 101.2 -128.4 101 -128.15 100.65 -127.95 100.3 -127.15 99.65 -126.4 99 -126 98.85
M -121.6 101.8
Q -122.15 101.15 -122.9 101.1 -123.65 100.95 -124.2 101.45 -124.6 101.8 -124.7 102.25 -124.8 102.7 -124.55 103.2 -125.4 102.8 -126 103.3 -126.4 103.65 -126.45 104.2 -126.55 104.95 -126.05 105.55 -125.75 105.9 -125.35 106.1 -125 106.25 -124.6 106.2 -124.2 106.2 -123.75 105.95
L -124.3 105.05
Q -124.55 105.25 -124.85 105.25 -125.15 105.2 -125.3 105 -125.5 104.75 -125.5 104.55 -125.45 104.3 -125.25 104.1 -124.95 103.9 -124.65 103.95 -124.35 104 -124.1 104.35
L -123.35 103.85
Q -123.6 103.65 -123.7 103.5 -123.95 103.25 -123.85 102.95 -123.8 102.6 -123.5 102.35 -123.15 102.05 -122.8 102.1 -122.45 102.05 -122.25 102.35 -122.05 102.6 -122.1 102.9 -122.1 103.2 -122.4 103.5
L -121.6 104.25
Q -121.1 103.7 -121.05 103 -121.1 102.35 -121.6 101.8
M -120 103.85
L -120.8 104.5 -119.4 106.15
Q -119.55 106.2 -119.75 106.2 -120 106.2 -120.65 106.1 -121.35 106 -121.7 106.05 -122.15 106 -122.5 106.15 -122.9 106.25 -123.2 106.5 -123.7 106.95 -123.75 107.6 -123.8 108.3 -123.25 108.95 -122.75 109.55 -122.1 109.7 -121.45 109.8 -120.7 109.3
L -121.3 108.4
Q -121.75 108.7 -122 108.7 -122.3 108.65 -122.5 108.35 -122.75 108.1 -122.7 107.85 -122.7 107.55 -122.4 107.3 -122.15 107.1 -121.75 107.05 -121.45 107.05 -120.45 107.15 -119.2 107.3 -118.6 107.2 -118 107.1 -117.55 106.8
L -120 103.85
M -30.9 156.25
Q -31.3 155.5 -32.1 155.35 -32.95 155.2 -33.5 155.75 -34.15 156.35 -34.45 157.95 -34.7 159.55 -34.3 160.35 -33.95 160.95 -33.1 161.1 -32.3 161.25 -31.75 160.8 -31.05 160.2 -30.8 158.6 -30.5 156.95 -30.9 156.25
M -31.9 156.45
Q -31.8 156.6 -31.75 156.95 -31.7 157.4 -31.9 158.4 -32.05 159.35 -32.25 159.75 -32.4 160.05 -32.55 160.2 -32.75 160.25 -32.95 160.2 -33.15 160.2 -33.25 160.05 -33.4 159.9 -33.45 159.5 -33.45 159.1 -33.3 158.15 -33.1 157.15 -32.95 156.7 -32.8 156.45 -32.6 156.3 -32.45 156.25 -32.25 156.25 -32.05 156.3 -31.9 156.45
M -34.5 153.05
L -33.5 153.25 -32.6 149.4 -33.6 149.2 -34.5 153.05
M -23.15 157.05
L -24.25 156.85 -25.25 162.5 -24.35 162.65
Q -24.1 162.2 -23.55 161.9 -22.95 161.55 -22.5 161.55
L -22.3 160.55
Q -23.2 160.65 -23.85 161.1
L -23.15 157.05
M -26.5 156.7
Q -26.85 156.25 -27.5 156.15 -28.4 156 -29.1 156.6 -29.75 157.15 -30.05 158.7 -30.3 160.25 -29.9 161 -29.45 161.75 -28.6 161.9 -27.8 162.05 -27.2 161.6 -26.6 161.15 -26.45 160.3 -26.3 159.5 -26.75 158.85 -27.1 158.3 -27.8 158.15 -28.4 158.05 -28.85 158.5 -28.65 157.5 -28.35 157.25 -28.05 157 -27.75 157.05 -27.45 157.1 -27.3 157.25 -27.2 157.45 -27.2 157.75
L -26.15 157.85
Q -26.1 157.1 -26.5 156.7
M -29 159.75
Q -28.9 159.3 -28.65 159.1 -28.45 158.9 -28.1 158.95 -27.8 159 -27.6 159.3 -27.4 159.55 -27.5 160.1 -27.6 160.65 -27.85 160.9 -28.1 161.05 -28.4 161 -28.7 160.95 -28.9 160.65 -29.1 160.3 -29 159.75
M -28.25 154.35
L -26.25 154.65 -25.55 150.75 -27.55 150.45 -28.25 154.35
M -14.2 156.25
L -13.2 156.35 -12.85 152.35 -13.85 152.25 -14.2 156.25
M -20 155.6
L -19.45 151.65 -20.45 151.55 -21 155.5 -20 155.6
M -6.15 152.75
L -7.15 152.75 -7.35 156.75 -6.35 156.75 -6.15 152.75
M -53.35 149.95
Q -53.6 149.2 -54.35 148.9 -55.15 148.6 -55.8 149 -56.55 149.5 -57.1 151 -57.65 152.55 -57.4 153.4 -57.15 154.1 -56.35 154.4 -55.6 154.7 -54.95 154.3 -54.15 153.85 -53.6 152.3 -53.05 150.75 -53.35 149.95
M -54.4 150
Q -54.3 150.15 -54.35 150.55 -54.35 150.95 -54.7 151.9 -55.05 152.85 -55.3 153.2 -55.5 153.45 -55.7 153.55 -55.9 153.6 -56.05 153.55 -56.25 153.5 -56.35 153.35 -56.45 153.15 -56.45 152.75 -56.4 152.35 -56.05 151.4 -55.7 150.45 -55.45 150.1 -55.25 149.8 -55.05 149.8 -54.9 149.7 -54.7 149.75 -54.55 149.8 -54.4 150
M -49.1 152.15
Q -48.65 151.75 -48.4 151.25
L -52 149.9 -52.35 150.85 -50.3 151.6
Q -50.45 151.75 -50.6 151.85 -50.8 151.95 -51.45 152.2 -52.1 152.5 -52.35 152.65 -52.8 152.9 -53 153.15 -53.3 153.45 -53.4 153.8 -53.65 154.45 -53.35 155.05 -53.05 155.65 -52.25 155.95 -51.5 156.2 -50.95 156.05 -50.3 155.8 -49.9 155
L -50.9 154.5
Q -51.05 154.95 -51.35 155.1 -51.6 155.2 -51.9 155.1 -52.25 155 -52.4 154.7 -52.45 154.5 -52.35 154.15 -52.25 153.8 -51.9 153.55 -51.7 153.4 -50.75 153 -49.6 152.5 -49.1 152.15
M -45.5 145.95
L -46.45 145.7 -47.7 149.5 -46.75 149.8 -45.5 145.95
M -54.65 147.1
L -52.75 147.8 -51.35 144.05 -53.25 143.35 -54.65 147.1
M -58.55 147.4
Q -59.35 147.1 -60 147.5 -60.75 148 -61.3 149.5 -61.85 151.05 -61.6 151.9 -61.35 152.6 -60.55 152.9 -59.8 153.2 -59.15 152.8 -58.35 152.35 -57.8 150.8 -57.25 149.25 -57.55 148.45 -57.8 147.7 -58.55 147.4
M -59.25 148.3
Q -59.1 148.2 -58.9 148.25 -58.75 148.3 -58.6 148.5 -58.5 148.65 -58.55 149.05 -58.55 149.45 -58.9 150.4 -59.25 151.35 -59.5 151.7 -59.7 151.95 -59.9 152.05 -60.1 152.1 -60.25 152.05 -60.45 152 -60.55 151.85 -60.65 151.65 -60.65 151.25 -60.6 150.85 -60.25 149.9 -59.9 148.95 -59.65 148.6 -59.45 148.3 -59.25 148.3
M -58.05 141.45
L -58.95 141.1 -60.55 144.8 -59.6 145.15 -58.05 141.45
M -66.8 141.95
L -65.9 142.4 -64.2 138.75 -65.1 138.3 -66.8 141.95
M -74.8 141.25
Q -74.3 140.95 -73.9 140.5
L -77.25 138.6 -77.75 139.5 -75.85 140.55
Q -76.05 140.6 -76.2 140.7 -76.45 140.8 -77.15 140.95 -77.8 141.05 -78.1 141.2 -78.55 141.35 -78.85 141.6 -79.15 141.85 -79.35 142.2 -79.65 142.8 -79.5 143.4 -79.25 144.05 -78.55 144.5 -77.85 144.85 -77.25 144.8 -76.6 144.7 -76.1 143.95
L -76.95 143.3
Q -77.2 143.7 -77.5 143.75 -77.75 143.85 -78.05 143.7 -78.35 143.5 -78.45 143.25 -78.5 143 -78.35 142.7 -78.15 142.4 -77.8 142.2 -77.55 142.05 -76.55 141.85 -75.3 141.55 -74.8 141.25
M -72.95 138.9
L -72.05 139.35 -70.2 135.85 -71.05 135.4 -72.95 138.9
M -75.6 132.9
L -77.3 131.9 -79.3 135.35 -77.6 136.35 -75.6 132.9
M -39.1 147.8
L -40.1 147.55 -41.15 151.4 -40.15 151.65 -39.1 147.8
M -82.4 142.25
Q -82 141.9 -81.35 141.8 -80.7 141.7 -80.3 141.8
L -79.8 140.95
Q -80.65 140.8 -81.45 140.95
L -79.4 137.35 -80.35 136.85 -83.2 141.85 -82.4 142.25
M -83.3 134.95
Q -84 134.55 -84.7 134.8 -85.55 135.15 -86.35 136.55 -87.2 137.95 -87.1 138.85 -86.9 139.65 -86.2 140.05 -85.5 140.45 -84.85 140.15 -84 139.85 -83.15 138.45 -82.35 137.05 -82.45 136.2 -82.6 135.35 -83.3 134.95
M -83.75 135.75
Q -83.6 135.85 -83.5 136.05 -83.45 136.2 -83.5 136.6 -83.65 136.95 -84.15 137.85 -84.65 138.7 -85 139.05 -85.2 139.25 -85.4 139.35 -85.6 139.35 -85.75 139.25 -85.9 139.15 -86 138.95 -86.1 138.75 -86 138.4 -85.85 138 -85.35 137.15 -84.85 136.25 -84.55 135.95 -84.35 135.7 -84.1 135.65 -83.9 135.65 -83.75 135.75
M -89.65 128.8
L -87.35 125.55 -88.15 124.95 -90.45 128.2 -89.65 128.8
M -81.75 129.25
L -82.6 128.75 -84.75 132.1 -83.9 132.6 -81.75 129.25
M -101.45 125.5
Q -101.9 125.65 -102.25 125.8 -102.55 126 -102.8 126.3 -103.25 126.8 -103.2 127.45 -103.1 128.1 -102.45 128.65 -101.85 129.15 -101.2 129.2 -100.6 129.25 -99.9 128.6
L -100.7 127.8
Q -101 128.15 -101.3 128.2 -101.55 128.2 -101.85 128 -102.1 127.75 -102.15 127.5 -102.15 127.2 -101.9 126.9 -101.7 126.65 -101.35 126.55 -101.05 126.45 -100.05 126.45 -98.8 126.4 -98.2 126.2 -97.6 126 -97.2 125.55
L -100.15 123.1 -100.8 123.9 -99.15 125.3
Q -99.3 125.35 -99.5 125.35 -99.7 125.4 -100.4 125.45 -101.1 125.45 -101.45 125.5
M -103.85 122.6
Q -104.55 122.6 -104.9 122.65 -105.35 122.8 -105.7 122.95 -106 123.15 -106.25 123.45 -106.7 123.95 -106.65 124.6 -106.55 125.25 -105.9 125.8 -105.3 126.3 -104.65 126.35 -104.05 126.4 -103.35 125.75
L -104.15 124.95
Q -104.45 125.3 -104.75 125.35 -105 125.35 -105.3 125.15 -105.55 124.9 -105.6 124.65 -105.6 124.35 -105.35 124.05 -105.15 123.8 -104.8 123.7 -104.5 123.6 -103.5 123.6 -102.25 123.55 -101.65 123.35 -101.05 123.15 -100.65 122.7
L -103.6 120.25 -104.25 121.05 -102.6 122.45
Q -102.75 122.5 -102.95 122.5 -103.15 122.55 -103.85 122.6
M -106.9 118.05
Q -107.75 118.25 -108.8 119.5 -109.85 120.75 -109.9 121.65 -109.9 122.4 -109.3 122.95 -108.65 123.45 -107.9 123.3 -107 123.15 -105.95 121.9 -104.9 120.65 -104.9 119.8 -104.9 119.05 -105.55 118.5 -106.15 117.95 -106.9 118.05
M -107.95 120.25
Q -107.3 119.5 -106.95 119.2 -106.65 119 -106.45 119 -106.25 119 -106.1 119.15 -105.95 119.25 -105.9 119.45 -105.9 119.65 -106 120.05 -106.2 120.4 -106.85 121.15 -107.5 121.95 -107.85 122.15 -108.15 122.35 -108.35 122.35 -108.55 122.35 -108.7 122.25 -108.85 122.1 -108.9 121.9 -108.9 121.7 -108.75 121.35 -108.6 121.05 -107.95 120.25
M -102.9 113.05
L -103.7 112.4 -106.45 115.35 -105.65 115.95 -102.9 113.05
M -116.1 105.6
L -115.35 106.35 -112.4 103.65 -113.1 102.95 -116.1 105.6
M -120.9 100.1
L -119.6 101.6 -116.5 99 -117.8 97.5 -120.9 100.1
M -110.65 111.25
L -107.8 108.45 -108.5 107.7 -111.35 110.55 -110.65 111.25
M -100.15 120.85
L -97.55 117.75 -99.05 116.45 -101.65 119.55 -100.15 120.85
M -92.7 121.65
L -93.5 121.05 -95.95 124.15 -95.1 124.75 -92.7 121.65
M -124.8 95.1
L -124.2 95.9 -121 93.45 -121.65 92.65 -124.8 95.1
M -128.9 89.5
L -128.3 90.4 -125 88.05 -125.55 87.25 -128.9 89.5
M -138.3 83.3
Q -138.75 83.25 -139.1 83.25 -139.45 83.35 -139.8 83.55 -140.4 83.85 -140.6 84.5 -140.75 85.2 -140.3 85.9 -139.95 86.6 -139.3 86.85 -138.7 87.1 -137.85 86.7
L -138.3 85.65
Q -138.8 85.9 -139.05 85.8 -139.35 85.75 -139.5 85.45 -139.7 85.15 -139.55 84.85 -139.5 84.6 -139.2 84.45 -138.9 84.25 -138.5 84.3 -138.25 84.35 -137.25 84.65 -136.05 85 -135.45 85 -134.85 85 -134.3 84.8
L -136.2 81.45 -137.1 81.95 -136.05 83.85
Q -136.2 83.85 -136.4 83.8 -136.6 83.75 -137.25 83.55 -137.95 83.3 -138.3 83.3
M -136.4 77.6
L -135.4 79.3 -131.95 77.3 -132.95 75.6 -136.4 77.6
M -128.7 82.55
L -129.3 81.75 -132.65 83.85 -132.1 84.7 -128.7 82.55
M -143.2 80.9
L -142.7 81.7 -138.3 82 -137.45 81.55 -138.65 79.55 -137.65 78.95 -138.2 78 -139.2 78.6 -139.55 78 -140.4 78.45 -140.05 79.05 -143.2 80.9
M -138.85 81.15
L -141.2 81 -139.5 80 -138.85 81.15
M -144.85 76.8
Q -145.15 77.55 -144.75 78.25 -144.35 78.95 -143.55 79.05 -142.65 79.2 -141.25 78.35 -139.85 77.55 -139.5 76.75 -139.25 76 -139.65 75.3 -140.05 74.6 -140.8 74.5 -141.75 74.35 -143.15 75.15 -144.55 76 -144.85 76.8
M -143.7 76.9
Q -143.4 76.65 -142.55 76.15 -141.65 75.65 -141.25 75.55 -140.9 75.45 -140.75 75.5 -140.55 75.6 -140.45 75.75 -140.35 75.9 -140.35 76.1 -140.4 76.35 -140.7 76.6 -140.95 76.85 -141.85 77.35 -142.7 77.85 -143.15 78 -143.45 78.1 -143.65 78 -143.85 77.9 -143.95 77.75 -144.05 77.6 -144.05 77.4 -143.95 77.2 -143.7 76.9
M -148.25 56.5
L -149.2 56.85 -148.45 58.9
Q -148.6 58.85 -148.8 58.8 -149 58.7 -149.65 58.35 -150.25 58.1 -150.6 57.95 -151.05 57.8 -151.4 57.8 -151.8 57.8 -152.15 57.9 -152.8 58.15 -153 58.75 -153.3 59.35 -153 60.15 -152.75 60.9 -152.2 61.25 -151.65 61.6 -150.75 61.4
L -151.05 60.3
Q -151.5 60.45 -151.75 60.35 -152.05 60.2 -152.15 59.9 -152.25 59.55 -152.15 59.3 -152.05 59.05 -151.7 58.95 -151.35 58.85 -151 58.9 -150.65 59 -149.75 59.45 -148.65 60 -148.1 60.1 -147.5 60.25 -146.9 60.1
L -148.25 56.5
M -150.3 52.85
Q -151 52.6 -151.65 52.85 -152.45 53.15 -152.75 53.8 -153.1 54.45 -152.85 55.15 -152.7 55.5 -152.45 55.8
L -153.4 56 -154.1 54.05 -155.05 54.4 -154.05 57.1 -151.05 56.6 -151.25 55.7
Q -151.8 55.5 -151.95 55.05 -152.1 54.7 -151.9 54.4 -151.75 54.1 -151.25 53.9 -150.7 53.7 -150.35 53.85 -150.05 53.95 -149.9 54.3 -149.8 54.55 -149.95 54.9 -150.05 55.15 -150.4 55.35
L -149.9 56.3
Q -149.25 55.95 -149.05 55.35 -148.8 54.75 -149.05 54 -149.4 53.05 -150.3 52.85
M -143.4 53.2
L -144.1 51.3 -147.85 52.7 -147.15 54.6 -143.4 53.2
M -141.1 58.95
L -141.5 58.05 -145.2 59.55 -144.8 60.5 -141.1 58.95
M -138.4 65
L -138.8 64.1 -142.45 65.8 -142.05 66.7 -138.4 65
M -138.95 72.85
L -135.4 71 -135.9 70.15 -139.45 72 -138.95 72.85
M -151.55 48.8
Q -152.45 48.55 -153.95 49.1 -155.5 49.65 -155.95 50.4 -156.35 51.05 -156.05 51.85 -155.75 52.6 -155.05 52.85 -154.2 53.15 -152.65 52.6 -151.1 52.05 -150.7 51.35 -150.25 50.6 -150.55 49.85 -150.85 49.05 -151.55 48.8
M -151.4 50.2
Q -151.35 50.35 -151.45 50.5 -151.5 50.7 -151.8 50.95 -152.1 51.15 -153.05 51.5 -154 51.85 -154.45 51.9 -154.8 51.9 -155 51.8 -155.15 51.7 -155.2 51.55 -155.25 51.35 -155.2 51.15 -155.1 50.95 -154.8 50.75 -154.5 50.5 -153.55 50.15 -152.6 49.8 -152.15 49.85 -151.85 49.75 -151.65 49.85 -151.45 50 -151.4 50.2
M -151.7 40.05
L -151.45 41.05 -147.6 39.95 -147.85 39.05 -151.7 40.05
M -149.85 46.7
L -149.5 47.65 -145.7 46.4 -146.05 45.5 -149.85 46.7
M -156.55 28.75
Q -156 28.1 -156.15 27.25 -156.3 26.45 -156.95 26.05 -157.5 25.6 -158.35 25.75 -159.2 25.9 -159.65 26.5 -160.05 27.05 -159.95 27.75 -159.85 28.35 -159.3 28.65 -160.25 28.8 -160.6 28.6 -160.95 28.4 -161 28.05 -161.05 27.8 -160.95 27.6 -160.8 27.45 -160.5 27.35
L -160.8 26.3
Q -161.5 26.5 -161.75 27.05 -162.05 27.5 -161.9 28.15 -161.75 29.05 -161 29.55 -160.2 29.95 -158.65 29.7 -157.15 29.4 -156.55 28.75
M -159.1 27.75
Q -159.15 27.45 -158.95 27.15 -158.75 26.9 -158.2 26.8 -157.65 26.7 -157.4 26.9 -157.1 27.05 -157.05 27.35 -157 27.65 -157.25 27.95 -157.45 28.25 -158 28.35 -158.5 28.4 -158.75 28.25 -159.05 28.05 -159.1 27.75
M -155.75 29.95
L -156.75 30.15 -156.35 32.3
Q -156.55 32.25 -156.7 32.15 -156.9 32 -157.5 31.6 -158 31.15 -158.3 31 -158.7 30.8 -159.1 30.7 -159.45 30.6 -159.85 30.65 -160.5 30.8 -160.85 31.35 -161.25 31.9 -161.1 32.75 -160.95 33.5 -160.45 33.95 -160 34.4 -159.1 34.35
L -159.2 33.25
Q -159.65 33.25 -159.9 33.1 -160.1 32.95 -160.2 32.65 -160.25 32.3 -160.1 32.05 -159.95 31.8 -159.55 31.75 -159.25 31.7 -158.85 31.85 -158.6 32 -157.8 32.6 -156.8 33.4 -156.25 33.6 -155.65 33.8 -155.1 33.75
L -155.75 29.95
M -149.2 33.55
L -149.45 32.6 -153.35 33.4 -153.1 34.4 -149.2 33.55
M -150.5 27.5
L -150.8 25.5 -154.7 26.2 -154.4 28.2 -150.5 27.5
M -155.7 19.95
L -155.5 20.95 -151.55 20.45 -151.75 19.45 -155.7 19.95
M -157.7 21.8
Q -158.5 21.35 -160.1 21.65 -161.7 21.9 -162.3 22.6 -162.8 23.15 -162.65 24 -162.5 24.8 -161.85 25.15 -161.05 25.55 -159.45 25.3 -157.8 25 -157.3 24.4 -156.75 23.8 -156.9 23 -157.05 22.15 -157.7 21.8
M -161.1 24.35
Q -161.4 24.3 -161.55 24.15 -161.7 24.05 -161.75 23.85 -161.75 23.65 -161.7 23.45 -161.55 23.3 -161.25 23.15 -160.85 22.95 -159.9 22.8 -158.9 22.6 -158.45 22.65 -158.1 22.7 -157.95 22.8 -157.8 22.95 -157.8 23.15 -157.75 23.35 -157.8 23.5 -157.95 23.7 -158.3 23.85 -158.65 24 -159.65 24.2 -160.6 24.35 -161.1 24.35
M -152.35 13.75
L -152.4 12.75 -156.35 13.1 -156.3 14.1 -152.35 13.75
M -156.75 7.3
L -152.8 7.15 -152.85 6.1 -156.85 6.25 -156.75 7.3
M -152.95 -1.05
L -156.95 -1.05 -156.95 0.95 -152.95 0.95 -152.95 -1.05
M -156.8 -7.4
L -156.8 -6.4 -152.8 -6.2 -152.8 -7.2 -156.8 -7.4
M -156.3 -14.25
L -156.4 -13.25 -152.4 -12.9 -152.3 -13.9 -156.3 -14.25
M -151.7 -19.5
L -151.6 -20.5 -155.55 -21.05 -155.65 -20.05 -151.7 -19.5
M -154.4 -28.3
L -154.7 -26.3 -150.8 -25.6 -150.5 -27.6 -154.4 -28.3
M -157.55 -29.9
Q -158.05 -30 -158.45 -29.8 -158.85 -29.6 -159.1 -29.15 -159.2 -29.55 -159.45 -29.8 -159.7 -30.05 -160.1 -30.15 -160.75 -30.25 -161.25 -29.9 -161.75 -29.5 -161.85 -28.7 -162 -27.9 -161.7 -27.4 -161.35 -26.85 -160.7 -26.75 -160.35 -26.7 -160.05 -26.8 -159.65 -26.95 -159.45 -27.35 -159.3 -26.8 -158.95 -26.55 -158.6 -26.2 -158.15 -26.15 -157.35 -26 -156.75 -26.5 -156.25 -27 -156.1 -27.75 -155.95 -28.6 -156.4 -29.15 -156.8 -29.75 -157.55 -29.9
M -158.8 -28.15
Q -158.75 -28.5 -158.45 -28.7 -158.2 -28.85 -157.8 -28.8 -157.35 -28.7 -157.1 -28.5 -156.9 -28.2 -156.95 -27.9 -157.05 -27.55 -157.3 -27.35 -157.6 -27.15 -158.05 -27.25 -158.4 -27.3 -158.6 -27.55 -158.9 -27.75 -158.8 -28.15
M -159.65 -28.3
Q -159.7 -28 -159.95 -27.85 -160.15 -27.7 -160.5 -27.8 -160.8 -27.85 -160.9 -28 -161.05 -28.25 -161 -28.55 -160.95 -28.85 -160.75 -29 -160.55 -29.2 -160.25 -29.15 -159.9 -29.05 -159.8 -28.85 -159.6 -28.6 -159.65 -28.3
M -153.1 -34.55
L -153.3 -33.55 -149.45 -32.65 -149.25 -33.65 -153.1 -34.55
M -155.35 -32.1
Q -155.2 -32.95 -155.75 -33.5 -156.35 -34.15 -157.95 -34.45 -159.55 -34.7 -160.35 -34.3 -160.95 -33.95 -161.1 -33.1 -161.25 -32.3 -160.8 -31.75 -160.2 -31.05 -158.6 -30.8 -156.95 -30.5 -156.25 -30.9 -155.5 -31.3 -155.35 -32.1
M -156.7 -32.95
Q -156.45 -32.8 -156.3 -32.6 -156.25 -32.45 -156.25 -32.25 -156.3 -32.05 -156.45 -31.9 -156.6 -31.8 -156.95 -31.75 -157.4 -31.7 -158.4 -31.9 -159.35 -32.05 -159.75 -32.25 -160.05 -32.4 -160.2 -32.55 -160.25 -32.75 -160.2 -32.95 -160.2 -33.15 -160.05 -33.25 -159.9 -33.4 -159.5 -33.45 -159.1 -33.45 -158.15 -33.3 -157.15 -33.1 -156.7 -32.95
M -149.55 -47.75
L -149.85 -46.8 -146 -45.55 -145.75 -46.5 -149.55 -47.75
M -151.7 -40.2
L -147.85 -39.15 -147.6 -40.15 -151.45 -41.2 -151.7 -40.2
M -138.95 -73
L -139.4 -72.1 -135.9 -70.25 -135.45 -71.1 -138.95 -73
M -147.15 -54.7
L -147.85 -52.8 -144.1 -51.4 -143.4 -53.3 -147.15 -54.7
M -144.85 -60.6
L -145.2 -59.65 -141.5 -58.1 -141.15 -59 -144.85 -60.6
M -153.15 -53
Q -153.45 -53.3 -153.8 -53.4 -154.45 -53.65 -155.05 -53.35 -155.65 -53.05 -155.95 -52.25 -156.2 -51.5 -156.05 -50.95 -155.8 -50.3 -155 -49.9
L -154.5 -50.9
Q -154.95 -51.05 -155.1 -51.35 -155.2 -51.6 -155.1 -51.9 -155 -52.25 -154.7 -52.4 -154.5 -52.45 -154.15 -52.35 -153.8 -52.25 -153.55 -51.9 -153.4 -51.7 -153 -50.75 -152.5 -49.6 -152.15 -49.1 -151.75 -48.65 -151.25 -48.4
L -149.9 -52 -150.85 -52.35 -151.6 -50.3
Q -151.75 -50.45 -151.85 -50.6 -151.95 -50.8 -152.2 -51.45 -152.5 -52.1 -152.65 -52.35 -152.9 -52.8 -153.15 -53
M -153.3 -57.4
Q -154.15 -57.1 -154.45 -56.25 -154.7 -55.5 -154.4 -54.9 -154.05 -54.2 -153.25 -53.9 -152.45 -53.6 -151.8 -53.9 -151.15 -54.15 -150.9 -54.8 -150.7 -55.4 -151 -55.95 -150.1 -55.55 -149.9 -55.25 -149.7 -54.9 -149.8 -54.6 -149.9 -54.35 -150.1 -54.25 -150.3 -54.15 -150.6 -54.2
L -150.9 -53.15
Q -150.2 -53 -149.7 -53.3 -149.2 -53.55 -148.95 -54.15 -148.65 -55.05 -149.1 -55.85 -149.55 -56.65 -151.05 -57.2 -152.5 -57.7 -153.3 -57.4
M -153.6 -55.9
Q -153.5 -56.2 -153.1 -56.35 -152.8 -56.5 -152.3 -56.3 -151.85 -56.15 -151.65 -55.8 -151.45 -55.55 -151.6 -55.25 -151.7 -54.95 -152 -54.8 -152.35 -54.7 -152.9 -54.9 -153.4 -55.1 -153.5 -55.35 -153.7 -55.65 -153.6 -55.9
M -151.9 -61.6
Q -152.6 -61.35 -152.9 -60.55 -153.2 -59.8 -152.8 -59.15 -152.35 -58.35 -150.8 -57.8 -149.25 -57.25 -148.45 -57.55 -147.7 -57.8 -147.4 -58.55 -147.1 -59.35 -147.5 -60 -148 -60.75 -149.5 -61.3 -151.05 -61.85 -151.9 -61.6
M -152.05 -59.9
Q -152.1 -60.1 -152.05 -60.25 -152 -60.45 -151.85 -60.55 -151.65 -60.65 -151.25 -60.65 -150.85 -60.6 -149.9 -60.25 -148.95 -59.9 -148.6 -59.65 -148.3 -59.45 -148.3 -59.25 -148.2 -59.1 -148.25 -58.9 -148.3 -58.75 -148.5 -58.6 -148.65 -58.5 -149.05 -58.55 -149.45 -58.55 -150.4 -58.9 -151.35 -59.25 -151.7 -59.5 -151.95 -59.7 -152.05 -59.9
M -142 -66.85
L -142.45 -65.95 -138.8 -64.25 -138.35 -65.15 -142 -66.85
M -135.4 -79.35
L -136.4 -77.65 -132.95 -75.65 -131.95 -77.35 -135.4 -79.35
M -140.05 -78.15
Q -140.5 -78.4 -140.95 -78.35 -141.4 -78.3 -141.75 -77.9 -141.75 -78.85 -142.4 -79.25 -142.85 -79.5 -143.45 -79.35 -144.1 -79.15 -144.55 -78.45 -144.75 -78.05 -144.75 -77.65 -144.8 -77.25 -144.65 -76.9 -144.5 -76.55 -144.1 -76.25
L -143.45 -77
Q -143.75 -77.25 -143.85 -77.5 -143.9 -77.75 -143.75 -78 -143.6 -78.25 -143.35 -78.35 -143.15 -78.4 -142.9 -78.25 -142.6 -78.1 -142.55 -77.8 -142.45 -77.45 -142.7 -77.1
L -142 -76.55
Q -141.9 -76.85 -141.8 -77 -141.65 -77.3 -141.3 -77.35 -141 -77.45 -140.65 -77.25 -140.25 -77 -140.15 -76.7 -140.05 -76.35 -140.2 -76.05 -140.35 -75.75 -140.7 -75.65 -141 -75.55 -141.35 -75.75
L -141.75 -74.75
Q -141.1 -74.5 -140.45 -74.65 -139.8 -74.9 -139.4 -75.6 -139 -76.3 -139.2 -77.05 -139.4 -77.8 -140.05 -78.15
M -137.05 -80.85
Q -137.4 -81.7 -138.8 -82.5 -140.2 -83.35 -141.1 -83.25 -141.9 -83.05 -142.3 -82.35 -142.7 -81.65 -142.4 -81 -142.1 -80.15 -140.7 -79.3 -139.3 -78.5 -138.45 -78.6 -137.6 -78.75 -137.2 -79.45 -136.8 -80.15 -137.05 -80.85
M -141.6 -81.55
Q -141.6 -81.75 -141.5 -81.9 -141.4 -82.05 -141.2 -82.15 -141 -82.25 -140.65 -82.15 -140.25 -82 -139.4 -81.5 -138.5 -81 -138.2 -80.7 -137.95 -80.5 -137.9 -80.25 -137.9 -80.05 -138 -79.9 -138.1 -79.75 -138.3 -79.65 -138.45 -79.6 -138.85 -79.65 -139.2 -79.8 -140.1 -80.3 -140.95 -80.8 -141.3 -81.15 -141.5 -81.35 -141.6 -81.55
M -132.1 -84.8
L -132.6 -83.95 -129.25 -81.8 -128.75 -82.65 -132.1 -84.8
M -134.8 -84.7
Q -135.15 -85.55 -136.55 -86.35 -137.95 -87.2 -138.85 -87.1 -139.65 -86.9 -140.05 -86.2 -140.45 -85.5 -140.15 -84.85 -139.85 -84 -138.45 -83.15 -137.05 -82.35 -136.2 -82.45 -135.35 -82.6 -134.95 -83.3 -134.55 -84 -134.8 -84.7
M -135.95 -84.55
Q -135.7 -84.35 -135.65 -84.1 -135.65 -83.9 -135.75 -83.75 -135.85 -83.6 -136.05 -83.5 -136.2 -83.45 -136.6 -83.5 -136.95 -83.65 -137.85 -84.15 -138.7 -84.65 -139.05 -85 -139.25 -85.2 -139.35 -85.4 -139.35 -85.6 -139.25 -85.75 -139.15 -85.9 -138.95 -86 -138.75 -86.1 -138.4 -86 -138 -85.85 -137.15 -85.35 -136.25 -84.85 -135.95 -84.55
M -128.85 -89.7
L -125.55 -87.4 -124.95 -88.2 -128.25 -90.5 -128.85 -89.7
M -124.8 -95.15
L -121.65 -92.75 -121.05 -93.55 -124.2 -96 -124.8 -95.15
M -97.55 -117.85
L -100.15 -120.95 -101.65 -119.65 -99.05 -116.55 -97.55 -117.85
M -108.5 -107.85
L -107.75 -108.55 -110.6 -111.4 -111.3 -110.7 -108.5 -107.85
M -119.6 -101.7
L -120.9 -100.2 -117.8 -97.6 -116.5 -99.1 -119.6 -101.7
M -115.4 -106.5
L -116 -105.7 -113.1 -102.95 -112.45 -103.75 -115.4 -106.5
M -103 -113.15
L -105.65 -116.15 -106.4 -115.4 -103.7 -112.45 -103 -113.15
M -104.9 -121.35
Q -105.25 -121.75 -105.7 -121.85 -106.15 -121.95 -106.65 -121.7 -106.25 -122.55 -106.75 -123.15 -107.1 -123.55 -107.65 -123.6 -108.4 -123.7 -109 -123.2 -109.35 -122.9 -109.55 -122.5 -109.7 -122.15 -109.65 -121.75 -109.65 -121.35 -109.4 -120.9
L -108.5 -121.45
Q -108.7 -121.7 -108.7 -122 -108.65 -122.3 -108.45 -122.45 -108.2 -122.65 -108 -122.65 -107.75 -122.6 -107.55 -122.4 -107.35 -122.1 -107.4 -121.8 -107.45 -121.5 -107.8 -121.25
L -107.3 -120.5
Q -107.1 -120.75 -106.95 -120.85 -106.7 -121.1 -106.4 -121 -106.05 -120.95 -105.8 -120.65 -105.5 -120.3 -105.55 -119.95 -105.5 -119.6 -105.8 -119.4 -106.05 -119.2 -106.35 -119.25 -106.65 -119.25 -106.95 -119.55
L -107.7 -118.75
Q -107.15 -118.25 -106.45 -118.2 -105.8 -118.25 -105.25 -118.75 -104.6 -119.3 -104.55 -120.05 -104.4 -120.8 -104.9 -121.35
M -104.15 -126.6
Q -104.85 -126.65 -105.5 -126.1 -106.1 -125.6 -106.25 -124.95 -106.35 -124.3 -105.85 -123.55
L -104.95 -124.15
Q -105.25 -124.6 -105.25 -124.85 -105.2 -125.15 -104.9 -125.35 -104.65 -125.6 -104.4 -125.55 -104.1 -125.55 -103.85 -125.25 -103.65 -125 -103.6 -124.6 -103.6 -124.3 -103.7 -123.3 -103.85 -122.05 -103.75 -121.45 -103.65 -120.85 -103.35 -120.4
L -100.4 -122.85 -101.05 -123.65 -102.7 -122.25
Q -102.75 -122.4 -102.75 -122.6 -102.75 -122.85 -102.65 -123.5 -102.55 -124.2 -102.6 -124.55 -102.55 -125 -102.7 -125.35 -102.8 -125.75 -103.05 -126.05 -103.5 -126.55 -104.15 -126.6
M -90.45 -128.35
L -88.1 -125.05 -87.3 -125.6 -89.55 -128.95 -90.45 -128.35
M -83.9 -132.7
L -84.75 -132.15 -82.6 -128.75 -81.8 -129.35 -83.9 -132.7
M -95.15 -124.85
L -95.95 -124.25 -93.5 -121.05 -92.7 -121.7 -95.15 -124.85
M -98.8 -127.9
Q -99.85 -129.15 -100.7 -129.35 -101.5 -129.5 -102.1 -128.95 -102.75 -128.45 -102.7 -127.7 -102.7 -126.75 -101.65 -125.5 -100.6 -124.25 -99.8 -124.1 -99 -123.95 -98.35 -124.5 -97.75 -125.05 -97.7 -125.75 -97.75 -126.65 -98.8 -127.9
M -100.65 -128.15
Q -100.3 -127.95 -99.65 -127.15 -99 -126.4 -98.85 -126 -98.75 -125.7 -98.75 -125.5 -98.75 -125.3 -98.9 -125.15 -99.05 -125.05 -99.3 -125.05 -99.5 -125.05 -99.8 -125.25 -100.1 -125.5 -100.75 -126.25 -101.4 -127.05 -101.65 -127.45 -101.75 -127.75 -101.75 -127.95 -101.65 -128.15 -101.5 -128.25 -101.35 -128.4 -101.2 -128.4 -101 -128.4 -100.65 -128.15
M -86.65 -139.65
Q -86.85 -139.3 -86.9 -138.95 -86.95 -138.6 -86.75 -138.1
L -85.8 -138.45
Q -85.95 -138.75 -85.9 -139.05 -85.75 -139.3 -85.5 -139.45 -85.25 -139.6 -85.05 -139.55 -84.8 -139.45 -84.65 -139.2 -84.5 -138.9 -84.6 -138.65 -84.75 -138.35 -85.1 -138.1
L -84.75 -137.3
Q -84.55 -137.5 -84.4 -137.6 -84.1 -137.75 -83.75 -137.7 -83.45 -137.6 -83.25 -137.25 -83 -136.85 -83.1 -136.5 -83.15 -136.15 -83.45 -136 -83.75 -135.85 -84.05 -135.9 -84.35 -136 -84.55 -136.35
L -85.45 -135.65
Q -85 -135.1 -84.35 -134.95 -83.7 -134.8 -83 -135.2 -82.3 -135.6 -82.05 -136.4 -81.9 -137.1 -82.25 -137.75 -82.5 -138.2 -82.95 -138.35 -83.4 -138.5 -83.9 -138.35 -83.35 -139.15 -83.75 -139.8 -84 -140.25 -84.55 -140.45 -85.25 -140.7 -85.95 -140.25 -86.35 -140.05 -86.65 -139.65
M -127.5 -103.05
Q -128.2 -103 -128.7 -102.4 -129 -102.05 -129.1 -101.65 -129.25 -101.2 -129.15 -100.85 -129.05 -100.45 -128.7 -100.1
L -127.95 -100.7
Q -128.2 -101 -128.2 -101.3 -128.2 -101.55 -128.05 -101.75 -127.85 -102 -127.65 -102 -127.4 -102.05 -127.2 -101.85 -126.9 -101.65 -126.9 -101.3 -126.9 -101.05 -127.15 -100.7
L -126.6 -100
Q -126.45 -100.3 -126.35 -100.45 -126.1 -100.7 -125.8 -100.7 -125.45 -100.75 -125.15 -100.5 -124.8 -100.2 -124.75 -99.85 -124.7 -99.5 -124.9 -99.2 -125.1 -98.95 -125.45 -98.95 -125.75 -98.95 -126.05 -99.15
L -126.65 -98.3
Q -126.05 -97.85 -125.4 -97.95 -124.75 -98.1 -124.25 -98.65 -123.7 -99.3 -123.75 -100.05 -123.8 -100.8 -124.35 -101.3 -124.75 -101.65 -125.25 -101.6 -125.75 -101.65 -126.1 -101.35 -125.95 -102.25 -126.55 -102.75 -126.95 -103.1 -127.5 -103.05
M -125.25 -106.6
L -125.8 -105.95
Q -125.5 -105.45 -125.55 -104.8 -125.55 -104.15 -125.75 -103.75
L -125 -103.1
Q -124.65 -103.9 -124.7 -104.7
L -121.55 -102.05 -120.85 -102.9 -125.25 -106.6
M -122.95 -109.3
Q -123.45 -108.65 -123.3 -107.9 -123.15 -107 -121.9 -105.95 -120.65 -104.9 -119.8 -104.9 -119.05 -104.9 -118.5 -105.55 -117.95 -106.15 -118.05 -106.9 -118.25 -107.75 -119.5 -108.8 -120.75 -109.85 -121.65 -109.9 -122.4 -109.9 -122.95 -109.3
M -122.25 -108.7
Q -122.1 -108.85 -121.9 -108.9 -121.7 -108.9 -121.35 -108.75 -121.05 -108.6 -120.25 -107.95 -119.5 -107.3 -119.2 -106.95 -119 -106.65 -119 -106.45 -119 -106.25 -119.15 -106.1 -119.25 -105.95 -119.45 -105.9 -119.65 -105.9 -120.05 -106 -120.4 -106.2 -121.15 -106.85 -121.95 -107.5 -122.15 -107.85 -122.35 -108.15 -122.35 -108.35 -122.35 -108.55 -122.25 -108.7
M -40 -147.65
L -39.1 -147.9 -40.1 -151.75 -41.1 -151.5 -40 -147.65
M -77.3 -132
L -75.6 -133 -77.6 -136.45 -79.3 -135.45 -77.3 -132
M -72.05 -139.5
L -72.9 -139 -71.05 -135.45 -70.2 -135.95 -72.05 -139.5
M -79.1 -140.55
Q -79.55 -140.7 -80.05 -140.55 -79.5 -141.35 -79.9 -142 -80.15 -142.45 -80.7 -142.65 -81.4 -142.9 -82.1 -142.45 -82.5 -142.25 -82.8 -141.85 -83 -141.5 -83.05 -141.15 -83.1 -140.8 -82.9 -140.3
L -81.95 -140.65
Q -82.1 -140.95 -82.05 -141.25 -81.9 -141.5 -81.65 -141.65 -81.4 -141.8 -81.2 -141.75 -80.95 -141.65 -80.8 -141.4 -80.65 -141.1 -80.75 -140.85 -80.9 -140.55 -81.25 -140.3
L -80.9 -139.5
Q -80.7 -139.7 -80.55 -139.8 -80.25 -139.95 -79.9 -139.9 -79.6 -139.8 -79.4 -139.45 -79.15 -139.05 -79.25 -138.7 -79.3 -138.35 -79.6 -138.2 -79.9 -138.05 -80.2 -138.1 -80.5 -138.2 -80.7 -138.55
L -81.6 -137.85
Q -81.15 -137.3 -80.5 -137.15 -79.85 -137 -79.15 -137.4 -78.45 -137.8 -78.2 -138.6 -78.05 -139.3 -78.4 -139.95 -78.65 -140.4 -79.1 -140.55
M -76.8 -144.85
Q -77.5 -145.15 -78.2 -144.75 -78.9 -144.35 -79.05 -143.55 -79.2 -142.65 -78.35 -141.25 -77.55 -139.85 -76.75 -139.5 -76 -139.25 -75.3 -139.65 -74.6 -140.05 -74.5 -140.8 -74.35 -141.75 -75.15 -143.15 -76 -144.55 -76.8 -144.85
M -76.9 -143.7
Q -76.65 -143.4 -76.15 -142.55 -75.65 -141.65 -75.55 -141.25 -75.45 -140.9 -75.5 -140.75 -75.6 -140.55 -75.75 -140.45 -75.9 -140.35 -76.1 -140.35 -76.35 -140.4 -76.6 -140.7 -76.85 -140.95 -77.35 -141.85 -77.85 -142.7 -78 -143.15 -78.1 -143.45 -78 -143.65 -77.9 -143.85 -77.75 -143.95 -77.6 -144.05 -77.4 -144.05 -77.2 -143.95 -76.9 -143.7
M -65.85 -142.5
L -66.75 -142.1 -65.05 -138.45 -64.15 -138.85 -65.85 -142.5
M -59.55 -145.25
L -60.5 -144.85 -59 -141.15 -58.1 -141.55 -59.55 -145.25
M -54.65 -147.2
L -53.25 -143.45 -51.35 -144.15 -52.75 -147.9 -54.65 -147.2
M -46.75 -149.9
L -47.7 -149.55 -46.45 -145.75 -45.55 -146.1 -46.75 -149.9
M -51.85 -156.05
Q -52.6 -155.75 -52.85 -155.05 -53.15 -154.2 -52.6 -152.65 -52.05 -151.1 -51.35 -150.7 -50.6 -150.25 -49.85 -150.55 -49.05 -150.85 -48.8 -151.55 -48.55 -152.45 -49.1 -153.95 -49.65 -155.5 -50.4 -155.95 -51.05 -156.35 -51.85 -156.05
M -51.55 -155.2
Q -51.35 -155.25 -51.15 -155.2 -50.95 -155.1 -50.75 -154.8 -50.5 -154.5 -50.15 -153.55 -49.8 -152.6 -49.85 -152.15 -49.75 -151.85 -49.85 -151.65 -50 -151.45 -50.2 -151.4 -50.35 -151.35 -50.5 -151.45 -50.7 -151.5 -50.95 -151.8 -51.15 -152.1 -51.5 -153.05 -51.85 -154 -51.9 -154.45 -51.9 -154.8 -51.8 -155 -51.7 -155.15 -51.55 -155.2
M -54.75 -155
L -55.65 -154.7 -56.7 -150.45 -56.4 -149.55 -54.2 -150.35 -53.8 -149.25 -52.8 -149.6 -53.2 -150.7 -52.55 -150.95 -52.85 -151.85 -53.5 -151.6 -54.75 -155
M -55.2 -153.1
L -54.5 -151.25 -55.75 -150.8 -55.2 -153.1
M -61 -152.55
Q -61.3 -152.2 -61.4 -151.9 -61.5 -151.5 -61.4 -151
L -60.4 -151.2
Q -60.45 -151.55 -60.35 -151.75 -60.2 -152.05 -59.95 -152.1 -59.7 -152.2 -59.5 -152.15 -59.25 -152.05 -59.15 -151.75 -59.05 -151.45 -59.2 -151.15 -59.35 -150.9 -59.8 -150.75
L -59.6 -149.9
Q -59.3 -150.05 -59.1 -150.1 -58.8 -150.2 -58.55 -150.1 -58.25 -149.9 -58.1 -149.5 -57.95 -149.1 -58.05 -148.8 -58.25 -148.45 -58.55 -148.35 -58.85 -148.25 -59.1 -148.35 -59.35 -148.5 -59.55 -148.85
L -60.5 -148.4
Q -60.2 -147.75 -59.55 -147.5 -58.95 -147.25 -58.2 -147.5 -57.45 -147.8 -57.1 -148.45 -56.8 -149.15 -57.05 -149.85 -57.2 -150.35 -57.6 -150.6 -58 -150.85 -58.5 -150.8 -57.9 -151.45 -58.15 -152.15 -58.35 -152.65 -58.85 -152.95 -59.45 -153.25 -60.25 -153 -60.7 -152.8 -61 -152.55
M -6.3 -156.9
L -7.35 -156.8 -7.2 -152.85 -6.15 -152.9 -6.3 -156.9
M -14.15 -156.35
L -13.8 -152.4 -12.8 -152.45 -13.15 -156.4 -14.15 -156.35
M -21 -155.55
L -20.5 -151.6 -19.5 -151.8 -20 -155.75 -21 -155.55
M -27.55 -150.55
L -25.55 -150.85 -26.25 -154.75 -28.25 -154.45 -27.55 -150.55
M -33.45 -153.4
L -34.45 -153.15 -33.6 -149.25 -32.65 -149.5 -33.45 -153.4
M -30.9 -159.9
Q -31 -160.45 -31.45 -160.8 -32.05 -161.2 -32.85 -161.05 -33.3 -161 -33.6 -160.8 -34 -160.5 -34.15 -160.15 -34.3 -159.85 -34.3 -159.3
L -33.3 -159.3
Q -33.3 -159.7 -33.15 -159.95 -33 -160.1 -32.7 -160.15 -32.45 -160.2 -32.2 -160.1 -32.05 -160 -32 -159.7 -31.9 -159.35 -32.15 -159.1 -32.3 -158.85 -32.75 -158.75
L -32.7 -157.9
Q -32.45 -158 -32.2 -158.05 -31.9 -158.1 -31.65 -157.95 -31.4 -157.7 -31.3 -157.3 -31.25 -156.85 -31.45 -156.6 -31.6 -156.3 -31.95 -156.25 -32.25 -156.15 -32.55 -156.35 -32.75 -156.5 -32.9 -156.9
L -33.9 -156.6
Q -33.7 -155.9 -33.1 -155.55 -32.55 -155.2 -31.8 -155.35 -31 -155.45 -30.55 -156.1 -30.05 -156.7 -30.2 -157.45 -30.3 -157.95 -30.65 -158.25 -31 -158.6 -31.5 -158.6 -30.75 -159.15 -30.9 -159.9
M -26.65 -162.1
L -29.5 -161.6 -29.5 -158.6 -28.65 -158.6
Q -28.3 -159.05 -27.85 -159.15 -27.5 -159.2 -27.2 -159 -26.9 -158.8 -26.85 -158.25 -26.75 -157.7 -26.95 -157.4 -27.15 -157.05 -27.5 -157 -27.75 -156.95 -28 -157.15 -28.3 -157.3 -28.4 -157.65
L -29.45 -157.35
Q -29.25 -156.7 -28.65 -156.3 -28.1 -156 -27.35 -156.15 -26.35 -156.3 -25.9 -157.15 -25.6 -157.8 -25.75 -158.5 -25.9 -159.35 -26.45 -159.75 -27.05 -160.15 -27.8 -160.05 -28.15 -159.95 -28.5 -159.75
L -28.5 -160.75 -26.45 -161.1 -26.65 -162.1
M -22.6 -162.3
Q -23.15 -162.8 -24 -162.65 -24.8 -162.5 -25.15 -161.85 -25.55 -161.05 -25.3 -159.45 -25 -157.8 -24.4 -157.3 -23.8 -156.75 -23 -156.9 -22.15 -157.05 -21.8 -157.7 -21.35 -158.5 -21.65 -160.1 -21.9 -161.7 -22.6 -162.3
M -24.35 -161.1
Q -24.3 -161.4 -24.15 -161.55 -24.05 -161.7 -23.85 -161.75 -23.65 -161.75 -23.45 -161.7 -23.3 -161.55 -23.15 -161.25 -22.95 -160.85 -22.8 -159.9 -22.6 -158.9 -22.65 -158.45 -22.7 -158.1 -22.8 -157.95 -22.95 -157.8 -23.15 -157.8 -23.35 -157.75 -23.5 -157.8 -23.7 -157.95 -23.85 -158.3 -24 -158.65 -24.2 -159.65 -24.35 -160.6 -24.35 -161.1
M -164.4 -4
L -164.4 -2.85 -160.4 -1.95 -164.4 -0.95 -164.4 0.45 -160.45 1.5 -164.4 2.35 -164.4 3.5 -158.65 2.15 -158.65 0.9 -162.95 -0.25 -158.65 -1.4 -158.65 -2.6 -164.4 -4
M -162.65 -24.35
Q -162.8 -23.6 -162.5 -23.05 -162.25 -22.4 -161.35 -22.15
L -161.05 -23.25
Q -161.5 -23.35 -161.65 -23.6 -161.85 -23.85 -161.75 -24.15 -161.7 -24.5 -161.45 -24.65 -161.3 -24.8 -160.9 -24.75 -160.6 -24.7 -160.3 -24.45 -160.05 -24.2 -159.55 -23.4 -158.85 -22.3 -158.4 -21.9 -157.9 -21.5 -157.35 -21.35
L -156.7 -25.15 -157.7 -25.35 -158.1 -23.2
Q -158.2 -23.25 -158.35 -23.45 -158.45 -23.6 -158.85 -24.2 -159.25 -24.75 -159.45 -25 -159.75 -25.4 -160.05 -25.6 -160.4 -25.8 -160.8 -25.85 -161.45 -26 -162 -25.55 -162.5 -25.2 -162.65 -24.35
M 85.4 135.7
Q 84.95 135.1 84.25 135 83.65 134.85 82.95 135.2 82.1 135.7 82 136.65 81.9 137.35 82.25 137.95 82.7 138.7 83.4 138.9 84.1 139.1 84.7 138.75 85.05 138.55 85.25 138.2
L 85.6 139.15 83.85 140.2 84.35 141.1 86.85 139.65 85.9 136.75 85 137.1
Q 84.95 137.65 84.5 137.85 84.2 138.05 83.85 137.95 83.5 137.85 83.25 137.4 82.95 136.9 83.05 136.5 83.1 136.2 83.4 136.05 83.65 135.9 83.95 135.9 84.25 136 84.5 136.25
L 85.4 135.7
M 82.6 128.65
L 81.8 129.25 83.9 132.6 84.75 132.05 82.6 128.65
M 89.55 128.85
L 90.45 128.25 88.1 124.95 87.3 125.5 89.55 128.85
M 98.35 124.5
Q 97.75 125.05 97.7 125.75 97.75 126.65 98.8 127.9 99.85 129.15 100.7 129.35 101.5 129.5 102.1 128.95 102.75 128.45 102.7 127.7 102.7 126.75 101.65 125.5 100.6 124.25 99.8 124.1 99 123.95 98.35 124.5
M 98.85 126
Q 98.75 125.7 98.75 125.5 98.75 125.3 98.9 125.15 99.05 125.05 99.3 125.05 99.5 125.05 99.8 125.25 100.1 125.5 100.75 126.25 101.4 127.05 101.65 127.45 101.75 127.75 101.75 127.95 101.65 128.15 101.5 128.25 101.35 128.4 101.2 128.4 101 128.4 100.65 128.15 100.3 127.95 99.65 127.15 99 126.4 98.85 126
M 93.5 120.95
L 92.7 121.6 95.15 124.75 95.95 124.15 93.5 120.95
M 97.55 117.75
L 100.15 120.85 101.65 119.55 99.05 116.45 97.55 117.75
M 105.4 118.7
L 104.55 119.4 108.25 123.8 108.9 123.25
Q 108.7 122.75 108.85 122.1 109 121.5 109.2 121.1
L 108.55 120.35
Q 108.15 121.1 108.05 121.85
L 105.4 118.7
M 102.35 122.75
L 101.6 121.85 100.8 122.55 101.55 123.45 101 123.9 101.6 124.6 102.15 124.15 104.5 126.95 105.2 126.35 104.75 121.95 104.15 121.25 102.35 122.75
M 102.95 123.45
L 103.95 122.6 104.2 124.95 102.95 123.45
M 103 113.05
L 105.65 116.05 106.4 115.3 103.7 112.35 103 113.05
M 110.6 111.3
L 111.3 110.6 108.5 107.75 107.75 108.45 110.6 111.3
M 113.1 102.85
L 112.45 103.65 115.4 106.4 116 105.6 113.1 102.85
M 116.5 99
L 119.6 101.6 120.9 100.1 117.8 97.5 116.5 99
M 123.3 107.9
Q 123.15 107 121.9 105.95 120.65 104.9 119.8 104.9 119.05 104.9 118.5 105.55 117.95 106.15 118.05 106.9 118.25 107.75 119.5 108.8 120.75 109.85 121.65 109.9 122.4 109.9 122.95 109.3 123.45 108.65 123.3 107.9
M 122.25 108.7
Q 122.1 108.85 121.9 108.9 121.7 108.9 121.35 108.75 121.05 108.6 120.25 107.95 119.5 107.3 119.2 106.95 119 106.65 119 106.45 119 106.25 119.15 106.1 119.25 105.95 119.45 105.9 119.65 105.9 120.05 106 120.4 106.2 121.15 106.85 121.95 107.5 122.15 107.85 122.35 108.15 122.35 108.35 122.35 108.55 122.25 108.7
M 123.8 101.75
Q 123.2 101.3 122.55 101.4 121.9 101.55 121.4 102.1 120.85 102.75 120.9 103.5 120.95 104.25 121.5 104.75 121.9 105.1 122.4 105.05 122.9 105.1 123.25 104.8 123.1 105.7 123.7 106.2 124.1 106.55 124.65 106.5 125.35 106.45 125.85 105.85 126.15 105.5 126.25 105.1 126.4 104.65 126.3 104.3 126.2 103.9 125.85 103.55
L 125.1 104.15
Q 125.35 104.45 125.35 104.75 125.35 105 125.2 105.2 125 105.45 124.8 105.45 124.55 105.5 124.35 105.3 124.05 105.1 124.05 104.75 124.05 104.5 124.3 104.15
L 123.75 103.45
Q 123.6 103.75 123.5 103.9 123.25 104.15 122.95 104.15 122.6 104.2 122.3 103.95 121.95 103.65 121.9 103.3 121.85 102.95 122.05 102.65 122.25 102.4 122.6 102.4 122.9 102.4 123.2 102.6
L 123.8 101.75
M 128.1 103.15
L 128.65 102.5
Q 128.35 102 128.4 101.35 128.4 100.7 128.6 100.3
L 127.85 99.65
Q 127.5 100.45 127.55 101.25
L 124.4 98.6 123.7 99.45 128.1 103.15
M 52.6 152.65
Q 52.05 151.1 51.35 150.7 50.6 150.25 49.85 150.55 49.05 150.85 48.8 151.55 48.55 152.45 49.1 153.95 49.65 155.5 50.4 155.95 51.05 156.35 51.85 156.05 52.6 155.75 52.85 155.05 53.15 154.2 52.6 152.65
M 50.95 151.8
Q 51.15 152.1 51.5 153.05 51.85 154 51.9 154.45 51.9 154.8 51.8 155 51.7 155.15 51.55 155.2 51.35 155.25 51.15 155.2 50.95 155.1 50.75 154.8 50.5 154.5 50.15 153.55 49.8 152.6 49.85 152.15 49.75 151.85 49.85 151.65 50 151.45 50.2 151.4 50.35 151.35 50.5 151.45 50.7 151.5 50.95 151.8
M 55.8 154.65
Q 56.7 154.3 57.05 153.45 57.35 152.6 56.8 151.1 56.3 149.65 55.5 149.25 54.75 148.8 53.9 149.1 53.15 149.35 52.85 150.05 52.6 150.7 52.9 151.55 53.15 152.3 53.8 152.65 54.4 153 55.05 152.75 55.65 152.55 55.85 151.95 56.15 152.9 56.05 153.25 55.9 153.65 55.6 153.75 55.35 153.85 55.15 153.75 54.9 153.65 54.8 153.35
L 53.85 153.85
Q 54.15 154.45 54.7 154.65 55.2 154.85 55.8 154.65
M 53.8 150.4
Q 53.95 150.05 54.2 149.95 54.5 149.85 54.85 150.05 55.15 150.25 55.3 150.75 55.5 151.2 55.35 151.5 55.25 151.85 54.95 151.95 54.65 152.05 54.35 151.9 54.05 151.7 53.9 151.15 53.7 150.65 53.8 150.4
M 2.15 160.5
Q 2.05 159.55 1.45 159.05 0.9 158.55 -0.2 158.55 -0.95 158.55 -1.45 158.75 -1.95 158.95 -2.2 159.4 -2.5 159.85 -2.5 160.3 -2.5 160.85 -2.25 161.25 -2.05 161.6 -1.65 161.8 -1.25 162.05 -0.4 162.2 0.45 162.4 0.7 162.6 0.85 162.75 0.85 162.95 0.85 163.2 0.65 163.3 0.4 163.5 -0.1 163.5 -0.6 163.5 -0.85 163.3 -1.1 163.15 -1.15 162.7
L -2.35 162.75
Q -2.3 163.55 -1.75 164 -1.2 164.45 -0.15 164.45 0.5 164.45 1 164.3 1.45 164.1 1.7 163.7 1.95 163.3 1.95 162.9 1.95 162.2 1.45 161.7 1.05 161.4 0.1 161.15 -0.6 161 -0.8 160.9 -1.1 160.8 -1.2 160.65 -1.35 160.5 -1.35 160.3 -1.35 160 -1.05 159.75 -0.75 159.55 -0.2 159.55 0.3 159.55 0.6 159.8 0.95 160.05 1.05 160.6
L 2.15 160.5
M 1 156.9
L 1 152.9 -1 152.9 -1 156.9 1 156.9
M 7.35 156.7
L 7.2 152.75 6.15 152.8 6.3 156.8 7.35 156.7
M 13.15 156.3
L 14.15 156.25 13.8 152.3 12.8 152.35 13.15 156.3
M 21 155.45
L 20.5 151.5 19.5 151.7 20 155.65 21 155.45
M 27.45 157.95
Q 27.35 158.95 27.05 159.9 26.75 160.85 26.35 161.35
L 26.5 162.1 30.2 161.45 30 160.45 27.55 160.9
Q 28.15 159.8 28.35 158.55 28.65 157.2 28.45 156.05
L 27.4 156.25
Q 27.55 157 27.45 157.95
M 24.4 157.3
Q 23.8 156.75 23 156.9 22.15 157.05 21.8 157.7 21.35 158.5 21.65 160.1 21.9 161.7 22.6 162.3 23.15 162.8 24 162.65 24.8 162.5 25.15 161.85 25.55 161.05 25.3 159.45 25 157.8 24.4 157.3
M 22.8 157.95
Q 22.95 157.8 23.15 157.8 23.35 157.75 23.5 157.8 23.7 157.95 23.85 158.3 24 158.65 24.2 159.65 24.35 160.6 24.35 161.1 24.3 161.4 24.15 161.55 24.05 161.7 23.85 161.75 23.65 161.75 23.45 161.7 23.3 161.55 23.15 161.25 22.95 160.85 22.8 159.9 22.6 158.9 22.65 158.45 22.7 158.1 22.8 157.95
M 26.25 154.65
L 28.25 154.35 27.55 150.45 25.55 150.75 26.25 154.65
M 33.25 160.05
Q 33.65 159.6 34.1 159.4
L 33.9 158.4
Q 33.1 158.8 32.65 159.45
L 31.95 155.4 30.85 155.6 31.85 161.25 32.75 161.1
Q 32.8 160.55 33.25 160.05
M 34.45 153.05
L 33.6 149.15 32.65 149.4 33.45 153.3 34.45 153.05
M 40 147.55
L 39.1 147.8 40.1 151.65 41.1 151.4 40 147.55
M 72.05 139.45
L 72.9 138.95 71.05 135.4 70.2 135.9 72.05 139.45
M 78.35 141.25
Q 77.55 139.85 76.75 139.5 76 139.25 75.3 139.65 74.6 140.05 74.5 140.8 74.35 141.75 75.15 143.15 76 144.55 76.8 144.85 77.55 145.15 78.25 144.75 78.95 144.35 79.05 143.55 79.2 142.65 78.35 141.25
M 76.6 140.7
Q 76.85 140.95 77.35 141.85 77.85 142.7 78 143.15 78.1 143.45 78 143.65 77.9 143.85 77.75 143.95 77.6 144.05 77.4 144.05 77.2 143.95 76.9 143.7 76.65 143.4 76.15 142.55 75.65 141.65 75.55 141.25 75.45 140.9 75.5 140.75 75.6 140.55 75.75 140.45 75.9 140.35 76.1 140.35 76.35 140.4 76.6 140.7
M 80.6 137.35
Q 79.8 137.05 79.05 137.45 78.35 137.85 78.15 138.6 78 139.35 78.4 140.1 78.85 140.8 79.5 141 80.2 141.2 80.8 140.85 81.3 140.55 81.4 139.95 81.85 140.8 81.8 141.25 81.75 141.6 81.45 141.8 81.2 141.9 81.05 141.85 80.8 141.85 80.6 141.55
L 79.75 142.2
Q 80.2 142.7 80.75 142.8 81.35 142.95 81.9 142.6 82.7 142.15 82.85 141.25 83 140.35 82.2 138.95 81.45 137.65 80.6 137.35
M 79.15 138.75
Q 79.2 138.45 79.45 138.3 79.7 138.15 80.1 138.25 80.45 138.4 80.7 138.85 80.95 139.3 80.9 139.6 80.8 139.9 80.55 140.05 80.25 140.25 79.9 140.15 79.6 140 79.3 139.55 79.05 139.05 79.15 138.75
M 65.85 142.4
L 66.75 142 65.05 138.4 64.15 138.8 65.85 142.4
M 77.35 131.9
L 75.65 132.9 77.65 136.35 79.35 135.35 77.35 131.9
M 58.35 147.55
L 57.35 147.95 59.3 153.35 60.15 153
Q 60.15 152.45 60.5 151.95 60.8 151.35 61.15 151.1
L 60.85 150.15
Q 60.15 150.7 59.75 151.45
L 58.35 147.55
M 54.65 147.1
L 53.25 143.35 51.35 144.05 52.75 147.8 54.65 147.1
M 59 141.1
L 58.1 141.5 59.6 145.15 60.55 144.75 59 141.1
M 46.45 145.65
L 45.55 146 46.75 149.8 47.7 149.45 46.45 145.65
M 124.2 95.95
L 124.8 95.1 121.7 92.65 121.1 93.45 124.2 95.95
M 128.25 90.4
L 128.85 89.6 125.6 87.3 125 88.1 128.25 90.4
M 134.8 84.7
Q 135.15 85.55 136.55 86.35 137.95 87.2 138.85 87.1 139.65 86.95 140.05 86.25 140.45 85.55 140.15 84.85 139.85 84 138.45 83.15 137.05 82.35 136.2 82.45 135.35 82.6 134.95 83.3 134.55 84 134.8 84.7
M 136.05 83.5
Q 136.2 83.45 136.6 83.5 136.95 83.65 137.85 84.15 138.7 84.65 139.05 85 139.25 85.2 139.35 85.4 139.35 85.6 139.25 85.75 139.15 85.9 138.95 86 138.75 86.1 138.4 86 138 85.85 137.15 85.35 136.25 84.85 135.95 84.55 135.7 84.35 135.65 84.1 135.65 83.9 135.75 83.75 135.85 83.6 136.05 83.5
M 132.15 84.7
L 132.65 83.85 129.3 81.7 128.8 82.55 132.15 84.7
M 135.4 79.3
L 136.4 77.6 132.95 75.6 131.95 77.3 135.4 79.3
M 139.55 75.55
L 139.05 76.5 144.05 79.4 144.45 78.6
Q 144.1 78.15 144 77.5 143.9 76.85 144 76.45
L 143.15 75.95
Q 143 76.8 143.15 77.6
L 139.55 75.55
M 139.05 78.65
Q 138.75 78.15 138.3 77.75
L 136.4 81.1 137.3 81.6 138.35 79.7
Q 138.4 79.9 138.5 80.05 138.6 80.3 138.75 81 138.85 81.65 139 81.95 139.15 82.4 139.4 82.7 139.65 83 140 83.2 140.6 83.5 141.2 83.35 141.85 83.15 142.3 82.45 142.65 81.75 142.6 81.1 142.5 80.45 141.75 79.95
L 141.1 80.8
Q 141.5 81.05 141.55 81.35 141.65 81.6 141.5 81.9 141.3 82.2 141.05 82.3 140.8 82.35 140.5 82.2 140.2 82 140 81.65 139.85 81.4 139.65 80.4 139.35 79.15 139.05 78.65
M 138.95 72.9
L 139.4 72 135.9 70.15 135.45 71 138.95 72.9
M 142 66.75
L 142.45 65.85 138.8 64.15 138.35 65.05 142 66.75
M 144.85 60.5
L 145.2 59.55 141.5 58 141.15 58.9 144.85 60.5
M 147.15 54.6
L 147.85 52.7 144.1 51.3 143.4 53.2 147.15 54.6
M 151.95 61.4
Q 152.65 61.15 152.95 60.35 153.25 59.6 152.85 58.95 152.4 58.15 150.85 57.6 149.3 57.05 148.5 57.35 147.75 57.6 147.45 58.35 147.15 59.15 147.55 59.8 148.05 60.55 149.55 61.1 151.1 61.65 151.95 61.4
M 152.1 59.7
Q 152.15 59.9 152.1 60.05 152.05 60.25 151.9 60.35 151.7 60.45 151.3 60.45 150.9 60.4 149.95 60.05 149 59.7 148.65 59.45 148.35 59.25 148.35 59.05 148.25 58.9 148.3 58.7 148.35 58.55 148.55 58.4 148.7 58.3 149.1 58.35 149.5 58.35 150.45 58.7 151.4 59.05 151.75 59.3 152 59.5 152.1 59.7
M 152.75 53.95
Q 152.7 54.75 153.05 55.55
L 149.15 54.15 148.75 55.15 154.15 57.1 154.5 56.25
Q 154.05 55.95 153.85 55.3 153.65 54.7 153.7 54.25
L 152.75 53.95
M 155.5 53.3
L 155.85 52.45
Q 155.4 52.15 155.2 51.5 155 50.9 155.05 50.45
L 154.1 50.15
Q 154.05 50.95 154.4 51.75
L 150.5 50.35 150.1 51.35 155.5 53.3
M 149.55 47.65
L 149.85 46.7 146 45.45 145.75 46.4 149.55 47.65
M 151.45 41.1
L 151.7 40.1 147.85 39.05 147.6 40.05 151.45 41.1
M 155.35 32.1
Q 155.2 32.95 155.75 33.5 156.35 34.15 157.95 34.45 159.55 34.7 160.35 34.3 160.95 33.95 161.1 33.1 161.25 32.3 160.8 31.75 160.2 31.05 158.6 30.8 156.95 30.5 156.25 30.9 155.5 31.3 155.35 32.1
M 156.25 32.25
Q 156.3 32.05 156.45 31.9 156.6 31.8 156.95 31.75 157.4 31.7 158.4 31.9 159.35 32.05 159.75 32.25 160.05 32.4 160.2 32.55 160.25 32.75 160.2 32.95 160.2 33.15 160.05 33.25 159.9 33.4 159.5 33.45 159.1 33.45 158.15 33.3 157.15 33.1 156.7 32.95 156.45 32.8 156.3 32.6 156.25 32.45 156.25 32.25
M 153.1 34.45
L 153.3 33.45 149.45 32.55 149.25 33.55 153.1 34.45
M 154.4 28.2
L 154.7 26.2 150.8 25.5 150.5 27.5 154.4 28.2
M 159.35 26.4
Q 157.7 26.1 157 26.5 156.25 26.9 156.1 27.7 155.95 28.55 156.5 29.1 157.1 29.75 158.7 30.05 160.3 30.3 161.1 29.9 161.7 29.55 161.85 28.7 162 27.9 161.55 27.35 160.95 26.65 159.35 26.4
M 157.7 27.35
Q 158.15 27.3 159.15 27.5 160.1 27.65 160.5 27.85 160.8 28 160.95 28.15 161 28.35 160.95 28.55 160.95 28.75 160.8 28.85 160.65 29 160.25 29.05 159.85 29.05 158.9 28.9 157.9 28.7 157.45 28.55 157.2 28.4 157.05 28.2 157 28.05 157 27.85 157.05 27.65 157.2 27.5 157.35 27.4 157.7 27.35
M 156.4 13.15
L 152.4 12.8 152.3 13.8 156.3 14.15 156.4 13.15
M 151.7 19.4
L 151.6 20.4 155.55 20.95 155.65 19.95 151.7 19.4
M 152.8 7.1
L 156.8 7.3 156.8 6.3 152.8 6.1 152.8 7.1
M 162.5 25.25
L 162.65 24.35
Q 162.2 24.1 161.9 23.55 161.55 22.95 161.55 22.5
L 160.55 22.3
Q 160.65 23.2 161.1 23.85
L 157.05 23.15 156.85 24.25 162.5 25.25
M 159.6 -0.7
L 161.15 -0.7 161.15 2.15 162.15 2.15 162.15 -0.7 163.4 -0.7 163.4 2.4 164.4 2.4 164.4 -1.85 158.65 -1.85 158.65 2.5 159.6 2.5 159.6 -0.7
M 156.95 -1.05
L 152.95 -1.05 152.95 0.95 156.95 0.95 156.95 -1.05
M 156.85 -6.35
L 156.75 -7.4 152.8 -7.25 152.85 -6.2 156.85 -6.35
M 156.35 -13.2
L 156.3 -14.2 152.35 -13.85 152.4 -12.85 156.35 -13.2
M 155.7 -20.05
L 155.5 -21.05 151.55 -20.55 151.75 -19.55 155.7 -20.05
M 159.1 -27.5
Q 157.45 -27.2 156.95 -26.6 156.4 -26 156.55 -25.2 156.7 -24.35 157.35 -24 158.15 -23.55 159.75 -23.85 161.35 -24.1 161.95 -24.8 162.45 -25.35 162.3 -26.2 162.15 -27 161.5 -27.35 160.7 -27.75 159.1 -27.5
M 157.95 -26.05
Q 158.3 -26.2 159.3 -26.4 160.25 -26.55 160.75 -26.55 161.05 -26.5 161.2 -26.35 161.35 -26.25 161.4 -26.05 161.4 -25.85 161.35 -25.65 161.2 -25.5 160.9 -25.35 160.5 -25.15 159.55 -25 158.55 -24.8 158.1 -24.85 157.75 -24.9 157.6 -25 157.45 -25.15 157.45 -25.35 157.4 -25.55 157.45 -25.7 157.6 -25.9 157.95 -26.05
M 158.7 -31
Q 158.45 -31.45 158 -31.6 157.55 -31.75 157.1 -31.7 156.3 -31.55 155.9 -30.85 155.6 -30.25 155.75 -29.5 155.9 -28.65 156.45 -28.2 157.05 -27.8 157.8 -27.95 158.3 -28.05 158.6 -28.35 158.9 -28.65 159.05 -29.2 159.25 -28.8 159.6 -28.65 159.95 -28.5 160.35 -28.6 161 -28.7 161.3 -29.25 161.6 -29.75 161.5 -30.55 161.35 -31.35 160.85 -31.75 160.4 -32.1 159.75 -32 159.4 -31.95 159.1 -31.65 158.8 -31.4 158.7 -31
M 156.6 -29.65
Q 156.5 -30 156.75 -30.3 156.95 -30.5 157.4 -30.6 157.75 -30.65 158.05 -30.5 158.35 -30.4 158.45 -30 158.5 -29.65 158.3 -29.35 158.05 -29.1 157.65 -29.05 157.2 -28.95 156.95 -29.15 156.65 -29.35 156.6 -29.65
M 160.35 -30.85
Q 160.6 -30.7 160.65 -30.4 160.7 -30.1 160.5 -29.85 160.4 -29.65 160.1 -29.6 159.75 -29.5 159.55 -29.7 159.35 -29.85 159.3 -30.15 159.25 -30.45 159.4 -30.7 159.5 -30.85 159.85 -30.95 160.15 -31 160.35 -30.85
M 150.5 -27.6
L 150.8 -25.6 154.7 -26.3 154.4 -28.3 150.5 -27.6
M 149.2 -33.65
L 149.45 -32.7 153.35 -33.5 153.1 -34.5 149.2 -33.65
M 149.5 -47.75
L 145.7 -46.5 146.05 -45.6 149.85 -46.8 149.5 -47.75
M 151.45 -41.15
L 147.6 -40.05 147.85 -39.15 151.7 -40.15 151.45 -41.15
M 149.8 -51.9
Q 150.1 -51.1 150.8 -50.85 151.7 -50.6 153.2 -51.15 154.75 -51.7 155.2 -52.45 155.6 -53.1 155.3 -53.9 155 -54.65 154.3 -54.9 153.45 -55.2 151.9 -54.65 150.35 -54.1 149.95 -53.4 149.5 -52.65 149.8 -51.9
M 150.65 -52.25
Q 150.6 -52.4 150.7 -52.55 150.75 -52.75 151.05 -53 151.35 -53.2 152.3 -53.55 153.25 -53.9 153.7 -53.95 154.05 -53.95 154.25 -53.85 154.4 -53.75 154.45 -53.6 154.5 -53.4 154.45 -53.2 154.35 -53 154.05 -52.8 153.75 -52.55 152.8 -52.2 151.85 -51.85 151.4 -51.9 151.1 -51.8 150.9 -51.9 150.7 -52.05 150.65 -52.25
M 143.4 -53.3
L 144.1 -51.4 147.85 -52.8 147.15 -54.7 143.4 -53.3
M 150.5 -57.55
Q 149.15 -57.55 148.05 -57.15
L 148.4 -56.15
Q 149.1 -56.4 150.1 -56.55 151.05 -56.6 152.1 -56.45 153.05 -56.3 153.6 -56
L 154.35 -56.3 153.05 -59.85 152.1 -59.5 152.95 -57.15
Q 151.8 -57.5 150.5 -57.55
M 141.15 -59.05
L 141.55 -58.15 145.2 -59.6 144.8 -60.55 141.15 -59.05
M 138.45 -65.1
L 138.85 -64.2 142.45 -65.9 142.05 -66.8 138.45 -65.1
M 139.5 -72.1
L 139 -72.95 135.45 -71.1 135.95 -70.25 139.5 -72.1
M 136.4 -77.65
L 135.4 -79.35 131.95 -77.35 132.95 -75.65 136.4 -77.65
M 141.5 -83.75
Q 141.05 -84.55 140.15 -84.75 139.25 -84.9 137.85 -84.1 136.55 -83.3 136.25 -82.5 135.95 -81.7 136.35 -80.95 136.75 -80.25 137.5 -80.05 138.25 -79.9 139 -80.3 139.7 -80.75 139.9 -81.4 140.1 -82.1 139.75 -82.7 139.45 -83.2 138.85 -83.3 139.7 -83.75 140.15 -83.7 140.5 -83.65 140.7 -83.35 140.8 -83.1 140.75 -82.95 140.75 -82.7 140.45 -82.5
L 141.1 -81.65
Q 141.6 -82.1 141.7 -82.65 141.85 -83.2 141.5 -83.75
M 137.15 -82
Q 137.3 -82.35 137.75 -82.6 138.2 -82.85 138.5 -82.8 138.8 -82.7 138.95 -82.45 139.15 -82.15 139.05 -81.8 138.9 -81.5 138.45 -81.2 137.95 -80.95 137.65 -81.05 137.35 -81.1 137.2 -81.35 137.05 -81.6 137.15 -82
M 128.7 -82.65
L 129.3 -81.85 132.65 -83.95 132.1 -84.8 128.7 -82.65
M 128.3 -90.5
L 125 -88.15 125.55 -87.35 128.9 -89.6 128.3 -90.5
M 124.8 -95.2
L 124.2 -96 121 -93.55 121.65 -92.75 124.8 -95.2
M 143.65 -80.1
Q 143.25 -80.8 142.45 -80.95 141.55 -81.1 140.15 -80.25 138.75 -79.45 138.4 -78.65 138.15 -77.9 138.55 -77.2 138.95 -76.5 139.7 -76.4 140.65 -76.25 142.05 -77.05 143.45 -77.9 143.75 -78.7 144.05 -79.4 143.65 -80.1
M 142.85 -79.65
Q 142.95 -79.5 142.95 -79.3 142.85 -79.1 142.6 -78.8 142.3 -78.55 141.45 -78.05 140.55 -77.55 140.15 -77.45 139.8 -77.35 139.65 -77.4 139.45 -77.5 139.35 -77.65 139.25 -77.8 139.25 -78 139.3 -78.25 139.6 -78.5 139.85 -78.75 140.75 -79.25 141.6 -79.75 142.05 -79.9 142.35 -80 142.55 -79.9 142.75 -79.8 142.85 -79.65
M 52.75 -147.9
L 51.35 -144.15 53.25 -143.45 54.65 -147.2 52.75 -147.9
M 60.55 -144.9
L 59.6 -145.25 58.05 -141.55 58.95 -141.2 60.55 -144.9
M 77.35 -132
L 79.35 -135.45 77.65 -136.45 75.65 -133 77.35 -132
M 66.8 -142.05
L 65.9 -142.5 64.2 -138.85 65.1 -138.4 66.8 -142.05
M 72.95 -139
L 72.05 -139.45 70.2 -135.95 71.05 -135.5 72.95 -139
M 39.1 -147.9
L 40.1 -147.65 41.15 -151.5 40.15 -151.75 39.1 -147.9
M 33.6 -149.3
L 34.5 -153.15 33.5 -153.35 32.6 -149.5 33.6 -149.3
M 27.55 -150.55
L 28.25 -154.45 26.25 -154.75 25.55 -150.85 27.55 -150.55
M 28.7 -156.6
Q 29.1 -155.85 29.9 -155.7 30.75 -155.55 31.3 -156.1 31.95 -156.7 32.25 -158.3 32.5 -159.9 32.1 -160.7 31.75 -161.3 30.9 -161.45 30.1 -161.6 29.55 -161.15 28.85 -160.55 28.6 -158.95 28.3 -157.3 28.7 -156.6
M 29.7 -158.75
Q 29.85 -159.7 30.05 -160.1 30.2 -160.4 30.35 -160.55 30.55 -160.6 30.75 -160.55 30.95 -160.55 31.05 -160.4 31.2 -160.25 31.25 -159.85 31.25 -159.45 31.1 -158.5 30.9 -157.5 30.75 -157.05 30.6 -156.8 30.4 -156.65 30.25 -156.6 30.05 -156.6 29.85 -156.65 29.7 -156.8 29.6 -156.95 29.55 -157.3 29.5 -157.75 29.7 -158.75
M 25.8 -161.5
Q 25.2 -161.15 24.75 -161.15
L 24.55 -160.15
Q 25.45 -160.25 26.1 -160.7
L 25.4 -156.65 26.5 -156.45 27.5 -162.1 26.6 -162.25
Q 26.35 -161.8 25.8 -161.5
M 20 -155.7
L 19.45 -151.75 20.45 -151.65 21 -155.6 20 -155.7
M 14.2 -156.35
L 13.2 -156.45 12.85 -152.45 13.85 -152.35 14.2 -156.35
M 6.35 -156.85
L 6.15 -152.85 7.15 -152.85 7.35 -156.85 6.35 -156.85
M 1 -153
L 1 -157 -1 -157 -1 -153 1 -153
M 2.5 -164.4
L 1.4 -164.4 1.4 -160.55 -0.95 -164.4 -2.05 -164.4 -2.05 -158.65 -1 -158.65 -1 -162.4 1.35 -158.65 2.5 -158.65 2.5 -164.4
M 59.55 -152.65
Q 59.3 -153.35 58.5 -153.65 57.75 -153.95 57.1 -153.55 56.3 -153.1 55.75 -151.55 55.2 -150 55.5 -149.2 55.75 -148.45 56.5 -148.15 57.3 -147.85 57.95 -148.25 58.7 -148.75 59.25 -150.25 59.8 -151.8 59.55 -152.65
M 58.5 -152.6
Q 58.6 -152.4 58.6 -152 58.55 -151.6 58.2 -150.65 57.85 -149.7 57.6 -149.35 57.4 -149.05 57.2 -149.05 57.05 -148.95 56.85 -149 56.7 -149.05 56.55 -149.25 56.45 -149.4 56.5 -149.8 56.5 -150.2 56.85 -151.15 57.2 -152.1 57.45 -152.45 57.65 -152.7 57.85 -152.8 58.05 -152.85 58.2 -152.8 58.4 -152.75 58.5 -152.6
M 54.35 -155.15
Q 53.6 -155.4 53.05 -155.25 52.4 -155 52 -154.2
L 53 -153.7
Q 53.15 -154.15 53.45 -154.3 53.7 -154.4 54 -154.3 54.35 -154.2 54.5 -153.9 54.55 -153.7 54.45 -153.35 54.35 -153 54 -152.75 53.8 -152.6 52.85 -152.2 51.7 -151.7 51.2 -151.35 50.75 -150.95 50.5 -150.45
L 54.1 -149.1 54.45 -150.05 52.4 -150.8
Q 52.55 -150.95 52.7 -151.05 52.9 -151.15 53.55 -151.4 54.2 -151.7 54.45 -151.85 54.9 -152.1 55.1 -152.35 55.4 -152.65 55.5 -153 55.75 -153.65 55.45 -154.25 55.15 -154.85 54.35 -155.15
M 47.7 -149.6
L 46.75 -149.9 45.5 -146.05 46.45 -145.8 47.7 -149.6
M 126.25 -104.4
Q 125.3 -104.4 124.05 -103.35 122.8 -102.3 122.65 -101.5 122.5 -100.7 123.05 -100.05 123.6 -99.45 124.3 -99.4 125.2 -99.45 126.45 -100.5 127.7 -101.55 127.9 -102.4 128.05 -103.2 127.5 -103.8 127 -104.45 126.25 -104.4
M 126 -103.35
Q 126.3 -103.45 126.5 -103.45 126.7 -103.35 126.8 -103.2 126.95 -103.05 126.95 -102.9 126.95 -102.7 126.7 -102.35 126.5 -102 125.7 -101.35 124.95 -100.7 124.55 -100.55 124.25 -100.45 124.05 -100.45 123.85 -100.45 123.7 -100.6 123.6 -100.75 123.6 -101 123.6 -101.2 123.8 -101.5 124.05 -101.8 124.8 -102.45 125.6 -103.1 126 -103.35
M 120.7 -104.55
Q 120.75 -104.85 121 -105.1
L 120.25 -105.9
Q 119.75 -105.35 119.7 -104.65 119.75 -104.05 120.25 -103.45 120.9 -102.65 121.8 -102.7 122.5 -102.8 123 -103.25 123.65 -103.8 123.8 -104.45 123.85 -105.2 123.4 -105.75 123.15 -106.05 122.75 -106.25
L 123.6 -106.7 124.95 -105.1 125.75 -105.8 123.9 -108.05 121.2 -106.55 121.7 -105.8
Q 122.25 -105.75 122.55 -105.4 122.75 -105.1 122.75 -104.75 122.7 -104.4 122.3 -104.05 121.9 -103.7 121.5 -103.7 121.1 -103.7 120.9 -103.95 120.7 -104.2 120.7 -104.55
M 119.6 -101.7
L 116.5 -99.1 117.8 -97.6 120.9 -100.2 119.6 -101.7
M 116.1 -105.7
L 115.35 -106.45 112.4 -103.75 113.1 -103.05 116.1 -105.7
M 111.35 -110.65
L 110.65 -111.35 107.8 -108.55 108.5 -107.8 111.35 -110.65
M 102.9 -113.15
L 103.7 -112.5 106.45 -115.45 105.65 -116.05 102.9 -113.15
M 97.55 -117.85
L 99.05 -116.55 101.65 -119.65 100.15 -120.95 97.55 -117.85
M 96 -124.25
L 95.15 -124.85 92.7 -121.7 93.5 -121.1 96 -124.25
M 90.45 -128.3
L 89.65 -128.9 87.35 -125.6 88.15 -125 90.45 -128.3
M 84.75 -132.15
L 83.9 -132.65 81.75 -129.3 82.6 -128.8 84.75 -132.15
M 81.2 -141.3
Q 81.45 -141.75 81.3 -142.35 81.15 -143 80.45 -143.45 80.05 -143.65 79.6 -143.65 79.2 -143.7 78.85 -143.55 78.5 -143.4 78.2 -143
L 78.95 -142.35
Q 79.2 -142.65 79.45 -142.75 79.7 -142.8 79.95 -142.65 80.2 -142.5 80.3 -142.25 80.35 -142.05 80.2 -141.8 80.05 -141.5 79.75 -141.45 79.4 -141.35 79.05 -141.6
L 78.5 -140.9
Q 78.8 -140.8 78.95 -140.7 79.25 -140.55 79.3 -140.2 79.4 -139.9 79.2 -139.55 78.95 -139.15 78.65 -139.05 78.3 -138.95 78 -139.1 77.7 -139.25 77.6 -139.6 77.5 -139.9 77.7 -140.25
L 76.7 -140.65
Q 76.45 -140 76.6 -139.35 76.85 -138.7 77.55 -138.3 78.25 -137.9 79 -138.1 79.75 -138.3 80.1 -138.95 80.35 -139.4 80.3 -139.85 80.25 -140.3 79.85 -140.65 80.8 -140.65 81.2 -141.3
M 85.2 -139.95
Q 85.05 -140.75 84.35 -141.15 83.65 -141.55 82.95 -141.25 82.1 -140.95 81.25 -139.55 80.45 -138.15 80.55 -137.3 80.7 -136.45 81.4 -136.05 82.1 -135.65 82.8 -135.9 83.65 -136.25 84.45 -137.65 85.3 -139.05 85.2 -139.95
M 84.1 -140.05
Q 84.2 -139.85 84.1 -139.5 83.95 -139.1 83.45 -138.25 82.95 -137.35 82.65 -137.05 82.45 -136.8 82.2 -136.75 82 -136.75 81.85 -136.85 81.7 -136.95 81.6 -137.15 81.55 -137.3 81.6 -137.7 81.75 -138.05 82.25 -138.95 82.75 -139.8 83.1 -140.15 83.3 -140.35 83.5 -140.45 83.7 -140.45 83.85 -140.35 84 -140.25 84.1 -140.05
M 105.2 -126.35
L 104.5 -126.95 100.25 -125.75 99.65 -125.05 101.45 -123.55 100.7 -122.65 101.5 -121.95 102.25 -122.85 102.8 -122.4 103.4 -123.1 102.85 -123.55 105.2 -126.35
M 103.3 -125.75
L 102.05 -124.25 101.05 -125.1 103.3 -125.75
M 107.6 -124.4
Q 106.95 -124.9 106.2 -124.75 105.3 -124.6 104.25 -123.35 103.2 -122.1 103.2 -121.25 103.2 -120.5 103.85 -119.95 104.45 -119.4 105.2 -119.5 106.05 -119.7 107.1 -120.95 108.15 -122.2 108.2 -123.1 108.2 -123.85 107.6 -124.4
M 107.2 -123.35
Q 107.2 -123.15 107.05 -122.8 106.9 -122.5 106.25 -121.7 105.6 -120.95 105.25 -120.65 104.95 -120.45 104.75 -120.45 104.55 -120.45 104.4 -120.6 104.25 -120.7 104.2 -120.9 104.2 -121.1 104.3 -121.5 104.5 -121.85 105.15 -122.6 105.8 -123.4 106.15 -123.6 106.45 -123.8 106.65 -123.8 106.85 -123.8 107 -123.7 107.15 -123.55 107.2 -123.35 Z"/>
</g>

<g id="Mask_6_MASK_0_FILL">
<path fill="#FFFFFF" stroke="none" d="
M 65 220
L 62 220
Q 62 285.45 108.25 331.7
L 108.25 331.7 110.35 329.6 110.35 329.6
Q 65 284.2 65 220
M 378 220
L 375 220
Q 375 284.2 329.6 329.6
L 331.7 331.7
Q 378 285.45 378 220 Z"/>
</g>

<g id="jauge_r_0_Layer0_0_FILL">
<path fill="#000000" stroke="none" d="
M 6.6 0
L 0 0 4.65 4.65
Q 6.6 2.75 6.6 0
M 160 0
L 150 0
Q 150 62.15 106.05 106.05
L 113.15 113.15
Q 160 66.3 160 0 Z"/>
</g>

<g id="jauge_l_0_Layer0_0_FILL">
<path fill="#000000" stroke="none" d="
M -150 0
L -160 0
Q -160 66.3 -113.15 113.15
L -106.05 106.1 -106.1 106.05
Q -150 62.15 -150 0
M -6.6 0
Q -6.6 2.75 -4.65 4.65
L 0 0 -6.6 0 Z"/>
</g>

<g id="Layer3_0_FILL">
<path fill="#000000" stroke="none" d="
M 81.8 273.35
L 82.25 272.4 79.45 271.15 80.75 268.4 79.9 267.95 78.15 271.65 81.8 273.35
M 359.25 268.4
L 360.55 271.15 357.75 272.4 358.2 273.35 361.85 271.65 360.1 267.95 359.25 268.4
M 217.85 72.6
L 220 70.45 222.15 72.6 222.85 71.9 220 69.05 217.15 71.9 217.85 72.6
M 92.75 366.4
Q 93.4 366.95 94.2 366.9 95 366.85 95.55 366.2 96.1 365.55 96.1 364.75 96 363.95 95.35 363.4 94.7 362.85 93.95 362.9 93.1 362.95 92.55 363.6 92 364.25 92.05 365.05 92.1 365.85 92.75 366.4
M 113.95 333.7
Q 113.6 333.4 113.25 333.45 112.8 333.45 112.5 333.75 112.2 334.1 112.3 334.45 112.25 334.9 112.6 335.2 112.9 335.45 113.3 335.45 113.7 335.5 114 335.15 114.3 334.85 114.25 334.45 114.25 333.95 113.95 333.7
M 9 220
Q 9 220.85 9.6 221.45 10.15 222 11 222 11.85 222 12.45 221.45 13 220.85 13 220 13 219.15 12.45 218.6 11.85 218 11 218 10.15 218 9.6 218.6 9 219.15 9 220
M 61 220
L 60 220
Q 60 286.3 106.85 333.15
L 107.55 332.4 107.55 332.4
Q 61 285.9 61 220
M 132.1 94.45
L 131.5 93.65
Q 120.8767578125 101.3232421875 111.1 111.1 66 156.2 66 220 66 283.8 111.1 328.9
L 111.8 328.2
Q 67 283.4 67 220 67 156.6 111.8 111.8 121.5138671875 102.0861328125 132.1 94.45
M 92.75 73.6
Q 92.1 74.15 92 75 92 75.75 92.55 76.4 93.1 77.05 93.9 77.15 94.7 77.15 95.35 76.6 96 76.05 96.05 75.3 96.1 74.45 95.55 73.8 95 73.15 94.15 73.15 93.4 73.05 92.75 73.6
M 347.25 366.4
Q 347.9 365.85 348 365 348 364.25 347.45 363.6 347.055078125 363.133203125 346.5 362.95 346.3255859375 362.878125 346.1 362.85 345.758984375 362.85 345.45 362.95 345.0228515625 363.084375 344.65 363.4 344 363.95 343.95 364.7 343.9 365.55 344.45 366.2 345 366.85 345.85 366.85 346.6 366.95 347.25 366.4
M 327.5 333.75
Q 327.2 333.45 326.75 333.45 326.35 333.45 326.05 333.7 325.7 334 325.75 334.45 325.7 334.85 326 335.15 326.3 335.5 326.7 335.45 327.05 335.5 327.4 335.2 327.7 334.95 327.7 334.45 327.8 334.1 327.5 333.75
M 328.2 328.2
L 328.9 328.9
Q 374 283.8 374 220 374 156.2 328.9 111.1 319.0763671875 101.2763671875 308.35 93.6
L 307.8 94.4
Q 318.4423828125 102.0423828125 328.2 111.8 373 156.6 373 220 373 283.4 328.2 328.2
M 380 220
L 379 220
Q 379 285.9 332.4 332.4
L 333.15 333.15
Q 380 286.3 380 220
M 431 220
Q 431 219.15 430.4 218.55 429.85 218 429 218 428.15 218 427.55 218.55 427 219.15 427 220 427 220.85 427.55 221.4 428.15 222 429 222 429.85 222 430.4 221.4 431 220.85 431 220
M 347.25 73.6
Q 346.6 73.05 345.8 73.1 345 73.15 344.45 73.8 343.9 74.45 343.9 75.25 344 76.05 344.65 76.6 345.3 77.15 346.05 77.1 346.9 77.05 347.45 76.4 348 75.75 347.95 74.95 347.9 74.15 347.25 73.6 Z"/>
</g>
</defs>

<mask id="Mask_Mask_1">
<g transform="matrix( 1, 0, 0, 1, 0,0) ">
<use xlink:href="#Mask_8_MASK_0_FILL"/>
</g>
</mask>

<g mask="url(#Mask_Mask_1)">
<g transform="matrix( 1, 0, 0, 1, 220,220) ">
<g transform="matrix( 1, 0, 0, 1, 0,0) ">
<use xlink:href="#Symbole_2_0_Layer0_0_FILL"/>
</g>
</g>
</g>

<mask id="Mask_Mask_2">
<g transform="matrix( 1, 0, 0, 1, 0,0) ">
<use xlink:href="#Mask_6_MASK_0_FILL"/>
</g>
</mask>

<g mask="url(#Mask_Mask_2)">
<g transform="matrix( 1, 0, 0, 1, 220,220) ">
<g transform="matrix( 1, 0, 0, 1, 0,0) ">
<use xlink:href="#jauge_r_0_Layer0_0_FILL"/>
</g>
</g>
</g>

<g mask="url(#Mask_Mask_2)">
<g transform="matrix( 1, 0, 0, 1, 220,220) ">
<g transform="matrix( 1, 0, 0, 1, 0,0) ">
<use xlink:href="#jauge_l_0_Layer0_0_FILL"/>
</g>
</g>
</g>

<g transform="matrix( 1, 0, 0, 1, 0,0) ">
<use xlink:href="#Layer3_0_FILL"/>
</g>
</svg>
