
<svg xmlns="http://www.w3.org/2000/svg" version="1.1" xmlns:xlink="http://www.w3.org/1999/xlink" preserveAspectRatio="none" x="0px" y="0px" width="300px" height="300px" viewBox="0 0 300 300">
<defs>
<linearGradient id="Gradient_1" gradientUnits="userSpaceOnUse" x1="0" y1="1" x2="300" y2="1" spreadMethod="pad">
<stop  offset="0%" stop-color="#FFFFFF" stop-opacity="0"/>

<stop  offset="50.19607843137255%" stop-color="#FFFFFF"/>

<stop  offset="100%" stop-color="#FFFFFF" stop-opacity="0"/>
</linearGradient>

<linearGradient id="Gradient_2" gradientUnits="userSpaceOnUse" x1="0" y1="101" x2="300" y2="101" spreadMethod="pad">
<stop  offset="0%" stop-color="#FFFFFF" stop-opacity="0"/>

<stop  offset="50.19607843137255%" stop-color="#FFFFFF"/>

<stop  offset="100%" stop-color="#FFFFFF" stop-opacity="0"/>
</linearGradient>

<g id="Layer3_0_MEMBER_0_MEMBER_0_MEMBER_0_MEMBER_0_FILL">
<path fill="#FFFFFF" fill-opacity="0.30196078431372547" stroke="none" d="
M 21.15 239.4
Q 30.7 239.4 38.3 240.8 32.1 246.95 29.2 250 25.95 253.45 21.6 259.6 19.35 262.95 18.2 264.85
L 18.75 266.25
Q 20.4 266.15 22.3 266.2 26.85 266.2 33.3 266.9 41.6 267.8 46.6 268.55 42.55 273.9 36.5 283.6 34.25 287.2 31.35 292.2
L 32.1 293.8 37.55 286.05
Q 43.15 278 47.2 271.7 50.6 266.35 60.4 257.8 65.25 253.55 69.45 250.4 64.45 248.05 59.05 245.85 47.05 241 40.35 239.75 33.45 238.5 22.4 238.25 16.45 238.15 12.8 238.3
L 13.3 239.75
Q 16.15 239.5 21.15 239.4
M 41.4 241.45
Q 50.35 243.5 60.1 247.25 64.8 249.1 67.8 250.55 65.9 251.8 61.2 255.15 54.1 260.35 49.8 264.75
L 49.2 265.4 45.15 253.45
Q 43.2 247.45 41.4 241.45
M 33.9 265.15
Q 29.3 264.65 24 264.5
L 20 264.45 23.5 259.6
Q 27.55 254.2 30.35 251.25
L 39.35 241.9 47.55 266.9
Q 41.05 265.95 33.9 265.15 Z"/>
</g>

<g id="Layer3_0_MEMBER_1_MEMBER_0_MEMBER_0_MEMBER_0_FILL">
<path fill="#FFFFFF" stroke="none" d="
M 60.8 245.5
Q 52.2 242.05 44.55 240.15 35.1 237.75 22.2 237.6 10.45 237.4 5 238.95
L 31.3 295.65 31.6 295.7
Q 31.9 295.25 31.95 295.2 33.6 293.45 35.7 290.9 37.2 289 39.1 286.3 40.65 284.2 42.6 280.8
L 45.75 275.1
Q 48.7 269.45 54.9 263.3 57.95 260.3 60.85 257.95
L 70.8 250.85
Q 69.15 248.9 60.8 245.5
M 52.05 243.6
L 52.2 243.35 64.5 248.15 60.6 249.05
Q 60.25 249.15 60.05 249
L 52.15 243.75 52.05 243.6
M 20.3 267.4
L 20.45 267.25
Q 31.4 271.35 41.7 277.3 40.3 280.35 36.95 285.35 33.65 290.4 31.85 292.1
L 20.3 267.4
M 52.5 258.1
Q 54.7 256 57 254.15
L 47.9 267.85 48.3 262.75
Q 48.3 262.6 48.45 262.35 50.5 260.1 52.5 258.1
M 8 240.5
L 10.75 240.7
Q 18.15 241.8 24.45 244.85 24.9 245.1 24.95 245.3 25 245.5 24.95 245.95 22.85 254.4 18.35 263
L 8 240.5
M 17.7 239.75
L 14.85 239
Q 16.9 238.55 24.9 238.9 33.15 239.2 34.5 239.75 31 240.55 26.95 242.85 26.5 243.1 26.2 242.95
L 20.55 240.65
Q 19.6 240.25 17.7 239.75
M 28.65 247.45
L 28.9 247.3 32.25 249.55
Q 36.65 252.65 41.25 257.15 43.85 259.9 45.35 261.6 45.75 262 45.75 262.6 45.95 265.45 44.8 269.5
L 43.05 274.55 42.7 274.55 28.65 247.45
M 36.5 240.85
Q 38.25 240.5 39.8 240.55 40.6 240.65 42.25 241.15 48.95 243.1 55.5 247.55
L 55.7 247.85
Q 43.7 244.25 30.15 243.3
L 33.3 241.8
Q 35 241.15 36.5 240.85
M 25.35 252.05
L 26.85 247.8 40.7 274.45
Q 30.05 268.4 19.95 264.8
L 23.8 256.3
Q 24.65 254.25 25.35 252.05
M 60.9 252
Q 63.2 250.65 64.8 250.45 66.45 250.3 67.85 250.85
L 57.3 259 60.9 252
M 58.1 250.2
Q 55 252 52.15 254.6 49.85 256.55 47.1 259.45
L 43.1 255.6
Q 41.2 253.8 39.1 251.95
L 30.65 245.2
Q 45 245.95 58.1 250.2
M 73.75 275.45
Q 73.55 275.2 73.15 275.2
L 70.5 275.2 70.5 273
Q 70.5 272.55 70.2 272.3 69.9 272 69.45 272 69.05 272 68.8 272.3 68.5 272.55 68.5 273
L 68.5 275.2 67.05 275.2
Q 66.7 275.2 66.5 275.45 66.25 275.7 66.25 276.05 66.25 276.35 66.5 276.6 66.7 276.85 67.05 276.85
L 68.5 276.85 68.5 283.4
Q 68.6 284.7 68.7 285.1 68.9 285.95 69.5 286.45 70.9 287.5 73.15 286.8 73.45 286.75 73.6 286.4 73.75 286.1 73.65 285.75 73.5 285.45 73.2 285.3 72.95 285.15 72.6 285.25 71.8 285.45 71.65 285.4 71.4 285.4 71 285 70.7 284.75 70.6 284.2 70.5 283.8 70.5 283.1
L 70.5 276.85 73.15 276.85
Q 73.55 276.85 73.75 276.6 74 276.35 74 276.05 74 275.7 73.75 275.45
M 124.5 284.5
Q 124.05 284.05 123.45 284.05 122.85 284.05 122.4 284.5 121.95 284.95 121.95 285.55 121.95 286.15 122.4 286.6 122.85 287.05 123.45 287.05 124.05 287.05 124.5 286.6 124.95 286.15 124.95 285.55 124.95 284.95 124.5 284.5
M 128.9 275.5
Q 128.6 275.75 128.6 276.2
L 128.6 287 128.5 288.2
Q 128.45 288.75 128.2 289.15 128 289.4 127.7 289.5 127.5 289.6 126.95 289.5 126.6 289.4 126.3 289.55 125.95 289.7 125.9 290 125.75 290.35 125.9 290.65 126.05 290.95 126.4 291.1 127.4 291.25 128.1 291.15 128.9 291.1 129.6 290.45 130.25 289.8 130.45 288.9 130.6 287.7 130.6 287
L 130.6 276.2
Q 130.6 275.75 130.3 275.5 130 275.2 129.6 275.2 129.2 275.2 128.9 275.5
M 140.5 276.15
Q 140.35 275.85 140 275.75
L 139.25 275.4
Q 138.45 275.2 137.7 275.2 136.65 275.15 135.65 275.5 134.2 276.1 133.8 277.55 133.4 279.1 134.2 280.1 134.8 280.9 136.4 281.6
L 138.2 282.35
Q 139.1 282.9 139.1 283.75 139.1 285.35 137.2 285.4 136.2 285.5 135.5 285.25
L 134.5 284.8
Q 134.15 284.7 133.85 284.85 133.5 285 133.45 285.3 133.3 285.65 133.45 285.95 133.6 286.25 133.95 286.4 135.1 287.05 136.9 287.05 138.6 287.1 139.7 286.3 141.05 285.4 141.05 283.65 141.15 282.05 139.75 281.15 139.1 280.75 137.3 280.05 135.2 279.2 135.65 277.85 135.8 277.25 136.3 277 136.6 276.85 137.15 276.85 138.1 276.85 138.7 277
L 139.45 277.3
Q 139.75 277.45 140.05 277.3 140.4 277.15 140.5 276.8 140.65 276.5 140.5 276.15
M 130.45 271.3
Q 130.1 270.95 129.6 270.95 129.1 270.95 128.8 271.3 128.45 271.6 128.45 272.1 128.45 272.6 128.8 272.95 129.1 273.25 129.6 273.25 130.1 273.25 130.45 272.95 130.75 272.6 130.75 272.1 130.75 271.6 130.45 271.3
M 118.4 281.5
Q 118.8 281.5 118.95 281.3 119.25 280.95 119.15 280.05 119.1 278.05 117.65 276.6 116.25 275.2 114.25 275.2 112.15 275.2 110.7 276.7 109.2 278.35 109.2 281 109.2 284.2 110.7 285.75 111.95 287.05 114.25 287.05 115.4 287.15 116.4 286.9 116.75 286.85 118.1 286.4 118.45 286.35 118.6 286 118.75 285.65 118.6 285.35 118.55 285 118.2 284.85 117.9 284.7 117.55 284.85
L 115.6 285.35
Q 114.2 285.6 113 285.1 111.95 284.6 111.6 283.65 111.4 282.95 111.3 281.5
L 118.4 281.5
M 114.25 276.75
Q 115.6 276.75 116.4 277.8 117.2 278.75 117.2 280.05
L 111.25 280.05
Q 111.25 278.75 112.05 277.8 112.9 276.75 114.25 276.75
M 82.05 277
Q 82.95 277.35 83.3 278.3 83.5 278.95 83.55 280.2
L 83.55 286.05
Q 83.55 286.55 83.85 286.75 84.15 287.05 84.55 287.05 84.95 287.05 85.25 286.75 85.55 286.55 85.55 286.05
L 85.55 279.95
Q 85.5 278.1 85.15 277.3 84.6 275.9 83.2 275.45 81.7 274.85 80.35 275.45 79.5 275.8 78.2 276.95
L 78.2 270.6
Q 78.2 270.2 77.9 269.9 77.7 269.6 77.2 269.6 76.8 269.6 76.5 269.9 76.2 270.2 76.2 270.6
L 76.2 286.05
Q 76.2 286.55 76.5 286.75 76.8 287.05 77.2 287.05 77.7 287.05 77.9 286.75 78.2 286.55 78.2 286.05
L 78.2 278.95
Q 79.55 277.6 80 277.3 81.05 276.65 82.05 277
M 99.4 283.65
Q 99.15 283.05 99.05 281.5
L 106.15 281.5
Q 106.55 281.5 106.75 281.3 106.95 280.95 106.95 280.05 106.8 278.05 105.45 276.6 104.05 275.2 102 275.2 99.9 275.2 98.45 276.7 96.95 278.35 96.95 281 96.95 284.2 98.45 285.75 99.7 287.05 102 287.05 103.2 287.15 104.15 286.9
L 105.9 286.4
Q 106.2 286.35 106.35 286 106.5 285.65 106.35 285.35 106.3 285 105.95 284.85 105.65 284.7 105.3 284.85
L 103.35 285.35
Q 101.95 285.6 100.75 285.1 99.75 284.65 99.4 283.65
M 99 280.05
Q 99 278.85 99.8 277.8 100.65 276.75 102 276.75 103.3 276.75 104.2 277.8 104.95 278.8 104.95 280.05
L 99 280.05
M 95.4 276.6
Q 95.55 276.15 95.35 275.8 95.2 275.45 94.8 275.3 93.7 275 92.85 275.4 92.5 275.55 91.85 276.1
L 91.1 277 91.1 276.2
Q 91.1 275.75 90.8 275.5 90.6 275.2 90.1 275.2 89.7 275.2 89.4 275.5 89.1 275.75 89.1 276.2
L 89.1 286.05
Q 89.1 286.55 89.4 286.75 89.7 287.05 90.1 287.05 90.6 287.05 90.8 286.75 91.1 286.55 91.1 286.05
L 91.1 279.4
Q 92.05 278.05 92.4 277.7 93.15 276.9 94.1 277.2 94.45 277.3 94.9 277.15 95.25 277 95.4 276.6 Z"/>
</g>

<g id="Layer3_1_MEMBER_0_MEMBER_0_MEMBER_0_MEMBER_0_FILL">
<path fill="#FFFFFF" fill-opacity="0.30196078431372547" stroke="none" d="
M 185.15 243.3
L 183.35 242.05 181.9 241.35
Q 184.95 243.2 186.25 245.2
L 187.8 245.15
Q 188.2 245.15 188.45 245.25
L 191.15 245 192.85 245.35 192.7 244.95 189.7 244.95 188.3 244.8
Q 187.35 244.65 187 244.45 186.35 244.15 185.15 243.3
M 176.6 247.45
L 177.15 247 176.8 246.45
Q 174.85 248.4 174.4 252.95
L 174.55 261.55
Q 170.95 260.5 168.35 256.5 165.75 252.6 166.15 248.5
L 166.15 248.4
Q 164.85 259.1 174.7 262.8 175.3 267.35 177.95 270.6 180.6 274.25 183.95 276 187.35 277.9 191.75 278.1 187.4 283.35 181.55 286.2 177.7 288.1 173.45 288.95
L 174.45 288.9
Q 182.8 288.25 195.4 278.55 198.2 278.55 201.25 276.9 207.15 279.6 210.1 284.5 213 289.45 217.45 289.5 213.85 288.4 214 286.9 216.2 288.6 219 289.65
L 219.05 289.65
Q 219.55 289.5 220.45 289.6
L 221.75 289.75
Q 223.75 290 224.5 290
L 224.9 290
Q 215.5 287.15 213.15 282.8
L 211.35 281.85
Q 209.1 280.5 207.6 278.85 206.4 277.65 204.7 276.5
L 201.3 274.25
Q 202.15 273.6 204.2 271.7 205.9 270.15 207.4 269.6 208.8 269.05 211.05 269.05
L 214.9 269.05 214.9 269.55 213.6 270 214.35 270.5
Q 219.1 269.55 220.55 266.8 221.5 265.2 221.25 263 228.05 257.6 229.2 248.95
L 229.3 248.3 229.1 249
Q 228.35 251.8 227.1 253.8 224 258.95 220.35 261.5 218.4 257.1 213.5 253.05 211.3 251.55 209.15 250.85
L 209.1 250.85 209.15 250.9
Q 209.45 251.35 209.65 251.55
L 209.65 251.6
Q 212.2 253 213.6 254.1 215.6 255.7 216.7 257.55
L 218.1 259.75 218.4 260.1 218.65 260.6
Q 219.35 262 219.35 263.7
L 219.35 264.95
Q 218.95 265.85 218.1 266.45
L 218.05 266.45
Q 217.45 266.9 216.7 267.05 215 267.35 212.5 266.3
L 212.55 265.6 211.6 265.45 211.55 265.95
Q 211.55 266.1 210.95 266.25
L 209.9 266.45
Q 204.9 266.85 202.45 269.15
L 201.1 268.25 201.05 268.25 199.95 269.05
Q 200.4 269.5 201.25 270.7 198.65 273.1 196.6 274 193.95 275.25 191.1 274.8
L 193.25 272.5 192.35 272.3 190.25 274.25 189.65 274.65
Q 189.25 274.8 189.05 274.75 186.25 273.8 182.75 272.65 183.7 270.95 185.2 269.15
L 184.5 268.6
Q 183.3 270 181.9 272
L 178.05 267
Q 177.65 266.45 177.65 265.85 177.65 265.4 178.15 264.65
L 179.75 262.6 179.5 262.05 178.6 263.2
Q 178.45 263.35 177.95 264.15
L 177.25 265.35
Q 176.05 262 175.9 261 175.6 258.8 177.05 257.05
L 177.8 256.35 177.7 255.75 176.85 256.55 176.2 257.45
Q 176.05 257.65 175.5 258.5 175.25 255.4 175.4 253.2 175.55 250.35 176.2 248.05 176.3 247.7 176.6 247.45
M 217.95 280.1
Q 218.15 279.95 218.15 279.65 218.15 279.4 217.95 279.25 217.8 279.05 217.5 279.05 217.2 279.05 217 279.25 216.85 279.4 216.85 279.65 216.85 279.95 217 280.1 217.25 280.25 217.5 280.25 217.8 280.25 217.95 280.1 Z"/>
</g>

<g id="Layer3_1_MEMBER_1_MEMBER_0_MEMBER_0_MEMBER_0_FILL">
<path fill="#FFFFFF" stroke="none" d="
M 207.4 269.6
Q 205.9 270.15 204.2 271.7 202.15 273.6 201.3 274.25
L 204.7 276.5
Q 206.4 277.65 207.6 278.85 209.1 280.5 211.35 281.85
L 215.5 283.95
Q 217.6 284.95 218.95 284.55 220.15 284.25 221.9 282.25 222.45 281.65 223.5 280.95
L 225.35 279.65
Q 224.85 276.15 221.4 274.2
L 222.75 274.7
Q 224.8 275.85 226.75 279.5 228.8 283.3 228.65 285.75 228.6 288.1 227.65 289.1 226.75 290 224.9 290
L 224.5 290
Q 223.75 290 221.75 289.75
L 220.45 289.6
Q 219.55 289.5 219.05 289.65
L 222.8 290.4
Q 225.05 290.85 226.6 291 227.65 291.15 228.55 289.9 229.55 288.7 229.6 287.2 229.9 284.3 228.95 280.95 228.3 278.8 226.7 275.2 226.5 274.8 225.65 274.4
L 219.9 272.55
Q 216.95 271.7 215.6 271.2 215.25 271.15 214.65 270.7
L 213.6 270 214.9 269.55 214.9 269.05 211.05 269.05
Q 208.8 269.05 207.4 269.6
M 214.85 281.25
Q 214.3 280.1 214.75 278.9 215.05 277.8 216.1 277.2 217.2 276.65 218.3 277.15 219.55 277.6 220.4 278.85 221.05 279.65 221.05 280.7 220.95 281.7 220.25 282.5 219.4 283.4 218.55 283.55 217.65 283.7 216.75 282.95 215.4 282.35 214.85 281.25
M 213.45 280.15
Q 213.5 280.2 213.4 280.65
L 213.15 281.15 210.5 279.4
Q 210.45 279.3 210.5 279.15
L 210.5 278.75
Q 211.55 278.4 212.3 278.85 212.9 279.1 213.45 280.15
M 210.65 277.35
Q 209.95 276.85 210.1 275.1
L 213 277.45
Q 211.3 277.9 210.65 277.35
M 209.05 276.25
Q 209.5 276.65 209.65 277.75 208.55 277.9 208.1 277.55 207.65 277.2 207.5 276.05 208.55 275.9 209.05 276.25
M 215.2 279.2
Q 214.9 280.1 215.4 281.05 215.8 281.85 216.9 282.35 217.95 282.8 218.9 282.45 219.85 282.15 220.15 281.25 220.55 280.35 220 279.45 219.55 278.6 218.5 278.1 217.45 277.7 216.5 278 215.6 278.35 215.2 279.2
M 217.5 280.45
Q 217 280.45 216.75 280.25 216.45 280.05 216.45 279.65 216.45 279.35 216.75 279.1 217.1 278.85 217.5 278.85 217.9 278.85 218.25 279.1 218.55 279.35 218.55 279.65 218.55 280.05 218.25 280.25 218 280.45 217.5 280.45
M 216.25 258.35
Q 215.3 257.95 212.95 257.35
L 209.55 256.55
Q 209.55 259.45 210.7 261.05 211.8 262.5 214.2 262.9
L 219.3 264.3
Q 219.45 262.15 218.65 260.6 217.85 258.95 216.25 258.35
M 200.55 263.05
Q 199.4 263.4 199.15 265 198.95 266.5 199.9 267.4
L 202.45 269.15
Q 204.9 266.85 209.9 266.45
L 210.95 266.25
Q 211.55 266.1 211.55 265.95 211.85 263.8 211.4 262.95 210.75 261.75 209.85 261.25 208.8 260.65 207.6 260.95 203.25 262.1 200.55 263.05
M 198.05 265.45
Q 198.15 263.7 197.6 263 196.3 261.4 195.35 261.25 194.3 261.15 192.7 262.35 189.7 264.45 186.9 267.25 184.4 269.8 182.75 272.65 186.25 273.8 189.05 274.75 189.25 274.8 189.65 274.65
L 190.25 274.25 197.35 267.75
Q 198 267.2 198.05 265.45
M 188.75 251.45
Q 188.45 250.95 187.75 250.85
L 183.8 250.75 177.05 257.05
Q 175.6 258.8 175.9 261 176.05 262 177.25 265.35
L 177.95 264.15
Q 178.45 263.35 178.6 263.2 182.4 258.25 188.1 254.5 188.75 254.1 188.85 253.8 189.15 253.4 189 252.7 188.95 251.8 188.75 251.45
M 197.7 246.3
L 197.75 246.25 196.3 247.25 203.35 250.2 203.7 251
Q 206.35 250.2 209.1 250.85 208.8 250.45 208.6 250.4
L 197.7 246.3
M 183.35 242.05
L 185.15 243.3
Q 186.35 244.15 187 244.45 187.35 244.65 188.3 244.8
L 189.7 244.95 192.7 244.95
Q 191.8 242.45 187.95 241.2 184 239.9 181.9 241.35
L 183.35 242.05
M 177.15 247
L 176.6 247.45
Q 176.3 247.7 176.2 248.05 175.55 250.35 175.4 253.2 175.25 255.4 175.5 258.5 176.05 257.65 176.2 257.45
L 176.85 256.55 183.45 250.4 184.2 249.4
Q 184.2 249.15 183.6 247.85
L 186.7 246.2 189.75 245.85 188.8 245.4
Q 188.3 245.15 187.8 245.15 183.55 245.25 178.1 245.65 177.85 245.65 177.45 245.95
L 176.8 246.45 177.15 247
M 229.9 242.1
Q 229.45 240.8 229 240.65 228.75 240.55 228.3 240.85
L 227.4 241.4
Q 228.4 242.9 227.6 243.25 226.25 243.6 225.95 243.9
L 227.15 245.5 224.2 246.5 224.8 248.35 221.6 249.1 222.15 251.05 220.15 251.35
Q 219.55 251.35 219.15 251.25
L 218.2 251.15 218.65 253.4
Q 217.75 253.4 217.5 253.45
L 216.35 253.35 215 253.05
Q 214.3 252.9 213.7 253
L 220.35 261.5
Q 224 258.95 227.1 253.8 228.35 251.8 229.1 249 229.8 246.55 230.05 243.85 230.15 243.25 229.9 242.1
M 156.6 287.15
Q 155.4 287.4 154.95 288.65 158.25 290.05 162.25 290.1 165.1 290.2 169.6 289.6 176.45 288.75 181.55 286.2 187.4 283.35 191.75 278.1 187.35 277.9 183.95 276 180.6 274.25 177.95 270.6 177.3 271.5 177.05 272.55 176.9 273.4 176.9 274.7
L 176.75 276.6 176 276.3
Q 175.6 276.2 175.25 275.95
L 174.85 275.55 174.3 274.7 173.55 277.35 173.2 279.65 170.95 278.5 170.2 280.1 169.55 282.3 167.55 280.9 165.95 283.7 164.4 282.55
Q 163.3 284.1 162.55 284.55 161.3 285.35 159.95 283.75
L 159.75 285.8
Q 159.5 286.5 158.6 286.85 158.35 287 157.6 287.1
L 156.6 287.15
M 216.7 267.05
Q 218.45 266.65 219.35 264.95
L 212.7 263.25 212.5 266.3
Q 215 267.35 216.7 267.05
M 216.7 257.55
Q 215.6 255.7 213.6 254.1 212.2 253 209.65 251.6
L 209.65 251.55
Q 205.45 251 204.1 251.95 204.55 252.85 204.95 253.25 205.55 253.85 206.75 254.65
L 208.7 255.9
Q 209.15 256.25 209.65 256.35
L 216.7 257.55
M 201.25 270.7
Q 199.85 268.65 199 268.4 198.2 268.25 196.35 269.65 194 271.55 191.1 274.8 193.95 275.25 196.6 274 198.65 273.1 201.25 270.7
M 195.75 255.95
Q 194.85 256.25 194.9 257.85 194.9 259.35 195.8 260.1
L 198.55 262.15
Q 198.65 262.25 199 262.35
L 199.55 262.3 208.8 259.35
Q 209.25 256.95 207.3 255.2 205.5 253.7 203.4 253.85 201.8 254 199.6 254.6
L 195.75 255.95
M 194.65 255.05
Q 196.3 255 198.55 253.85 199.4 253.4 200.85 253.15
L 203.35 252.75
Q 202.7 250.85 201 249.6 199.35 248.4 197.35 248.65 195.95 248.8 194.05 249.4
L 190.8 250.55
Q 190.45 250.7 190.05 251.3 189.7 252 189.65 252.4 189.65 252.6 190.15 253.05
L 191 253.65
Q 192.7 255.05 194.65 255.05
M 194.1 258.35
Q 194.05 256.5 193.3 255.9 191.65 254.4 190.45 254.4 189.35 254.35 187.4 255.65 181.8 259.65 178.15 264.65 177.65 265.4 177.65 265.85 177.65 266.45 178.05 267
L 181.9 272
Q 186.35 265.45 193.45 260.7 194.2 260.25 194.1 258.35
M 190.15 245.95
L 186.65 246.45 184.45 248
Q 184.45 248.85 184.9 249.3 185.3 249.7 186.25 250.05 187.8 250.55 189.3 250.35 190.55 250.2 192.25 249.25 193 248.8 194.3 248.5
L 196.6 248 195.3 246.65 190.15 245.95
M 190.1 245.8
L 190.7 245.85 195.3 246.6 197.6 246.25 191.15 245 190.1 245.8
M 167.5 246.6
Q 166.65 246.6 166.35 247.25 166.25 247.45 166.15 248.5 165.75 252.6 168.35 256.5 170.95 260.5 174.55 261.55
L 174.4 252.95
Q 171.85 252.85 170.2 250.85 169.7 250.3 167.5 246.6
M 282.15 279.6
Q 282 280.9 282.15 281.95 282.5 283.75 282.9 284.6 283.6 285.95 284.95 286.45 286.55 287 287.8 286.45 288.65 286.05 289.95 284.9
L 289.95 285.75
Q 289.95 286.15 290.25 286.45 290.5 286.7 290.9 286.7 291.3 286.7 291.65 286.45 291.9 286.1 291.9 285.75
L 291.9 270.3
Q 291.9 269.9 291.65 269.65 291.35 269.35 290.9 269.35 290.5 269.35 290.25 269.65 289.95 269.9 289.95 270.3
L 289.95 276.6
Q 288.55 275.45 287.8 275.1 286.45 274.55 284.95 275.1 283.55 275.65 282.9 276.95 282.55 277.7 282.15 279.6
M 284.75 277.95
Q 285.25 277.05 286.15 276.65 287.15 276.25 288.2 276.95 288.9 277.45 289.95 278.6
L 289.95 282.9
Q 288.85 284.15 288.2 284.55 287.15 285.25 286.15 284.85 285.3 284.55 284.75 283.6 284.45 282.95 284.15 281.7 284 280.9 284.15 279.85 284.45 278.45 284.75 277.95
M 243.25 276.45
Q 243.35 276.15 243.25 275.85 243.1 275.6 242.75 275.4
L 242 275.1
Q 241.2 274.9 240.45 274.9 239.4 274.85 238.45 275.2 236.95 275.8 236.6 277.2 236.25 278.65 236.95 279.75 237.65 280.6 239.2 281.25 240.8 281.85 240.95 282 241.9 282.55 241.9 283.35 241.85 284.95 240 285 239 285.1 238.25 284.85
L 237.3 284.4
Q 236.95 284.3 236.65 284.45 236.3 284.6 236.25 284.9 236.1 285.25 236.25 285.55 236.4 285.9 236.75 285.95 237.85 286.65 239.7 286.65 241.35 286.65 242.45 285.9 243.75 285 243.8 283.25 243.9 281.65 242.5 280.75
L 240.1 279.7
Q 238 278.9 238.4 277.5 238.65 276.85 239.1 276.7 239.35 276.55 239.95 276.55 240.85 276.5 241.45 276.7
L 242.2 276.95
Q 242.5 277.1 242.8 276.95 243.1 276.85 243.25 276.45
M 255.55 280.9
Q 255.85 280.6 255.75 279.7 255.7 277.7 254.3 276.3 252.85 274.85 250.85 274.85 248.8 274.85 247.35 276.35 245.95 278 245.85 280.65 245.85 283.8 247.35 285.35 248.65 286.65 250.85 286.65 252.05 286.75 253 286.5 253.3 286.45 254.7 286 255.05 285.85 255.2 285.55 255.35 285.25 255.2 284.95 255.15 284.6 254.8 284.45 254.5 284.3 254.15 284.45
L 252.25 284.95
Q 250.65 285.1 249.65 284.7 248.7 284.25 248.25 283.25 248.05 282.6 247.95 281.15
L 255 281.15
Q 255.4 281.15 255.55 280.9
M 248.7 277.45
Q 249.55 276.4 250.85 276.4 252.25 276.4 253.05 277.45 253.8 278.45 253.8 279.7
L 247.9 279.7
Q 247.9 278.5 248.7 277.45
M 259.7 277.4
L 261.25 276.75
Q 262.3 276.45 263 276.55 263.8 276.6 264.4 277.2 264.8 277.75 264.85 278.55
L 264.85 279.85 262.9 279.85
Q 261.55 279.95 261.1 280.05 259.9 280.35 258.9 281.15 257.85 282.15 258 283.75 258.15 285.2 259.05 285.85 260.65 287.05 262.55 286.65
L 263.9 286.15 264.85 285.4 264.85 285.7
Q 264.85 286.2 265.15 286.4 265.45 286.7 265.85 286.7 266.25 286.7 266.55 286.4 266.85 286.2 266.85 285.7
L 266.85 278.55
Q 266.8 275.6 264.2 275.05 262.65 274.75 261.2 275.05 260.5 275.25 259.1 275.85 258.8 275.9 258.65 276.25 258.5 276.5 258.6 276.9 258.75 277.2 259.05 277.35 259.3 277.5 259.7 277.4
M 260.35 284.4
Q 259.9 283.7 260.1 282.8 260.5 281.3 262.85 281.3
L 264.85 281.3 264.85 283.6 263.75 284.65
Q 262.9 285.15 261.95 285.15 260.9 285.15 260.35 284.4
M 274.9 270.85
Q 273.4 270.75 272.25 271.2
L 270.8 271.85
Q 270.4 272 270.25 272.4 270.1 272.85 270.2 273.15 270.35 273.55 270.75 273.7 271.2 273.9 271.5 273.75
L 273.4 272.85
Q 274.55 272.4 275.65 273 276.45 273.4 276.5 274.65 276.65 276 275.9 276.8 275.2 277.5 273.95 277.65 273.25 277.75 272.2 277.75 271.85 277.75 271.6 278 271.35 278.25 271.35 278.55 271.35 278.9 271.6 279.15 271.85 279.4 272.2 279.4
L 274.25 279.45
Q 275.95 279.7 276.65 280.4 277.5 281.35 277.35 282.6 277.2 283.75 276.5 284.3 275.45 285.05 274.15 284.9 272.95 284.7 271.15 284 270.85 283.9 270.4 284.05 270 284.2 269.85 284.6 269.75 284.9 269.9 285.35 270.05 285.75 270.45 285.9 271.95 286.45 272.9 286.6 274.85 286.9 276.5 286.3 278.15 285.7 279 284.25 279.65 283 279.5 281.8 279.2 280.1 278.1 279.2 277.3 278.7 275.85 278.4 277.25 277.9 277.85 277.35 278.75 276.4 278.75 274.25 278.75 273.05 277.9 272.05 276.75 270.9 274.9 270.85 Z"/>
</g>

<g id="Symbole_1_0_Layer1_0_FILL">
<path fill="url(#Gradient_1)" stroke="none" d="
M 98.5 -37
L 133.5 -37 133.5 0 133.5 2 149 2 149 0 149 -87 199 -87 199 0 199 2 300 2 300 0 201 0 201 -89 147 -89 147 0 135.5 0 135.5 -39 96.5 -39 96.5 0 0 0 0 2 98.5 2 98.5 0 98.5 -37 Z"/>

<path fill="url(#Gradient_2)" stroke="none" d="
M 300 102
L 300 100 0 100 0 102 300 102 Z"/>
</g>

<g id="Layer1_0_FILL">
<path fill="#FFFFFF" stroke="none" d="
M 171.35 211.35
Q 170.25 210.7 169.3 210.7 168.05 210.7 166.45 211.75 164.85 212.85 164.05 214.45 163.2 216.05 163.2 217.35 163.2 218.55 163.85 219.3 164.55 220.05 165.65 220.05 168.5 220.05 170.85 218.25 173.15 216.4 173.15 214.6 173.15 213.45 172.8 212.75 172.45 212 171.35 211.35
M 170.3 212.45
Q 170.5 212.55 170.8 212.9 171.15 213.25 171.2 213.4 171.3 213.55 171.45 214 171.55 214.5 171.55 214.8 171.55 215.35 170.6 216.3 169.7 217.2 168.45 217.9 167.2 218.6 166.45 218.6 166.1 218.6 165.8 218.45 165.45 218.35 165.35 218.25 165.2 218.15 165.1 217.8 165 217.45 165 217.05 165 216 165.55 215.1 166.1 214.15 166.85 213.45 167.55 212.75 168 212.5 168.5 212.25 169.2 212.25 169.25 212.25 169.5 212.4 169.75 212.55 169.8 212.55 170.15 212.55 170.3 212.45
M 183.05 217.75
Q 183.05 217.6 182.8 217.1 181.9 217.1 181.1 217.3 179.7 217.7 179.3 217.75 179.3 216.5 179.5 215.25 179.65 214 180.1 211.9 180.3 211.7 180.3 211.45 180.3 211.2 180.1 210.85 179.95 210.45 179.55 210.45 179.3 210.45 178.35 211.05
L 177.35 211.65
Q 176.4 212.2 175.75 212.45 175.25 212.65 175.05 212.8 174.85 212.95 174.85 213.25 174.85 213.75 175.45 213.75 176.3 213.75 177.3 213.15 178.4 212.55 178.45 212.5 177.8 216.15 177.75 217.3 177.7 217.65 177.7 218.05 177.35 218.15 176.25 218.4 175.2 218.55 174.8 218.8 174.4 219 174.4 219.35 174.4 219.55 174.65 219.8 174.9 220.05 175.3 220.05 175.7 220.05 176.5 219.8 176.6 219.8 176.8 219.7 177.75 219.4 177.9 219.4
L 177.95 219.45
Q 178.15 219.8 178.4 219.8 179.6 219.8 179.55 219.25
L 179.5 219
Q 179.9 218.85 180.95 218.7 181.95 218.55 182.4 218.4 182.8 218.25 182.95 218.15 183.05 218 183.05 217.75
M 189.9 212.2
Q 190.55 212.1 190.55 211.45 190.55 211.2 190.3 210.95 190 210.75 189.65 210.75 189.25 210.75 188.75 210.95 188.3 211.2 187.25 212.2 186.25 213.2 185.65 214.1 185.05 214.95 184.8 215.7 184.55 216.45 184.55 217.4 184.55 218.1 185.35 219 186.2 219.9 187.7 219.9 189.05 219.9 189.65 219.7 190.25 219.5 191.2 218.85 192.2 218.25 192.6 217.7 193 217.1 193 216.6 193 215.8 192.3 215.25 191.6 214.65 190.75 214.65 189.45 214.65 188.75 214.9 188.05 215.15 187.6 215.65 187.15 216.1 186.9 216.65 186.65 217.15 186.6 218.05 186.55 218 186.5 217.95 186.15 217.7 186.15 217.1 186.15 216.55 186.35 215.8 186.6 215.1 187.1 214.5 187.6 213.9 188 213.4 188.4 212.95 188.9 212.6 189.45 212.25 189.9 212.2
M 190.1 216
Q 191.2 216 191.55 216.5 191.5 217 190.45 217.75 189.4 218.5 188.55 218.5 188.35 218.5 187.9 218.45 188.1 216 190.1 216
M 115.35 210.15
Q 115.1 209.95 114.8 209.95 114.4 209.95 114.15 210.1 113.9 210.3 113.85 210.55 113.8 210.8 113.7 211.6
L 113.1 217.25
Q 113 218.05 112.85 218.7 112.7 219.2 112.7 219.35 112.7 219.65 112.95 219.95 113.2 220.3 113.6 220.3 113.9 220.3 114.65 220.05 116.4 219.5 118.25 219.5 118.45 219.5 118.85 219.55 119.25 219.55 119.4 219.55 119.9 219.55 120.25 219.3 120.6 219 120.6 218.55 120.6 218.25 120.4 218.05 120.2 217.8 119.8 217.8 119.7 217.8 119.5 217.85 118.85 218 117.25 218.1 116.7 218.1 116.15 218.2 115 218.4 114.75 218.4 114.65 218.4 114.65 218.2 114.65 218.05 115 215.3 115.3 212.6 115.5 211.65 115.6 210.95 115.6 210.7 115.6 210.4 115.35 210.15
M 129.2 218.7
Q 129.2 219.4 129.4 219.55 129.6 219.7 130 219.7 130.25 219.7 130.65 219.4 131.05 219.1 131.15 218.9 131.3 218.7 131.3 218.3 131.3 218.1 131.05 217.9 130.85 217.7 130.4 217.7 129.85 217.7 129.55 217.8 129.25 217.95 129.25 218.15 129.2 218.35 129.2 218.7
M 128 215.4
Q 128 214.2 127.25 213.35 126.55 212.5 125.4 212.5 123.65 212.5 122.45 214.2 121.25 215.9 121.25 217.65 121.25 218.75 121.9 219.5 122.55 220.25 123.6 220.25 124.85 220.25 126.15 219.15 127.4 218.05 127.9 216.45 128 215.95 128 215.4
M 124.35 214.25
Q 124.75 213.95 125.25 213.95 125.8 213.95 126.1 214.4 126.35 214.85 126.35 215.55 126.35 216.8 125.45 217.8 124.55 218.8 123.7 218.8 123.35 218.8 123.15 218.45 122.95 218.05 122.95 217.5 122.95 216.55 123.4 215.65 123.85 214.7 124.35 214.25
M 136.4 210.25
Q 136.2 210 135.8 210 135.15 210 134.95 210.85 134.6 212.2 134.35 213
L 132.85 213.05
Q 132.2 213.05 132.2 213.65 132.2 214.1 132.55 214.3 132.85 214.5 133.2 214.5
L 133.3 214.5
Q 133.5 214.5 133.95 214.45 133.25 217.2 133.25 218.15 133.25 219.15 133.7 219.65 134.2 220.2 135.1 220.2 136.15 220.2 137.15 219.45 138.1 218.7 138.1 218.05 138.1 217.9 138 217.8 137.85 217.7 137.7 217.7 137.45 217.7 137.05 218 136.5 218.45 136.15 218.6 135.8 218.7 135.4 218.7 135.15 218.7 135 218.5 134.9 218.3 134.9 217.7 134.9 217.4 135.25 215.85 135.55 214.35 135.6 214.35
L 137.95 213.95
Q 139 213.8 139 213.2 139 212.9 138.9 212.8 138.75 212.65 138.4 212.65 138.2 212.65 136 212.85 136.6 210.85 136.6 210.75 136.6 210.45 136.4 210.25
M 161.4 213.1
Q 161.4 212.25 160.55 211.45 159.7 210.6 158.8 210.6 157.75 210.6 157.15 210.9 156.5 211.2 155.35 212 155.1 212.15 154.95 212.3 154.4 212.65 154.4 212.9 154.4 213.2 154.6 213.5 154.85 213.85 155.1 213.85 155.75 213.85 156.05 213.5 156.55 212.95 157.3 212.5 158 212.1 158.3 212.1 158.85 212.1 159.25 212.45 159.65 212.8 159.65 213.3 159.65 213.75 159.1 214.55 158.55 215.35 157.7 216.05 156.8 216.75 155.25 217.65 154.1 218.35 153.7 218.85 153.3 219.35 153.3 219.95 153.3 220.6 154.05 220.6 154.55 220.6 154.9 220.25 155.15 219.95 155.45 219.8 155.7 219.65 156.35 219.55 157 219.4 157.75 219.4 159.35 219.4 160.3 219.7 160.6 219.75 161.3 219.75 161.85 219.75 162.45 219.5 163.05 219.2 163.05 218.65 163.05 218.5 162.8 218.25 162.6 218 162.35 218 162.05 218 161.75 218.15 161.45 218.25 161.25 218.25 161 218.25 160.2 218.2 159.45 218.1 159.15 218.1 157.45 218.1 156.65 218.3 158.7 217.25 160.05 215.75 161.4 214.25 161.4 213.1
M 142.25 209.7
Q 142.25 209.2 142 208.9 141.7 208.65 141.35 208.65 141.1 208.65 140.8 209 140.45 209.4 140.35 210.4 139.9 214.55 139.2 218.2 139.05 219.2 139.05 219.35 139.05 219.75 139.3 219.95 139.55 220.15 139.95 220.15 140.2 220.15 140.4 219.95 140.55 219.75 140.9 219 141.4 218.05 142.55 216.5 143.65 214.9 144.05 214.9 144.35 214.9 144.5 215.3 144.6 215.7 144.75 217.1 144.8 218.3 145.3 218.95 145.75 219.6 146.35 219.6 146.65 219.6 146.9 219.4 147.15 219.2 147.15 218.95 147.15 218.7 146.95 218.45 146.65 218.1 146.55 217.75 146.4 217.35 146.25 216.85 146.15 216.35 146.1 215.55 145.9 213.9 145.5 213.5 145.15 213.1 144.55 213.1 143.7 213.1 142.9 213.85 142.05 214.6 140.9 216.75 141.05 215.95 141.35 214.65 141.85 212.45 142.05 211.45 142.25 210.45 142.25 209.7 Z"/>
</g>
</defs>

<g transform="matrix( 1, 0, 0, 1, 0,0) ">
<use xlink:href="#Layer3_0_MEMBER_0_MEMBER_0_MEMBER_0_MEMBER_0_FILL"/>
</g>

<g transform="matrix( 1, 0, 0, 1, 0,0) ">
<use xlink:href="#Layer3_0_MEMBER_1_MEMBER_0_MEMBER_0_MEMBER_0_FILL"/>
</g>

<g transform="matrix( 1, 0, 0, 1, 0,0) ">
<use xlink:href="#Layer3_1_MEMBER_0_MEMBER_0_MEMBER_0_MEMBER_0_FILL"/>
</g>

<g transform="matrix( 1, 0, 0, 1, 0,0) ">
<use xlink:href="#Layer3_1_MEMBER_1_MEMBER_0_MEMBER_0_MEMBER_0_FILL"/>
</g>

<g transform="matrix( 1, 0, 0, 1, 0,99.5) ">
<g transform="matrix( 1, 0, 0, 1, 0,0) ">
<use xlink:href="#Symbole_1_0_Layer1_0_FILL"/>
</g>
</g>

<g transform="matrix( 1, 0, 0, 1, 0,0) ">
<use xlink:href="#Layer1_0_FILL"/>
</g>
</svg>
