
<svg xmlns="http://www.w3.org/2000/svg" version="1.1" xmlns:xlink="http://www.w3.org/1999/xlink" preserveAspectRatio="none" x="0px" y="0px" width="300px" height="320px" viewBox="0 0 300 320">
<defs>
<g id="Symbole_2_0_Layer1_0_FILL">
<path fill="#DCDCDC" stroke="none" d="
M 20 0
L 0 0 0 33 8 33 8 27 12 27 12 33 20 33 20 0
M 18 2
L 18 6 14 6 14 2 18 2
M 12 2
L 12 6 8 6 8 2 12 2
M 14 11
L 14 7 18 7 18 11 14 11
M 12 7
L 12 11 8 11 8 7 12 7
M 14 12
L 18 12 18 16 14 16 14 12
M 6 2
L 6 6 2 6 2 2 6 2
M 2 11
L 2 7 6 7 6 11 2 11
M 2 12
L 6 12 6 16 2 16 2 12
M 2 22
L 6 22 6 26 2 26 2 22
M 2 21
L 2 17 6 17 6 21 2 21
M 8 21
L 8 17 12 17 12 21 8 21
M 14 21
L 14 17 18 17 18 21 14 21
M 14 22
L 18 22 18 26 14 26 14 22
M 8 16
L 8 12 12 12 12 16 8 16
M 8 22
L 12 22 12 26 8 26 8 22 Z"/>
</g>

<g id="Symbole_2_0_Layer0_0_FILL">
<path fill="#999999" stroke="none" d="
M 24.55 33
L 24.55 27.6 26.55 27.8 26.55 33 30 33 30 7 20 0 20 33 24.55 33
M 21.2 2.8
L 23.5 4.25 23.5 7.95 21.2 6.7 21.2 2.8
M 21.2 7.65
L 23.5 8.9 23.5 12.65 21.2 11.55 21.2 7.65
M 27.45 11.05
L 29.15 12 29.15 15.25 27.5 14.4 27.45 11.05
M 26.55 6.25
L 26.55 9.7 24.55 8.65 24.6 4.9 26.55 6.25
M 27.45 10.25
L 27.45 6.9 29.15 8 29.15 11.25 27.45 10.25
M 24.55 9.5
L 26.55 10.6 26.55 14.05 24.55 13.1 24.55 9.5
M 26.55 14.9
L 26.55 18.35 24.55 17.7 24.55 14.05 26.55 14.9
M 27.5 15.3
L 29.2 16.1 29.2 19.35 27.45 18.7 27.5 15.3
M 21.2 17.35
L 23.5 18.1 23.5 21.85 21.25 21.3 21.2 17.35
M 21.25 16.4
L 21.2 12.45 23.5 13.5 23.5 17.25 21.25 16.4
M 21.2 22.3
L 23.5 22.8 23.5 26.5 21.25 26.2 21.2 22.3
M 26.5 19.25
L 26.55 22.65 24.6 22.15 24.55 18.5 26.5 19.25
M 27.45 23.75
L 29.2 24.1 29.2 27.35 27.45 27.1 27.45 23.75
M 27.45 22.9
L 27.45 19.5 29.15 20.1 29.2 23.35 27.45 22.9
M 24.6 23
L 26.55 23.5 26.55 26.95 24.55 26.65 24.6 23 Z"/>
</g>

<g id="copie_Symbole_2_0_Layer1_0_FILL">
<path fill="#FFFFFF" stroke="none" d="
M 0 21
L 20 21 25.25 15.75 5.25 15.75 0 21 Z"/>

<path fill="#DCDCDC" stroke="none" d="
M 20 21
L 0 21 0 33 8 33 8 27 12 27 12 33 20 33 20 21
M 2 22
L 6 22 6 26 2 26 2 22
M 14 22
L 18 22 18 26 14 26 14 22 Z"/>
</g>

<g id="copie_Symbole_2_0_Layer0_0_FILL">
<path fill="#999999" stroke="none" d="
M 30 23.55
L 27.1 16.45 25.25 15.75 20 21 20 33 24.55 33 24.55 27.6 26.55 27.8 26.55 33 30 33 30 23.55
M 21.2 22.3
L 23.5 22.8 23.5 26.5 21.25 26.2 21.2 22.3
M 27.45 23.75
L 29.2 24.1 29.2 27.35 27.45 27.1 27.45 23.75 Z"/>
</g>

<g id="Layer2_0_FILL">
<path fill="#DCDCDC" stroke="none" d="
M 255 150
Q 255 106.5 224.25 75.7 193.5 45 150 45 106.5 45 75.7 75.7 45 106.5 45 150 45 193.5 75.7 224.25 106.5 255 150 255 193.5 255 224.25 224.25 255 193.5 255 150
M 222.1 77.85
Q 252 107.7 252 150 252 192.3 222.1 222.1 192.3 252 150 252 107.7 252 77.85 222.1 48 192.3 48 150 48 107.7 77.85 77.85 107.7 48 150 48 192.3 48 222.1 77.85 Z"/>
</g>

<g id="Symbole_3_0_Layer1_0_FILL">
<path fill="#DCDCDC" fill-opacity="0.30196078431372547" stroke="none" d="
M 154.15 25.4
Q 114.85 9.35 91.85 5.05 68.8 0.75 32.1 0.1 13.75 -0.25 0 0.25
L 1.65 5.1
Q 12.15 4.05 27.85 3.95 59.2 3.75 85.05 8.6 66.55 26.8 54.7 39.25 43.25 51.35 29.45 71.25 22.6 81.2 18 88.75
L 19.85 93.45
Q 23.7 93.1 31.7 93.2 47.7 93.35 68.35 95.6 95.7 98.65 112.75 101.05 99.05 118.95 79.1 151.2 69.1 167.3 61.85 179.85
L 64.35 185.25
Q 72.3 174.15 82.55 159.35 103.1 129.8 114.65 111.6 126.2 93.4 158.7 65.15 174.95 51.05 188.85 40.6 173.8 33.45 154.15 25.4
M 121.35 90.6
Q 113.85 68.8 107.9 50.75 101.25 30.75 95.45 10.8 126 17.7 157.75 30.1 173.6 36.3 183.35 41.1 173.75 47.35 161.4 56.4 136.8 74.5 123.35 88.45
L 121.35 90.6
M 102.15 53.55
Q 109 74.2 115.85 95.6 96.8 92.7 70.4 89.8 53.85 88 37.3 87.55 29 87.35 24 87.45 28.95 80.3 35.75 71.25 49.3 53.1 58.5 43.45 71.35 29.9 88.6 12.25 95.3 32.85 102.15 53.55 Z"/>
</g>

<g id="Symbole_3_0_Layer0_0_FILL">
<path fill="#DCDCDC" stroke="none" d="
M 301.3 127.5
Q 300.75 126.25 299.45 125.75 295.6 124.8 292.95 126.1 291.2 126.9 289.65 128.45 288.8 129.35 287.15 131.5
L 287.15 128.7
Q 287.15 127.3 286.15 126.35 285.2 125.4 283.8 125.4 282.45 125.4 281.5 126.35 280.5 127.3 280.5 128.7
L 280.5 161.65
Q 280.5 163.05 281.5 164 282.45 165 283.8 165 285.2 165 286.15 164 287.15 163.05 287.15 161.65
L 287.15 139.5
Q 289.95 135.2 291.45 133.7 294 131.15 297.15 132.05 298.45 132.5 299.7 131.9 300.95 131.35 301.4 130.05 301.9 128.75 301.3 127.5
M 212.7 115.7
Q 211.7 116.65 211.7 118.05
L 211.7 125.4 207 125.4
Q 205.85 125.4 205.05 126.2 204.25 127.05 204.25 128.2 204.25 129.35 205.05 130.15 205.85 130.95 207 130.95
L 211.7 130.95 211.7 152.7
Q 211.95 156.65 212.4 158.4 213.2 161.35 215.15 162.85 219.75 166.35 227.25 164.15 228.3 163.8 228.8 162.75 229.3 161.7 228.9 160.6 228.5 159.5 227.45 159.05 226.4 158.55 225.35 158.95 222.8 159.55 222.25 159.45 221.35 159.4 220.05 158.15 219.1 157.3 218.7 155.4 218.5 154.4 218.35 151.75
L 218.35 130.95 227.25 130.95
Q 228.4 130.95 229.25 130.15 230.05 129.35 230.05 128.2 230.05 127.05 229.25 126.2 228.4 125.4 227.25 125.4
L 218.35 125.4 218.35 118.05
Q 218.35 116.65 217.35 115.7 216.4 114.7 215 114.7 213.65 114.7 212.7 115.7
M 238.5 107.8
Q 237.5 108.75 237.5 110.15
L 237.5 161.65
Q 237.5 163.05 238.5 164 239.45 165 240.8 165 242.2 165 243.15 164 244.15 163.05 244.15 161.65
L 244.15 138
Q 247.95 133.8 250.05 132.45 253.5 130.2 256.85 131.45 259.95 132.6 261.05 135.7 261.7 137.55 261.95 142.05
L 261.95 161.65
Q 261.95 163.05 262.9 164 263.85 165 265.25 165 266.65 165 267.6 164 268.6 163.05 268.6 161.65
L 268.6 141.25
Q 268.25 135 267.25 132.35 265.55 127.9 260.8 126.2 255.65 124.3 251.3 126.2 248.65 127.3 244.15 131.3
L 244.15 110.15
Q 244.15 108.75 243.15 107.8 242.2 106.8 240.8 106.8 239.45 106.8 238.5 107.8
M 418.2 117.85
Q 419.35 116.7 419.35 115.1 419.35 113.5 418.2 112.35 417.05 111.2 415.45 111.2 413.85 111.2 412.7 112.35 411.55 113.5 411.55 115.1 411.55 116.7 412.7 117.85 413.85 119 415.45 119 417.05 119 418.2 117.85
M 445.7 131.5
Q 445.75 131.5 448.2 132.45 449.3 132.85 450.35 132.35 451.4 131.85 451.8 130.8 452.2 129.7 451.7 128.65 451.2 127.6 450.1 127.2 448.1 126.3 447.6 126.15 445.65 125.55 442.45 125.4 438.85 125.2 435.55 126.5 430.6 128.45 429.45 133.2 428.25 138.4 430.7 141.75 432.75 144.6 438.1 146.75 443.75 149.1 444.05 149.25 447.2 151.05 447.15 153.9 447.1 159.05 440.8 159.45 437.5 159.6 435.05 158.85 434.15 158.6 431.8 157.45 430.7 157.1 429.65 157.55 428.65 158.05 428.25 159.1 427.85 160.2 428.35 161.25 428.8 162.3 429.9 162.7 434.05 165 439.8 165 445.4 165.05 449.15 162.45 453.5 159.4 453.65 153.6 453.8 148.25 449.25 145.2 448.1 144.45 441.15 141.6 434.1 138.8 435.55 134.25 436.2 132.2 437.75 131.45 438.75 131 440.65 131 443.75 130.95 445.7 131.5
M 403.05 174.8
Q 402.65 175.9 403.15 176.95 403.6 178 404.7 178.35 408.4 178.9 410.4 178.65 413.3 178.3 415.45 176.3 417.45 174.35 418.2 171.05 418.65 169 418.8 164.75
L 418.8 128.7
Q 418.8 127.3 417.8 126.35 416.85 125.35 415.45 125.35 414.05 125.35 413.1 126.35 412.1 127.3 412.1 128.7
L 412.1 164.75
Q 412.05 167.4 411.85 168.75 411.55 170.8 410.8 171.85 409.95 172.9 409.05 173.1 408.4 173.3 406.6 173.15 405.5 172.75 404.45 173.25 403.45 173.7 403.05 174.8
M 399.9 159.95
Q 399.9 157.9 398.45 156.4 397 154.95 394.9 154.95 392.85 154.95 391.35 156.4 389.9 157.9 389.9 159.95 389.9 162 391.35 163.5 392.85 164.95 394.9 164.95 397 164.95 398.45 163.5 399.9 162 399.9 159.95
M 339.85 141.65
Q 339.55 134.85 334.85 130.15 330.1 125.35 323.4 125.35 316.35 125.35 311.6 130.45 306.6 135.85 306.6 144.75 306.6 155.4 311.6 160.55 315.9 165 323.4 165 327.35 165.15 330.55 164.5 332.45 164.1 336.35 162.75 337.45 162.4 337.95 161.35 338.4 160.3 338 159.2 337.65 158.1 336.6 157.65 335.55 157.15 334.45 157.55 330.1 158.9 328 159.2 323.1 159.95 319.25 158.4 315.95 157.05 314.7 153.55 313.9 151.4 313.55 146.45
L 337.25 146.45
Q 338.65 146.45 339.2 145.7 340 144.65 339.85 141.65
M 330.7 134.1
Q 333.25 137.3 333.25 141.65
L 313.5 141.65
Q 313.5 137.3 316.1 134.1 318.9 130.55 323.4 130.55 327.9 130.55 330.7 134.1
M 380.65 141.65
Q 380.35 134.85 375.65 130.15 370.9 125.35 364.2 125.35 357.15 125.35 352.45 130.45 347.45 135.85 347.4 144.75 347.4 155.4 352.4 160.55 356.7 165 364.2 165 368.15 165.15 371.35 164.5 373.25 164.1 377.15 162.75 378.25 162.4 378.75 161.35 379.2 160.3 378.8 159.2 378.45 158.1 377.4 157.65 376.35 157.15 375.25 157.55 370.9 158.9 368.8 159.2 363.9 159.95 360.05 158.4 356.75 157.05 355.5 153.55 354.7 151.4 354.35 146.45
L 378.05 146.45
Q 379.45 146.45 380 145.7 380.8 144.65 380.65 141.65
M 371.5 134.1
Q 374.05 137.3 374.05 141.65
L 354.3 141.65
Q 354.3 137.3 356.9 134.1 359.7 130.55 364.2 130.55 368.7 130.55 371.5 134.1
M 214.9 47.1
L 219.5 44.25
Q 214.25 37.9 186.1 26.45 158.2 15.15 131.95 8.6 100.3 0.7 57.35 0.05 18.3 -0.55 0 4.6
L 87.7 193.65 88.75 193.7
Q 89.55 192.45 89.9 192.1 95.95 185.85 102.35 177.75 107.15 171.7 113.75 162.5 119.45 154.55 125.45 144.15 129.25 137.6 135.9 125.05 146.05 105.85 166.45 85.7 176.45 75.8 186.25 67.9 191.2 63.85 198.15 58.8 202.2 55.9 210.35 50.1 212.1 48.85 214.9 47.1
M 186.5 48.05
Q 193.75 43.75 199.5 43 204.7 42.35 209.55 44.25
L 174.5 71.4
Q 176.5 67.8 181.2 58.55 183.65 53.75 186.5 48.05
M 168.5 33.3
L 169.05 34.25
Q 129.95 22.45 83.95 19.1 85.7 18.25 89.2 16.5 92.25 15 94.5 14.15 100.45 11.9 105.05 10.95 110.85 9.7 116.05 10 118.7 10.2 124.2 11.85 146.65 18.45 168.5 33.3
M 185.45 38.3
Q 184.4 38.5 183.65 38.05 174.8 32.25 157.2 20.55 157.15 20.55 157 20.15
L 157.4 19.3 198.45 35.2 185.45 38.3
M 113.7 47.85
Q 108.2 43.1 99.75 36.5 90.3 29.15 85.65 25.45 133 27.9 177.1 42.15 167.25 47.9 157.2 56.7 150.45 62.55 140.4 72.85 131.5 64.35 127.1 60.15 119.25 52.6 113.7 47.85
M 134.65 80.05
Q 135.85 81.35 135.95 83.35 136.6 93.45 132.7 106.4 131.65 109.9 129.95 114.8 129 117.6 127 123.2
L 125.8 123.25 79 33 79.7 32.4
Q 83.4 34.9 90.9 39.9 106 50.5 120.9 65.25 126.05 70.4 134.65 80.05
M 144.9 82.65
Q 152.75 74.05 158.45 68.45 166.15 60.95 173.45 55.25
L 143.15 100.9 144.35 84
Q 144.45 83.2 144.9 82.65
M 68 48.25
Q 71.3 38.75 72.95 34.05
L 119.05 122.85
Q 82.75 102.5 49.9 90.75 54.4 81.2 56.55 76.5 60.35 68.25 62.7 62.5 65.05 56.8 68 48.25
M 66.6 25.75
Q 66.95 26.45 66.55 27.9 59.5 56 44.55 84.8
L 10.1 9.8 14.8 10.1
Q 17.5 10.25 19.2 10.5 43.4 13.85 64.9 24.3 66.25 24.95 66.6 25.75
M 51.95 10.25
Q 48.05 8.85 42.35 7.3 35.95 5.6 32.85 4.7 39.35 3.3 66.4 4.35 93.5 5.35 98.45 7.25 86.5 10.1 73.2 17.55 71.8 18.35 70.8 17.95 69.9 17.6 61.4 14 55.75 11.6 51.95 10.25
M 106.65 159.25
Q 95.55 175.9 89.6 181.8
L 51.05 99.4 51.65 98.9
Q 87.8 112.5 122.5 132.4 117.65 142.7 106.65 159.25 Z"/>
</g>

<g id="Symbole_4_0_Layer0_0_FILL">
<path fill="#DCDCDC" stroke="none" d="
M 181.3 49.95
Q 178.05 44.35 172.2 39.75 168 36.45 160.65 32.4 159.65 31.05 159.2 30.4 158.3 29.2 157.55 28.9 153.6 27.3 131.45 19.05
L 125.6 16.8 125.65 16.7 121.45 19.65 142.1 28.35
Q 142.9 29.9 144.25 33.1 145.5 35.9 146.85 37.25 148.8 39.2 152.1 41.35 154 42.6 157.8 45 159.3 46.1 160.7 46.35
L 181.3 49.95
M 103.2 15.4
L 105 15.5
Q 110.05 16.2 118.55 17.65 120.85 17.25 125.3 16.75
L 106.25 13.1 103.2 15.4
M 169.05 75.55
Q 176.2 78.7 181.3 77.75 186.55 76.8 189.15 71.6
L 169.65 66.55 169.05 75.55
M 57.2 36.35
Q 49.85 36.25 44.7 30.25 42.95 28.15 36.8 17.65 34.35 17.65 33.5 19.55 33.15 20.4 32.85 23.35 31.75 35.05 39.3 46.8 46.85 58.5 57.5 61.65
L 57.2 36.35
M 122.25 98.25
Q 128.3 95.45 136 88.55 131.75 82.35 129.4 81.8 126.95 81.2 121.65 85.4 114.85 90.75 106.15 100.6 114.4 101.9 122.25 98.25
M 93.9 78.4
Q 86.15 86.4 81.65 94.2 96.95 99.45 100.1 100.4 100.75 100.6 101.9 100.1 102.85 99.65 103.65 98.9 105.95 96.8 114.1 89.3 120.5 83.4 124.55 79.8 126.3 78.25 126.6 73.1 126.9 67.9 125.2 65.85 121.4 61.15 118.6 60.8 115.8 60.45 110.8 64 101.5 70.6 93.9 78.4
M 112.7 45
Q 107.7 40.7 104.3 40.6 100.9 40.45 95.35 44.35 78.95 55.85 68.15 70.8 66.75 72.7 66.65 74.3 66.55 75.95 67.85 77.65
L 79.15 92.35
Q 92.4 72.9 113.15 59.15 115.2 57.75 115 52.3 114.8 46.8 112.7 45
M 97.35 40.9
Q 99.05 39.85 99.6 38.9 100.35 37.7 100.05 35.65 99.65 32.95 99.2 32 98.35 30.4 96.35 30.25 96 30.25 84.75 29.95 81.55 33.05 74.85 39.2 68.15 45.35 64.9 48.4 60.65 53.55 61.5 60.1 61.9 62.9 65.4 72.8 66.95 70.25 67.55 69.2 68.6 67.45 69.4 66.45 80.75 51.75 97.35 40.9
M 88.65 19
Q 91.7 17.25 93.2 16.55
L 102.25 15.55
Q 101.65 15.35 99.35 14.2 97.75 13.4 96.45 13.45 85.1 13.7 68 14.95 67.2 15 66.05 15.85 64.75 16.9 64.1 17.3
L 65.15 18.9
Q 64.15 19.7 63.6 20.2 62.55 21.15 62.35 21.95 60.5 29 60.05 37.1 59.7 43.95 60.3 52.75 61.65 50.55 62.35 49.55 63.45 47.8 64.35 47 70.8 40.85 83.65 28.9 85.8 26.2 85.85 25.95 86 25.15 84.1 21.45 85.6 20.75 88.65 19
M 118.45 17.9
L 103.35 15.8 93.1 17.3 86.65 21.8
Q 86.7 24.4 88 25.7 89.05 26.8 91.85 27.8 96.5 29.4 100.9 28.8 104.95 28.2 109.55 25.55 111.75 24.25 115.6 23.35 117.8 22.8 122.4 21.75
L 118.45 17.9
M 102.05 12.8
L 110.9 12.8
Q 108.25 5.7 96.95 1.85 85.6 -2 79.1 2.25 79.7 2.55 81.45 3.4 82.7 3.95 83.4 4.4 83.65 4.55 88.65 8.05 91.8 10.25 94.05 11.35 95.5 12.1 97.9 12.4 99.3 12.55 102.05 12.8
M 153.7 43.05
Q 148.55 38.65 142.35 39.05 137.45 39.4 131.05 41.3 128.8 42 119.85 45.15 117.2 46.1 117.3 50.7 117.4 55.25 120 57.3 126.95 62.65 128 63.4 128.55 63.8 129.4 63.95 130.3 64.1 130.95 63.85 135.2 62.5 158.15 55.2 159.5 48 153.7 43.05
M 128 39.05
Q 130.55 37.7 134.8 36.95 137.2 36.55 142.2 35.75 140.15 30 135.3 26.6 130.25 23 124.55 23.7 120.25 24.25 114.85 25.95 112.05 26.85 105.3 29.35 104.15 29.8 103.1 31.5 102.1 33.2 101.95 34.7 101.9 35.4 103.3 36.6 104.15 37.25 105.85 38.5 110.85 42.65 116.65 42.5 121.55 42.35 128 39.05
M 164.45 75.5
Q 166.2 75.05 166.25 74.55 167.1 68.2 165.75 65.7 163.85 62.3 161.25 60.75 158.2 58.95 154.65 59.85 141.75 63.2 133.95 66 130.45 67.25 129.75 71.7 129.1 76.15 131.95 78.75 133.25 79.95 135.5 81.35 136.75 82.2 139.5 83.95 146.75 77.1 161.4 76.05 162.9 75.9 164.45 75.5
M 189.05 69.75
Q 189.45 63.5 187.1 58.8 184.7 54 180 52.25 176.2 50.8 170.35 49.35 163.7 47.8 160.3 46.9 160.35 55.6 163.75 60.15 167.05 64.6 174.05 65.65 177.7 66.25 181.9 67.4 182.45 67.55 189.05 69.75
M 220.6 9.6
Q 220.9 7.25 220.05 4.55 218.85 0.75 217.5 0.25 216.85 0 215.45 0.85 213.75 2 212.85 2.45 215.7 6.7 213.35 7.95 209.75 8.8 208.45 9.75
L 212.1 14.5 203.4 17.45 205.15 22.9 195.7 25.1 197.35 30.85
Q 195.4 31.2 194.45 31.35 192.7 31.65 191.5 31.65 190.3 31.7 188.6 31.45 186.7 31.2 185.7 31.05
L 187.1 37.7
Q 184.8 37.75 183.65 37.8 181.65 37.8 180.3 37.6 177.7 37 176.4 36.75 174.15 36.3 172.5 36.55
L 192.1 61.45
Q 202.65 54.05 211.85 38.95 215.65 32.7 217.8 24.8 219.6 18.4 220.6 9.6
M 178.1 90.05
Q 176.95 89.7 175.35 88.55 172.35 86.5 172.3 86.45
L 176.15 85.05 176.1 83.65
Q 168.55 83.6 164.8 83.65 158.05 83.65 154 85.25 149.85 86.85 144.6 91.45 138.9 96.75 136.1 98.95 139.5 101.4 146.05 105.55 151.65 109.25 154.6 112.5 159 117.35 165.6 121.25 168.95 123.25 177.75 127.4 184.05 130.35 187.9 129.25 191.5 128.25 196.65 122.45 198.25 120.65 201.35 118.55 206.6 114.95 206.8 114.8 205.2 104.5 195.2 98.8
L 197.15 99.5
Q 198.35 99.9 199.1 100.3 205.15 103.5 210.95 114.4 216.8 125.25 216.5 132.7 216.25 139.65 213.45 142.5 210.65 145.4 204.25 145.2 201.5 145.1 196.2 144.4 193.05 144 192.3 143.95 190.05 143.8 188.25 144.2 191.95 144.9 199.3 146.35 205.9 147.65 210.4 148.2 213.4 148.55 216.2 144.95 218.95 141.4 219.3 136.95 220.05 128.2 217.3 118.6 215.4 112 210.7 101.75 210.05 100.4 207.65 99.4 207.1 99.15 203.35 97.95 199.25 96.6 190.7 94 182.35 91.45 178.1 90.05
M 194.05 117.85
Q 194 120.8 191.8 123.2 189.45 125.85 186.8 126.2 184.1 126.6 181.45 124.55 177.55 122.7 175.95 119.45 174.35 116.2 175.55 112.55 176.6 109.1 179.65 107.6 182.75 106 186.05 107.4 189.7 108.9 192.25 112.4 194.15 115 194.05 117.85
M 170.5 108.3
Q 165.65 109.7 163.55 108.05 161.5 106.4 161.9 101.5
L 170.5 108.3
M 168.45 112.4
Q 170.3 113.45 171.8 116.3 172 116.65 171.6 117.65 171.4 118.15 170.9 119.25 165.75 115.85 163.2 114.05 163.05 113.95 163.1 113.4 163.1 112.35 163.1 112.1 166.2 111.1 168.45 112.4
M 156.05 108.6
Q 154.8 107.6 154.3 104.25 157.6 103.85 158.9 104.85 160.15 105.85 160.6 109.2 157.3 109.6 156.05 108.6
M 191.05 114.25
Q 189.6 111.55 186.6 110.3 183.6 109.05 180.8 110 178 110.95 177 113.55 176.05 116.15 177.5 118.85 178.95 121.5 182 122.75 185 124 187.8 123.05 190.6 122.1 191.55 119.5 192.5 116.9 191.05 114.25
M 67.55 88.2
Q 65.65 90.85 64.95 94 64.45 96.35 64.45 100.25 64.5 101.3 64 105.9 62.5 105.3 61.75 105 60.4 104.4 59.55 103.9 59.1 103.6 58.5 102.7 57.35 100.9 56.85 100.25 56.75 100.6 55.55 104.55 54.9 106.75 54.6 108.1 54.35 109.25 53.6 114.8
L 47.05 111.45
Q 46.8 111.95 46 113.45 45.25 114.95 44.8 116.1 44 118.2 42.9 122.65
L 37 118.5 34.85 122.05
Q 34.55 122.6 32.3 126.65
L 27.7 123.25
Q 24.5 127.95 22.4 129.2 18.6 131.5 14.7 126.9 14.3 132.25 14.15 132.85 13.5 134.75 10.7 135.9 9.55 136.55 7.75 136.65 5.7 136.75 4.75 136.9 1.3 137.35 0 141.3 9.35 145.2 21.35 145.5 29.3 145.7 42.95 144.05 62.6 141.7 78.1 134.05 95.25 125.55 108.1 110.25 95.15 109.5 85.2 104.15 75 98.7 67.55 88.2
M 334.2 96.05
Q 336 95.35 339.45 93.9 342.55 92.85 345.25 93.2 348.3 93.6 349.9 95.5 351.3 97.2 351.4 99.85
L 351.4 104.25 344.85 104.25
Q 340.95 104.45 338.85 104.95 334.6 105.95 331.65 108.65 328.1 111.9 328.65 117.25 329.15 122.1 332.1 124.25 337.5 128.25 343.75 126.85 346.3 126.3 348.2 125.2 349.35 124.5 351.4 122.75
L 351.4 123.8
Q 351.4 125.2 352.4 126.15 353.35 127.15 354.75 127.15 356.1 127.15 357.1 126.15 358.05 125.2 358.05 123.8
L 358.05 99.85
Q 357.85 90.1 349.25 88.3 343.95 87.2 339.3 88.25 337.3 88.75 332.3 90.85 331.25 91.25 330.75 92.3 330.3 93.3 330.65 94.4 331.05 95.45 332.1 95.95 333.1 96.4 334.2 96.05
M 351.4 109.05
L 351.4 116.7
Q 348.05 119.95 347.75 120.2 345.3 121.9 341.7 121.95 338.15 121.95 336.45 119.4 334.9 117.1 335.65 114.15 336.85 109.05 344.8 109.05
L 351.4 109.05
M 441.65 72.5
Q 441.65 71.15 440.7 70.2 439.75 69.2 438.35 69.2 437 69.2 436.05 70.2 435.05 71.15 435.05 72.5
L 435.05 93.5
Q 430.65 89.6 428 88.45 423.6 86.55 418.5 88.4 413.8 90.15 411.6 94.55 410.3 97.2 409.15 103.35 408.55 107.65 409.15 111.25 410.3 117.45 411.6 120.1 413.8 124.45 418.5 126.2 423.6 128.05 428 126.2 430.6 125.05 435.05 121.1
L 435.05 123.85
Q 435.05 125.2 436.05 126.2 437 127.15 438.35 127.15 439.75 127.15 440.7 126.2 441.65 125.2 441.65 123.85
L 441.65 72.5
M 417.8 97.9
Q 419.4 94.8 422.45 93.65 425.8 92.4 429.2 94.65 431.3 96 435.05 100.15
L 435.05 114.45
Q 431.3 118.6 429.2 119.95 425.8 122.2 422.45 120.95 419.4 119.8 417.8 116.7 416.8 114.8 415.8 110.45 415.2 107.7 415.8 104.2 416.8 99.8 417.8 97.9
M 376.05 75.4
Q 372.45 77.15 371.3 77.65 370 78.15 369.4 79.4 368.85 80.6 369.3 81.9 369.8 83.2 371.05 83.75 372.3 84.35 373.55 83.85 375.6 83.1 379.85 80.85 383.8 79.35 387.4 81.35 389.9 82.75 390.3 87 390.7 91.4 388.2 94.1 386.15 96.35 381.75 97 379.95 97.25 375.85 97.25 374.7 97.25 373.9 98.05 373.1 98.85 373.1 100 373.1 101.15 373.9 101.95 374.75 102.75 375.85 102.75 381.15 102.75 382.75 102.95 388.35 103.6 390.8 106.15 393.6 109.05 393.05 113.45 392.55 117.4 390.25 119.05 386.75 121.55 382.4 121.05 379.75 120.7 372.35 118.15 371.1 117.65 369.85 118.25 368.6 118.8 368.1 120.1 367.65 121.4 368.25 122.6 368.85 123.85 370.1 124.35 374.95 126.2 378.2 126.75 384.7 127.85 390.3 125.8 395.8 123.8 398.55 118.85 400.85 114.65 400.2 110.8 399.2 104.75 395.6 102.15 393.4 100.55 388.1 99.35 392.9 97.8 394.7 95.9 397.7 92.7 397.75 85.55 397.75 81.5 394.85 78.3 391.3 74.45 384.95 74.2 380.05 74 376.05 75.4
M 263.3 96.45
Q 263.95 94.4 265.55 93.7 266.45 93.25 268.4 93.2 271.45 93.15 273.45 93.7
L 275.9 94.65
Q 276.95 95.05 278 94.55 279.05 94.05 279.4 93 279.8 91.9 279.35 90.9 278.85 89.85 277.75 89.45 275.8 88.55 275.25 88.4 273.3 87.85 270.15 87.7 266.6 87.5 263.35 88.8 258.4 90.7 257.25 95.4 256.05 100.5 258.5 103.85 260.55 106.7 265.85 108.85 271.2 111 271.75 111.35 274.85 113.15 274.85 115.95 274.8 121.05 268.55 121.45 265.25 121.6 262.8 120.85 261.85 120.55 259.6 119.45 258.5 119.1 257.45 119.55 256.45 120.05 256.05 121.1 255.65 122.2 256.15 123.25 256.6 124.3 257.7 124.65 261.85 126.95 267.55 126.95 273.1 127 276.8 124.4 281.1 121.4 281.25 115.65 281.4 110.35 276.9 107.3 275.85 106.65 268.9 103.75 261.9 100.95 263.3 96.45
M 316.2 92.35
Q 311.45 87.6 304.8 87.6 297.8 87.6 293.15 92.65 288.2 98.05 288.15 106.85 288.15 117.4 293.1 122.55 297.4 126.95 304.8 126.95 308.7 127.1 311.9 126.45 313.9 126.05 317.65 124.75 318.75 124.35 319.25 123.3 319.7 122.3 319.3 121.2 318.95 120.15 317.9 119.65 316.85 119.15 315.8 119.55 311.65 120.85 309.4 121.2 304.5 121.9 300.7 120.4 297.45 119.05 296.15 115.6 295.4 113.45 295.05 108.55
L 318.6 108.55
Q 319.95 108.55 320.5 107.8 321.3 106.75 321.15 103.8 320.85 97.05 316.2 92.35
M 297.55 96.3
Q 300.35 92.8 304.8 92.8 309.25 92.8 312.05 96.3 314.6 99.45 314.6 103.8
L 295 103.8
Q 295 99.45 297.55 96.3 Z"/>
</g>
</defs>

<g transform="matrix( 0.888916015625, -0.4580230712890625, 0.4580230712890625, 0.888916015625, 74.55,35.35) ">
<g transform="matrix( 1, 0, 0, 1, 0,0) ">
<use xlink:href="#Symbole_2_0_Layer1_0_FILL"/>
</g>

<g transform="matrix( 1, 0, 0, 1, 0,0) ">
<use xlink:href="#Symbole_2_0_Layer0_0_FILL"/>
</g>
</g>

<g transform="matrix( 0.977569580078125, -0.2105865478515625, 0.2105865478515625, 0.977569580078125, 105.55,19.4) ">
<g transform="matrix( 1, 0, 0, 1, 0,0) ">
<use xlink:href="#copie_Symbole_2_0_Layer1_0_FILL"/>
</g>

<g transform="matrix( 1, 0, 0, 1, 0,0) ">
<use xlink:href="#copie_Symbole_2_0_Layer0_0_FILL"/>
</g>
</g>

<g transform="matrix( 1, 0, 0, 1, 0,0) ">
<use xlink:href="#Layer2_0_FILL"/>
</g>

<g transform="matrix( 0.29998779296875, 0, 0, 0.29998779296875, 5,257.55) ">
<g transform="matrix( 1, 0, 0, 1, 26.05,2.2) ">
<use xlink:href="#Symbole_3_0_Layer1_0_FILL"/>
</g>

<g transform="matrix( 1, 0, 0, 1, 0,0) ">
<use xlink:href="#Symbole_3_0_Layer0_0_FILL"/>
</g>
</g>

<g transform="matrix( 0.29998779296875, 0, 0, 0.29998779296875, 159.45,268.55) ">
<g transform="matrix( 1, 0, 0, 1, 0,0) ">
<use xlink:href="#Symbole_4_0_Layer0_0_FILL"/>
</g>
</g>
</svg>
