
<svg xmlns="http://www.w3.org/2000/svg" version="1.1" xmlns:xlink="http://www.w3.org/1999/xlink" preserveAspectRatio="none" x="0px" y="0px" width="300px" height="300px" viewBox="0 0 300 300">
<defs>
<g id="Symbole_2_0_Layer1_0_FILL">
<path fill="#DCDCDC" stroke="none" d="
M 20 0
L 0 0 0 33 8 33 8 27 12 27 12 33 20 33 20 0
M 18 2
L 18 6 14 6 14 2 18 2
M 12 2
L 12 6 8 6 8 2 12 2
M 12 7
L 12 11 8 11 8 7 12 7
M 14 11
L 14 7 18 7 18 11 14 11
M 14 12
L 18 12 18 16 14 16 14 12
M 6 2
L 6 6 2 6 2 2 6 2
M 2 11
L 2 7 6 7 6 11 2 11
M 2 12
L 6 12 6 16 2 16 2 12
M 8 21
L 8 17 12 17 12 21 8 21
M 6 17
L 6 21 2 21 2 17 6 17
M 2 22
L 6 22 6 26 2 26 2 22
M 14 22
L 18 22 18 26 14 26 14 22
M 14 17
L 18 17 18 21 14 21 14 17
M 8 22
L 12 22 12 26 8 26 8 22
M 8 12
L 12 12 12 16 8 16 8 12 Z"/>
</g>

<g id="Symbole_2_0_Layer0_0_FILL">
<path fill="#999999" stroke="none" d="
M 26.55 33
L 30 33 30 7 20 0 20 33 24.55 33 24.55 27.6 26.55 27.8 26.55 33
M 21.2 2.8
L 23.5 4.25 23.5 7.95 21.2 6.7 21.2 2.8
M 21.2 7.65
L 23.5 8.9 23.5 12.65 21.2 11.55 21.2 7.65
M 29.15 11.25
L 27.45 10.25 27.45 6.9 29.15 8 29.15 11.25
M 26.55 6.25
L 26.55 9.7 24.55 8.65 24.6 4.9 26.55 6.25
M 27.45 11.05
L 29.15 12 29.15 15.25 27.5 14.4 27.45 11.05
M 24.55 9.5
L 26.55 10.6 26.55 14.05 24.55 13.1 24.55 9.5
M 26.55 14.9
L 26.55 18.35 24.55 17.7 24.55 14.05 26.55 14.9
M 27.5 15.3
L 29.2 16.1 29.2 19.35 27.45 18.7 27.5 15.3
M 21.2 12.45
L 23.5 13.5 23.5 17.25 21.25 16.4 21.2 12.45
M 21.2 17.35
L 23.5 18.1 23.5 21.85 21.25 21.3 21.2 17.35
M 21.2 22.3
L 23.5 22.8 23.5 26.5 21.25 26.2 21.2 22.3
M 29.2 23.35
L 27.45 22.9 27.45 19.5 29.15 20.1 29.2 23.35
M 27.45 23.75
L 29.2 24.1 29.2 27.35 27.45 27.1 27.45 23.75
M 26.5 19.25
L 26.55 22.65 24.6 22.15 24.55 18.5 26.5 19.25
M 24.6 23
L 26.55 23.5 26.55 26.95 24.55 26.65 24.6 23 Z"/>
</g>

<g id="copie_Symbole_2_0_Layer1_0_FILL">
<path fill="#FFFFFF" stroke="none" d="
M 5.25 15.75
L 0 21 20 21 25.25 15.75 5.25 15.75 Z"/>

<path fill="#DCDCDC" stroke="none" d="
M 20 21
L 0 21 0 33 8 33 8 27 12 27 12 33 20 33 20 21
M 2 22
L 6 22 6 26 2 26 2 22
M 14 22
L 18 22 18 26 14 26 14 22 Z"/>
</g>

<g id="copie_Symbole_2_0_Layer0_0_FILL">
<path fill="#999999" stroke="none" d="
M 30 23.55
L 27.1 16.45 25.25 15.75 20 21 20 33 24.55 33 24.55 27.6 26.55 27.8 26.55 33 30 33 30 23.55
M 21.2 22.3
L 23.5 22.8 23.5 26.5 21.25 26.2 21.2 22.3
M 27.45 23.75
L 29.2 24.1 29.2 27.35 27.45 27.1 27.45 23.75 Z"/>
</g>

<g id="Layer1_0_FILL">
<path fill="#DCDCDC" stroke="none" d="
M 255 150
Q 255 106.5 224.25 75.7 193.5 45 150 45 106.5 45 75.7 75.7 45 106.5 45 150 45 193.5 75.7 224.25 106.5 255 150 255 193.5 255 224.25 224.25 255 193.5 255 150
M 222.1 77.85
Q 252 107.7 252 150 252 192.3 222.1 222.1 192.3 252 150 252 107.7 252 77.85 222.1 48 192.3 48 150 48 107.7 77.85 77.85 107.7 48 150 48 192.3 48 222.1 77.85 Z"/>
</g>
</defs>

<g transform="matrix( 0.888916015625, -0.4580230712890625, 0.4580230712890625, 0.888916015625, 74.55,35.35) ">
<g transform="matrix( 1, 0, 0, 1, 0,0) ">
<use xlink:href="#Symbole_2_0_Layer1_0_FILL"/>
</g>

<g transform="matrix( 1, 0, 0, 1, 0,0) ">
<use xlink:href="#Symbole_2_0_Layer0_0_FILL"/>
</g>
</g>

<g transform="matrix( 0.977569580078125, -0.2105865478515625, 0.2105865478515625, 0.977569580078125, 105.55,19.4) ">
<g transform="matrix( 1, 0, 0, 1, 0,0) ">
<use xlink:href="#copie_Symbole_2_0_Layer1_0_FILL"/>
</g>

<g transform="matrix( 1, 0, 0, 1, 0,0) ">
<use xlink:href="#copie_Symbole_2_0_Layer0_0_FILL"/>
</g>
</g>

<g transform="matrix( 1, 0, 0, 1, 0,0) ">
<use xlink:href="#Layer1_0_FILL"/>
</g>
</svg>
