
<svg xmlns="http://www.w3.org/2000/svg" version="1.1" xmlns:xlink="http://www.w3.org/1999/xlink" preserveAspectRatio="none" x="0px" y="0px" width="80px" height="80px" viewBox="0 0 80 80">
<defs>
<g id="Layer0_0_FILL">
<path fill="#000000" fill-opacity="0.30196078431372547" stroke="none" d="
M 59.8 22.2
L 59.8 20.25 40 40 20.2 20.2 20.2 22.2 40 42 59.8 22.2
M 55.05 22
L 56.15 20.9
Q 49.3 15 40 15 30.75 15 23.85 20.85
L 24.95 21.95
Q 31.5 17 40 17 48.55 17 55.05 22 Z"/>

<path fill="#C8C8C8" stroke="none" d="
M 58.25 18.8
Q 52.05 13.3 44 12.25
L 44 9
Q 44 7.3 42.8 6.1 41.65 5 40 5 38.3 5 37.1 6.1 36 7.3 36 9
L 36 12.25
Q 27.95 13.3 21.75 18.75 20.95 19.45 20.2 20.2
L 40 40 59.8 20.25 59.75 20.2
Q 59 19.45 58.25 18.8
M 56.15 20.9
L 55.05 22 40 37 24.95 21.95 23.85 20.85
Q 30.75 15 40 15 49.3 15 56.15 20.9 Z"/>
</g>
</defs>

<g transform="matrix( 1, 0, 0, 1, 0,0) ">
<use xlink:href="#Layer0_0_FILL"/>
</g>
</svg>
